<svg xmlns="http://www.w3.org/2000/svg" shape-rendering="crispEdges" viewBox="0 -0.5 120 120" style="width:100%;height:100%;transform:translate3d(0,0,0);content-visibility:visible">
  <path stroke="#333f29" d="M0,0 h2 M3,0 h1 M5,0 h1 M7,0 h3 M11,0 h1 M13,0 h1 M15,0 h1 
    M17,0 h1 M19,0 h7 M27,0 h3 M31,0 h1 M33,0 h1 M35,0 h3 M39,0 h1 M41,0 h1 M43,0 h1 
    M45,0 h1 M47,0 h3 M51,0 h1 M53,0 h1 M55,0 h7 M63,0 h1 M65,0 h1 M67,0 h3 M71,0 h1 
    M73,0 h1 M75,0 h3 M79,0 h1 M81,0 h1 M83,0 h3 M87,0 h1 M89,0 h1 M91,0 h1 M93,0 h1 
    M95,0 h11 M107,0 h7 M115,0 h1 M117,0 h1 M119,0 h1 M0,1 h2 M3,1 h1 M7,1 h3 M11,1 h1 
    M15,1 h1 M19,1 h7 M27,1 h3 M31,1 h1 M35,1 h3 M39,1 h1 M43,1 h1 M47,1 h3 M51,1 h1 
    M55,1 h7 M63,1 h1 M67,1 h3 M71,1 h1 M75,1 h3 M79,1 h1 M83,1 h3 M87,1 h1 M91,1 h1 
    M95,1 h11 M107,1 h7 M115,1 h1 M119,1 h1 M0,2 h120 M0,3 h3 M4,3 h5 M12,3 h3 
    M16,3 h1 M20,3 h1 M24,3 h3 M28,3 h1 M32,3 h7 M40,3 h1 M44,3 h3 M48,3 h1 M52,3 h3 
    M56,3 h1 M60,3 h3 M64,3 h1 M68,3 h5 M76,3 h3 M80,3 h5 M88,3 h3 M92,3 h1 M96,3 h1 
    M100,3 h3 M104,3 h1 M108,3 h3 M112,3 h3 M116,3 h1 M0,4 h2 M4,4 h5 M10,4 h1 
    M12,4 h2 M16,4 h1 M18,4 h1 M20,4 h1 M22,4 h1 M24,4 h2 M28,4 h1 M30,4 h1 M32,4 h6 
    M40,4 h1 M42,4 h1 M44,4 h2 M48,4 h1 M50,4 h1 M52,4 h2 M56,4 h1 M58,4 h1 M60,4 h2 
    M64,4 h1 M66,4 h1 M68,4 h5 M74,4 h1 M76,4 h2 M80,4 h5 M86,4 h1 M88,4 h2 M92,4 h1 
    M94,4 h1 M96,4 h1 M98,4 h1 M100,4 h2 M104,4 h1 M106,4 h1 M108,4 h2 M112,4 h2 
    M116,4 h1 M118,4 h1 M0,5 h3 M4,5 h5 M10,5 h1 M12,5 h3 M16,5 h1 M18,5 h1 M20,5 h1 
    M22,5 h1 M24,5 h3 M28,5 h1 M30,5 h1 M32,5 h7 M40,5 h1 M42,5 h1 M44,5 h3 M48,5 h1 
    M50,5 h1 M52,5 h3 M56,5 h1 M58,5 h1 M60,5 h3 M64,5 h1 M66,5 h1 M68,5 h5 M74,5 h1 
    M76,5 h3 M80,5 h5 M86,5 h1 M88,5 h3 M92,5 h1 M94,5 h1 M96,5 h1 M98,5 h1 M100,5 h3 
    M104,5 h1 M106,5 h1 M108,5 h3 M112,5 h3 M116,5 h1 M118,5 h1 M0,6 h3 M4,6 h5 
    M10,6 h1 M12,6 h3 M16,6 h1 M18,6 h1 M20,6 h1 M22,6 h1 M24,6 h3 M28,6 h1 M30,6 h1 
    M32,6 h7 M40,6 h1 M42,6 h1 M44,6 h3 M48,6 h1 M50,6 h1 M52,6 h3 M56,6 h1 M58,6 h1 
    M60,6 h3 M64,6 h1 M66,6 h1 M68,6 h5 M74,6 h1 M76,6 h3 M80,6 h5 M86,6 h1 M88,6 h3 
    M92,6 h1 M94,6 h1 M96,6 h1 M98,6 h1 M100,6 h3 M104,6 h1 M106,6 h1 M108,6 h3 
    M112,6 h3 M116,6 h1 M118,6 h1 M0,7 h3 M4,7 h5 M12,7 h3 M16,7 h1 M20,7 h1 M24,7 h3 
    M28,7 h1 M32,7 h7 M40,7 h1 M44,7 h3 M48,7 h1 M52,7 h3 M56,7 h1 M60,7 h3 M64,7 h1 
    M68,7 h5 M76,7 h3 M80,7 h5 M88,7 h3 M92,7 h1 M96,7 h1 M100,7 h3 M104,7 h1 M108,7 h3 
    M112,7 h3 M116,7 h1 M0,8 h120 M0,9 h4 M7,9 h1 M11,9 h1 M15,9 h7 M23,9 h1 M27,9 h9 
    M39,9 h3 M43,9 h1 M47,9 h7 M55,9 h1 M59,9 h3 M63,9 h1 M67,9 h3 M71,9 h1 M75,9 h3 
    M79,9 h5 M87,9 h1 M91,9 h3 M95,9 h3 M99,9 h1 M103,9 h3 M107,9 h1 M111,9 h7 
    M119,9 h1 M0,10 h4 M5,10 h1 M7,10 h1 M9,10 h1 M11,10 h1 M13,10 h1 M15,10 h6 
    M23,10 h1 M25,10 h1 M27,10 h9 M37,10 h1 M39,10 h2 M43,10 h1 M45,10 h1 M47,10 h6 
    M55,10 h1 M57,10 h1 M59,10 h2 M63,10 h1 M65,10 h1 M67,10 h2 M71,10 h1 M73,10 h1 
    M75,10 h2 M79,10 h5 M85,10 h1 M87,10 h1 M89,10 h1 M91,10 h2 M95,10 h2 M99,10 h1 
    M101,10 h1 M103,10 h2 M107,10 h1 M109,10 h1 M111,10 h6 M119,10 h1 M0,11 h4 
    M5,11 h1 M7,11 h1 M9,11 h1 M11,11 h1 M13,11 h1 M15,11 h7 M23,11 h1 M25,11 h1 
    M27,11 h9 M37,11 h1 M39,11 h3 M43,11 h1 M45,11 h1 M47,11 h7 M55,11 h1 M57,11 h1 
    M59,11 h3 M63,11 h1 M65,11 h1 M67,11 h3 M71,11 h1 M73,11 h1 M75,11 h3 M79,11 h5 
    M85,11 h1 M87,11 h1 M89,11 h1 M91,11 h3 M95,11 h3 M99,11 h1 M101,11 h1 M103,11 h3 
    M107,11 h1 M109,11 h1 M111,11 h7 M119,11 h1 M0,12 h4 M5,12 h1 M7,12 h1 M9,12 h1 
    M11,12 h1 M13,12 h1 M15,12 h7 M23,12 h1 M25,12 h1 M27,12 h9 M37,12 h1 M39,12 h3 
    M43,12 h1 M45,12 h1 M47,12 h7 M55,12 h1 M57,12 h1 M59,12 h3 M63,12 h1 M65,12 h1 
    M67,12 h3 M71,12 h1 M73,12 h1 M75,12 h3 M79,12 h5 M85,12 h1 M87,12 h1 M89,12 h1 
    M91,12 h3 M95,12 h3 M99,12 h1 M101,12 h1 M103,12 h3 M107,12 h1 M109,12 h1 M111,12 h7 
    M119,12 h1 M0,13 h4 M7,13 h1 M11,13 h1 M15,13 h7 M23,13 h1 M27,13 h9 M39,13 h3 
    M43,13 h1 M47,13 h7 M55,13 h1 M59,13 h3 M63,13 h1 M67,13 h3 M71,13 h1 M75,13 h3 
    M79,13 h5 M87,13 h1 M91,13 h3 M95,13 h3 M99,13 h1 M103,13 h3 M107,13 h1 M111,13 h7 
    M119,13 h1 M0,14 h120 M0,15 h5 M8,15 h3 M12,15 h1 M16,15 h1 M20,15 h1 M24,15 h3 
    M28,15 h3 M32,15 h1 M36,15 h3 M40,15 h5 M48,15 h3 M52,15 h1 M56,15 h3 M60,15 h11 
    M72,15 h1 M76,15 h3 M80,15 h1 M84,15 h3 M88,15 h1 M92,15 h1 M96,15 h7 M104,15 h3 
    M108,15 h1 M112,15 h3 M116,15 h1 M0,16 h5 M6,16 h1 M8,16 h2 M12,16 h1 M14,16 h1 
    M16,16 h1 M18,16 h1 M20,16 h1 M22,16 h1 M24,16 h2 M28,16 h2 M32,16 h1 M34,16 h1 
    M36,16 h2 M40,16 h5 M46,16 h1 M48,16 h2 M52,16 h1 M54,16 h1 M56,16 h2 M60,16 h10 
    M72,16 h1 M74,16 h1 M76,16 h2 M80,16 h1 M82,16 h1 M84,16 h2 M88,16 h1 M90,16 h1 
    M92,16 h1 M94,16 h1 M96,16 h6 M104,16 h2 M108,16 h1 M110,16 h1 M112,16 h2 M116,16 h1 
    M118,16 h1 M0,17 h5 M6,17 h1 M8,17 h3 M12,17 h1 M14,17 h1 M16,17 h1 M18,17 h1 
    M20,17 h1 M22,17 h1 M24,17 h3 M28,17 h3 M32,17 h1 M34,17 h1 M36,17 h3 M40,17 h5 
    M46,17 h1 M48,17 h3 M52,17 h1 M54,17 h1 M56,17 h3 M60,17 h11 M72,17 h1 M74,17 h1 
    M76,17 h3 M80,17 h1 M82,17 h1 M84,17 h3 M88,17 h1 M90,17 h1 M92,17 h1 M94,17 h1 
    M96,17 h7 M104,17 h3 M108,17 h1 M110,17 h1 M112,17 h3 M116,17 h1 M118,17 h1 
    M0,18 h5 M6,18 h1 M8,18 h3 M12,18 h1 M14,18 h1 M16,18 h1 M18,18 h1 M20,18 h1 
    M22,18 h1 M24,18 h3 M28,18 h3 M32,18 h1 M34,18 h1 M36,18 h3 M40,18 h5 M46,18 h1 
    M48,18 h3 M52,18 h1 M54,18 h1 M56,18 h3 M60,18 h11 M72,18 h1 M74,18 h1 M76,18 h3 
    M80,18 h1 M82,18 h1 M84,18 h3 M88,18 h1 M90,18 h1 M92,18 h1 M94,18 h1 M96,18 h7 
    M104,18 h3 M108,18 h1 M110,18 h1 M112,18 h3 M116,18 h1 M118,18 h1 M0,19 h5 
    M8,19 h3 M12,19 h1 M16,19 h1 M20,19 h1 M24,19 h3 M28,19 h3 M32,19 h1 M36,19 h3 
    M40,19 h5 M48,19 h3 M52,19 h1 M56,19 h3 M60,19 h11 M72,19 h1 M76,19 h3 M80,19 h1 
    M84,19 h3 M88,19 h1 M92,19 h1 M96,19 h7 M104,19 h3 M108,19 h1 M112,19 h3 M116,19 h1 
    M0,20 h120 M1,21 h3 M5,21 h3 M9,21 h7 M17,21 h1 M21,21 h1 M25,21 h5 M33,21 h3 
    M37,21 h5 M45,21 h3 M49,21 h7 M57,21 h1 M61,21 h3 M65,21 h1 M69,21 h5 M77,21 h7 
    M85,21 h1 M89,21 h3 M93,21 h1 M97,21 h7 M105,21 h1 M109,21 h3 M113,21 h3 M117,21 h1 
    M1,22 h2 M5,22 h2 M9,22 h6 M17,22 h1 M19,22 h1 M21,22 h1 M23,22 h1 M25,22 h5 
    M31,22 h1 M33,22 h2 M37,22 h5 M43,22 h1 M45,22 h2 M49,22 h6 M57,22 h1 M59,22 h1 
    M61,22 h2 M65,22 h1 M67,22 h1 M69,22 h5 M75,22 h1 M77,22 h6 M85,22 h1 M87,22 h1 
    M89,22 h2 M93,22 h1 M95,22 h1 M97,22 h6 M105,22 h1 M107,22 h1 M109,22 h2 M113,22 h2 
    M117,22 h1 M119,22 h1 M1,23 h3 M5,23 h3 M9,23 h7 M17,23 h1 M19,23 h1 M21,23 h1 
    M23,23 h1 M25,23 h5 M31,23 h1 M33,23 h3 M37,23 h5 M43,23 h1 M45,23 h3 M49,23 h7 
    M57,23 h1 M59,23 h1 M61,23 h3 M65,23 h1 M67,23 h1 M69,23 h5 M75,23 h1 M77,23 h7 
    M85,23 h1 M87,23 h1 M89,23 h3 M93,23 h1 M95,23 h1 M97,23 h7 M105,23 h1 M107,23 h1 
    M109,23 h3 M113,23 h3 M117,23 h1 M119,23 h1 M1,24 h3 M5,24 h3 M9,24 h7 M17,24 h1 
    M19,24 h1 M21,24 h1 M23,24 h1 M25,24 h5 M31,24 h1 M33,24 h3 M37,24 h5 M43,24 h1 
    M45,24 h3 M49,24 h7 M57,24 h1 M59,24 h1 M61,24 h3 M65,24 h1 M67,24 h1 M69,24 h5 
    M75,24 h1 M77,24 h7 M85,24 h1 M87,24 h1 M89,24 h3 M93,24 h1 M95,24 h1 M97,24 h7 
    M105,24 h1 M107,24 h1 M109,24 h3 M113,24 h3 M117,24 h1 M119,24 h1 M1,25 h3 
    M5,25 h3 M9,25 h7 M17,25 h1 M21,25 h1 M25,25 h5 M33,25 h3 M37,25 h5 M45,25 h3 
    M49,25 h7 M57,25 h1 M61,25 h3 M65,25 h1 M69,25 h5 M77,25 h7 M85,25 h1 M89,25 h3 
    M93,25 h1 M97,25 h7 M105,25 h1 M109,25 h3 M113,25 h3 M117,25 h1 M0,26 h120 
    M0,27 h3 M4,27 h1 M8,27 h5 M16,27 h3 M20,27 h3 M24,27 h1 M28,27 h3 M32,27 h5 
    M40,27 h3 M44,27 h1 M48,27 h3 M52,27 h3 M56,27 h1 M60,27 h3 M64,27 h1 M68,27 h3 
    M72,27 h1 M76,27 h3 M80,27 h1 M84,27 h1 M88,27 h1 M92,27 h3 M96,27 h3 M100,27 h1 
    M104,27 h3 M108,27 h5 M116,27 h3 M0,28 h2 M4,28 h1 M6,28 h1 M8,28 h5 M14,28 h1 
    M16,28 h2 M20,28 h2 M24,28 h1 M26,28 h1 M28,28 h2 M32,28 h5 M38,28 h1 M40,28 h2 
    M49,28 h1 M52,28 h2 M56,28 h1 M58,28 h1 M60,28 h2 M64,28 h1 M66,28 h1 M68,28 h2 
    M76,28 h2 M80,28 h1 M82,28 h1 M84,28 h1 M86,28 h1 M88,28 h1 M90,28 h1 M92,28 h2 
    M96,28 h2 M100,28 h1 M102,28 h1 M104,28 h2 M108,28 h5 M114,28 h1 M116,28 h2 
    M0,29 h3 M4,29 h1 M6,29 h1 M8,29 h5 M14,29 h1 M16,29 h3 M20,29 h3 M24,29 h1 
    M26,29 h1 M28,29 h3 M32,29 h5 M38,29 h1 M40,29 h3 M53,29 h1 M66,29 h1 M77,29 h2 
    M80,29 h1 M82,29 h1 M84,29 h1 M86,29 h1 M88,29 h1 M90,29 h1 M92,29 h3 M96,29 h3 
    M100,29 h1 M102,29 h1 M104,29 h3 M108,29 h5 M114,29 h1 M116,29 h3 M0,30 h3 
    M4,30 h1 M6,30 h1 M8,30 h5 M14,30 h1 M16,30 h3 M20,30 h3 M24,30 h1 M26,30 h1 
    M28,30 h3 M32,30 h5 M38,30 h1 M40,30 h3 M78,30 h1 M80,30 h1 M82,30 h1 M84,30 h1 
    M86,30 h1 M88,30 h1 M90,30 h1 M92,30 h3 M96,30 h3 M100,30 h1 M102,30 h1 M104,30 h3 
    M108,30 h5 M114,30 h1 M116,30 h3 M0,31 h3 M4,31 h1 M8,31 h5 M16,31 h3 M20,31 h3 
    M24,31 h1 M28,31 h3 M32,31 h5 M40,31 h3 M78,31 h1 M80,31 h1 M84,31 h1 M88,31 h1 
    M92,31 h3 M96,31 h3 M100,31 h1 M104,31 h3 M108,31 h5 M116,31 h3 M0,32 h43 M78,32 h42 
    M0,33 h2 M3,33 h1 M7,33 h5 M15,33 h5 M23,33 h7 M31,33 h1 M35,33 h3 M39,33 h1 
    M78,33 h8 M87,33 h1 M91,33 h5 M99,33 h7 M107,33 h7 M115,33 h1 M119,33 h1 M0,34 h1 
    M3,34 h1 M5,34 h1 M7,34 h5 M13,34 h1 M15,34 h5 M21,34 h1 M23,34 h6 M31,34 h1 
    M33,34 h1 M35,34 h2 M39,34 h1 M41,34 h1 M78,34 h7 M87,34 h1 M89,34 h1 M91,34 h5 
    M97,34 h1 M99,34 h6 M107,34 h6 M115,34 h1 M117,34 h1 M119,34 h1 M0,35 h2 M3,35 h1 
    M5,35 h1 M7,35 h5 M13,35 h1 M15,35 h5 M21,35 h1 M23,35 h7 M31,35 h1 M33,35 h1 
    M35,35 h3 M39,35 h1 M41,35 h1 M78,35 h8 M87,35 h1 M89,35 h1 M91,35 h5 M97,35 h1 
    M99,35 h7 M107,35 h7 M115,35 h1 M117,35 h1 M119,35 h1 M0,36 h2 M3,36 h1 M5,36 h1 
    M7,36 h5 M13,36 h1 M15,36 h5 M21,36 h1 M23,36 h7 M31,36 h1 M33,36 h1 M35,36 h3 
    M39,36 h1 M41,36 h1 M78,36 h8 M87,36 h1 M89,36 h1 M91,36 h5 M97,36 h1 M99,36 h7 
    M107,36 h7 M115,36 h1 M117,36 h1 M119,36 h1 M0,37 h2 M3,37 h1 M7,37 h5 M15,37 h5 
    M23,37 h7 M31,37 h1 M35,37 h3 M39,37 h1 M78,37 h8 M87,37 h1 M91,37 h5 M99,37 h7 
    M107,37 h7 M115,37 h1 M119,37 h1 M0,38 h42 M79,38 h41 M0,39 h3 M4,39 h17 M24,39 h11 
    M36,39 h5 M79,39 h4 M84,39 h7 M92,39 h1 M96,39 h15 M112,39 h3 M116,39 h4 M0,40 h2 
    M4,40 h17 M22,40 h1 M24,40 h10 M36,40 h5 M79,40 h3 M84,40 h6 M92,40 h1 M94,40 h1 
    M96,40 h14 M112,40 h2 M116,40 h4 M0,41 h3 M4,41 h17 M22,41 h1 M24,41 h11 M36,41 h4 
    M80,41 h3 M84,41 h7 M92,41 h1 M94,41 h1 M96,41 h15 M112,41 h3 M116,41 h4 M0,42 h3 
    M4,42 h17 M22,42 h1 M24,42 h11 M36,42 h4 M81,42 h2 M84,42 h7 M92,42 h1 M94,42 h1 
    M96,42 h15 M112,42 h3 M116,42 h4 M0,43 h3 M4,43 h17 M24,43 h11 M36,43 h3 M81,43 h2 
    M84,43 h7 M92,43 h1 M96,43 h15 M112,43 h3 M116,43 h4 M0,44 h39 M82,44 h38 M0,45 h2 
    M3,45 h1 M7,45 h5 M15,45 h3 M19,45 h13 M35,45 h3 M82,45 h12 M95,45 h11 M107,45 h1 
    M111,45 h7 M119,45 h1 M0,46 h1 M3,46 h1 M5,46 h1 M7,46 h5 M13,46 h1 M15,46 h2 
    M19,46 h13 M33,46 h1 M35,46 h3 M83,46 h10 M95,46 h10 M107,46 h1 M109,46 h1 
    M111,46 h6 M119,46 h1 M0,47 h2 M3,47 h1 M5,47 h1 M7,47 h5 M13,47 h1 M15,47 h3 
    M19,47 h13 M33,47 h1 M35,47 h3 M83,47 h11 M95,47 h11 M107,47 h1 M109,47 h1 
    M111,47 h7 M119,47 h1 M0,48 h2 M3,48 h1 M5,48 h1 M7,48 h5 M13,48 h1 M15,48 h3 
    M19,48 h13 M33,48 h1 M35,48 h3 M83,48 h11 M95,48 h11 M107,48 h1 M109,48 h1 
    M111,48 h7 M119,48 h1 M0,49 h2 M3,49 h1 M7,49 h5 M15,49 h3 M19,49 h13 M35,49 h2 
    M83,49 h11 M95,49 h11 M107,49 h1 M111,49 h7 M119,49 h1 M0,50 h37 M84,50 h36 
    M0,51 h17 M20,51 h13 M84,51 h3 M88,51 h9 M100,51 h3 M104,51 h3 M108,51 h7 M116,51 h1 
    M0,52 h17 M18,52 h1 M20,52 h13 M34,52 h1 M85,52 h1 M88,52 h9 M98,52 h1 M100,52 h2 
    M104,52 h2 M108,52 h6 M116,52 h1 M118,52 h1 M0,53 h17 M18,53 h1 M20,53 h13 
    M86,53 h1 M88,53 h9 M98,53 h1 M100,53 h3 M104,53 h3 M108,53 h7 M116,53 h1 M118,53 h1 
    M0,54 h17 M18,54 h1 M20,54 h13 M88,54 h9 M98,54 h1 M100,54 h3 M104,54 h3 M108,54 h7 
    M116,54 h1 M118,54 h1 M0,55 h17 M20,55 h13 M88,55 h9 M100,55 h3 M104,55 h3 
    M108,55 h7 M116,55 h1 M0,56 h34 M87,56 h33 M0,57 h8 M9,57 h1 M13,57 h3 M17,57 h11 
    M29,57 h1 M33,57 h1 M89,57 h5 M97,57 h9 M109,57 h9 M0,58 h7 M9,58 h1 M11,58 h1 
    M13,58 h2 M17,58 h10 M29,58 h1 M31,58 h1 M33,58 h1 M87,58 h1 M89,58 h5 M95,58 h1 
    M97,58 h9 M107,58 h1 M109,58 h9 M119,58 h1 M0,59 h8 M9,59 h1 M11,59 h1 M13,59 h3 
    M17,59 h11 M29,59 h1 M31,59 h1 M87,59 h1 M89,59 h5 M95,59 h1 M97,59 h9 M107,59 h1 
    M109,59 h9 M119,59 h1 M0,60 h8 M9,60 h1 M11,60 h1 M13,60 h3 M17,60 h11 M29,60 h1 
    M31,60 h1 M89,60 h5 M95,60 h1 M97,60 h9 M107,60 h1 M109,60 h9 M119,60 h1 M0,61 h8 
    M9,61 h1 M13,61 h3 M17,61 h11 M29,61 h1 M89,61 h5 M97,61 h9 M109,61 h9 M0,62 h33 
    M88,62 h32 M0,63 h23 M24,63 h7 M32,63 h1 M87,63 h14 M104,63 h15 M0,64 h22 M24,64 h6 
    M32,64 h1 M87,64 h14 M102,64 h1 M104,64 h14 M0,65 h23 M24,65 h7 M32,65 h1 M87,65 h14 
    M102,65 h1 M104,65 h15 M0,66 h23 M24,66 h7 M32,66 h1 M87,66 h14 M102,66 h1 
    M104,66 h15 M0,67 h23 M24,67 h7 M32,67 h1 M87,67 h14 M104,67 h15 M0,68 h33 
    M88,68 h32 M0,69 h17 M20,69 h13 M88,69 h20 M109,69 h11 M0,70 h17 M18,70 h1 
    M20,70 h12 M88,70 h19 M109,70 h11 M0,71 h17 M18,71 h1 M20,71 h12 M89,71 h19 
    M109,71 h11 M0,72 h17 M18,72 h1 M20,72 h12 M89,72 h19 M109,72 h11 M0,73 h17 
    M20,73 h11 M89,73 h19 M109,73 h11 M0,74 h31 M90,74 h30 M0,75 h31 M90,75 h30 
    M0,76 h31 M90,76 h30 M0,77 h31 M90,77 h30 M0,78 h31 M90,78 h30 M0,79 h31 M90,79 h30 
    M0,80 h31 M90,80 h30 M0,81 h31 M90,81 h30 M0,82 h31 M90,82 h30 M0,83 h32 M90,83 h30 
    M0,84 h32 M89,84 h31 M0,85 h33 M89,85 h31 M0,86 h34 M88,86 h32 M0,87 h35 M87,87 h33 
    M0,88 h36 M86,88 h34 M0,89 h36 M85,89 h35 M0,90 h36 M85,90 h35 M0,91 h36 M85,91 h35 
    M0,92 h36 M85,92 h35 M0,93 h37 M85,93 h35 M0,94 h38 M51,94 h20 M84,94 h36 M0,95 h39 
    M49,95 h24 M83,95 h37 M0,96 h120 M0,97 h120 M0,98 h120 M0,99 h120 M0,100 h120 
    M0,101 h120 M0,102 h120 M0,103 h120 M0,104 h120 M0,105 h120 M0,106 h120 M0,107 h120 
    M0,108 h120 M0,109 h120 M0,110 h120 M0,111 h120 M0,112 h120 M0,113 h120 M0,114 h120 
    M0,115 h120 M0,116 h120 M0,117 h120 M0,118 h120 M0,119 h120"/>
  <path stroke="#4e5c2c" d="M2,0 h1 M4,0 h1 M6,0 h1 M10,0 h1 M12,0 h1 M14,0 h1 
    M16,0 h1 M18,0 h1 M26,0 h1 M30,0 h1 M32,0 h1 M34,0 h1 M38,0 h1 M40,0 h1 M42,0 h1 
    M44,0 h1 M46,0 h1 M50,0 h1 M52,0 h1 M54,0 h1 M62,0 h1 M64,0 h1 M66,0 h1 M70,0 h1 
    M72,0 h1 M74,0 h1 M78,0 h1 M80,0 h1 M82,0 h1 M86,0 h1 M88,0 h1 M90,0 h1 M92,0 h1 
    M94,0 h1 M106,0 h1 M114,0 h1 M116,0 h1 M118,0 h1 M2,1 h1 M4,1 h3 M10,1 h1 M12,1 h3 
    M16,1 h3 M26,1 h1 M30,1 h1 M32,1 h3 M38,1 h1 M40,1 h3 M44,1 h3 M50,1 h1 M52,1 h3 
    M62,1 h1 M64,1 h3 M70,1 h1 M72,1 h3 M78,1 h1 M80,1 h3 M86,1 h1 M88,1 h3 M92,1 h3 
    M106,1 h1 M114,1 h1 M116,1 h3 M3,3 h1 M9,3 h3 M15,3 h1 M17,3 h3 M21,3 h3 M27,3 h1 
    M29,3 h3 M39,3 h1 M41,3 h3 M47,3 h1 M49,3 h3 M55,3 h1 M57,3 h3 M63,3 h1 M65,3 h3 
    M73,3 h3 M79,3 h1 M85,3 h3 M91,3 h1 M93,3 h3 M97,3 h3 M103,3 h1 M105,3 h3 M111,3 h1 
    M115,3 h1 M117,3 h3 M2,4 h2 M9,4 h1 M11,4 h1 M14,4 h2 M17,4 h1 M19,4 h1 M21,4 h1 
    M23,4 h1 M26,4 h2 M29,4 h1 M31,4 h1 M38,4 h2 M41,4 h1 M43,4 h1 M46,4 h2 M49,4 h1 
    M51,4 h1 M54,4 h2 M57,4 h1 M59,4 h1 M62,4 h2 M65,4 h1 M67,4 h1 M73,4 h1 M75,4 h1 
    M78,4 h2 M85,4 h1 M87,4 h1 M90,4 h2 M93,4 h1 M95,4 h1 M97,4 h1 M99,4 h1 M102,4 h2 
    M105,4 h1 M107,4 h1 M110,4 h2 M114,4 h2 M117,4 h1 M119,4 h1 M3,5 h1 M9,5 h1 
    M11,5 h1 M15,5 h1 M17,5 h1 M19,5 h1 M21,5 h1 M23,5 h1 M27,5 h1 M29,5 h1 M31,5 h1 
    M39,5 h1 M41,5 h1 M43,5 h1 M47,5 h1 M49,5 h1 M51,5 h1 M55,5 h1 M57,5 h1 M59,5 h1 
    M63,5 h1 M65,5 h1 M67,5 h1 M73,5 h1 M75,5 h1 M79,5 h1 M85,5 h1 M87,5 h1 M91,5 h1 
    M93,5 h1 M95,5 h1 M97,5 h1 M99,5 h1 M103,5 h1 M105,5 h1 M107,5 h1 M111,5 h1 
    M115,5 h1 M117,5 h1 M119,5 h1 M3,6 h1 M9,6 h1 M11,6 h1 M15,6 h1 M17,6 h1 M19,6 h1 
    M21,6 h1 M23,6 h1 M27,6 h1 M29,6 h1 M31,6 h1 M39,6 h1 M41,6 h1 M43,6 h1 M47,6 h1 
    M49,6 h1 M51,6 h1 M55,6 h1 M57,6 h1 M59,6 h1 M63,6 h1 M65,6 h1 M67,6 h1 M73,6 h1 
    M75,6 h1 M79,6 h1 M85,6 h1 M87,6 h1 M91,6 h1 M93,6 h1 M95,6 h1 M97,6 h1 M99,6 h1 
    M103,6 h1 M105,6 h1 M107,6 h1 M111,6 h1 M115,6 h1 M117,6 h1 M119,6 h1 M3,7 h1 
    M9,7 h3 M15,7 h1 M17,7 h3 M21,7 h3 M27,7 h1 M29,7 h3 M39,7 h1 M41,7 h3 M47,7 h1 
    M49,7 h3 M55,7 h1 M57,7 h3 M63,7 h1 M65,7 h3 M73,7 h3 M79,7 h1 M85,7 h3 M91,7 h1 
    M93,7 h3 M97,7 h3 M103,7 h1 M105,7 h3 M111,7 h1 M115,7 h1 M117,7 h3 M4,9 h3 
    M8,9 h3 M12,9 h3 M22,9 h1 M24,9 h3 M36,9 h3 M42,9 h1 M44,9 h3 M54,9 h1 M56,9 h3 
    M62,9 h1 M64,9 h3 M70,9 h1 M72,9 h3 M78,9 h1 M84,9 h3 M88,9 h3 M94,9 h1 M98,9 h1 
    M100,9 h3 M106,9 h1 M108,9 h3 M118,9 h1 M4,10 h1 M6,10 h1 M8,10 h1 M10,10 h1 
    M12,10 h1 M14,10 h1 M21,10 h2 M24,10 h1 M26,10 h1 M36,10 h1 M38,10 h1 M41,10 h2 
    M44,10 h1 M46,10 h1 M53,10 h2 M56,10 h1 M58,10 h1 M61,10 h2 M64,10 h1 M66,10 h1 
    M69,10 h2 M72,10 h1 M74,10 h1 M77,10 h2 M84,10 h1 M86,10 h1 M88,10 h1 M90,10 h1 
    M93,10 h2 M97,10 h2 M100,10 h1 M102,10 h1 M105,10 h2 M108,10 h1 M110,10 h1 
    M117,10 h2 M4,11 h1 M6,11 h1 M8,11 h1 M10,11 h1 M12,11 h1 M14,11 h1 M22,11 h1 
    M24,11 h1 M26,11 h1 M36,11 h1 M38,11 h1 M42,11 h1 M44,11 h1 M46,11 h1 M54,11 h1 
    M56,11 h1 M58,11 h1 M62,11 h1 M64,11 h1 M66,11 h1 M70,11 h1 M72,11 h1 M74,11 h1 
    M78,11 h1 M84,11 h1 M86,11 h1 M88,11 h1 M90,11 h1 M94,11 h1 M98,11 h1 M100,11 h1 
    M102,11 h1 M106,11 h1 M108,11 h1 M110,11 h1 M118,11 h1 M4,12 h1 M6,12 h1 M8,12 h1 
    M10,12 h1 M12,12 h1 M14,12 h1 M22,12 h1 M24,12 h1 M26,12 h1 M36,12 h1 M38,12 h1 
    M42,12 h1 M44,12 h1 M46,12 h1 M54,12 h1 M56,12 h1 M58,12 h1 M62,12 h1 M64,12 h1 
    M66,12 h1 M70,12 h1 M72,12 h1 M74,12 h1 M78,12 h1 M84,12 h1 M86,12 h1 M88,12 h1 
    M90,12 h1 M94,12 h1 M98,12 h1 M100,12 h1 M102,12 h1 M106,12 h1 M108,12 h1 M110,12 h1 
    M118,12 h1 M4,13 h3 M8,13 h3 M12,13 h3 M22,13 h1 M24,13 h3 M36,13 h3 M42,13 h1 
    M44,13 h3 M54,13 h1 M56,13 h3 M62,13 h1 M64,13 h3 M70,13 h1 M72,13 h3 M78,13 h1 
    M84,13 h3 M88,13 h3 M94,13 h1 M98,13 h1 M100,13 h3 M106,13 h1 M108,13 h3 M118,13 h1 
    M5,15 h3 M11,15 h1 M13,15 h3 M17,15 h3 M21,15 h3 M27,15 h1 M31,15 h1 M33,15 h3 
    M39,15 h1 M45,15 h3 M51,15 h1 M53,15 h3 M59,15 h1 M71,15 h1 M73,15 h3 M79,15 h1 
    M81,15 h3 M87,15 h1 M89,15 h3 M93,15 h3 M103,15 h1 M107,15 h1 M109,15 h3 M115,15 h1 
    M117,15 h3 M5,16 h1 M7,16 h1 M10,16 h2 M13,16 h1 M15,16 h1 M17,16 h1 M19,16 h1 
    M21,16 h1 M23,16 h1 M26,16 h2 M30,16 h2 M33,16 h1 M35,16 h1 M38,16 h2 M45,16 h1 
    M47,16 h1 M50,16 h2 M53,16 h1 M55,16 h1 M58,16 h2 M70,16 h2 M73,16 h1 M75,16 h1 
    M78,16 h2 M81,16 h1 M83,16 h1 M86,16 h2 M89,16 h1 M91,16 h1 M93,16 h1 M95,16 h1 
    M102,16 h2 M106,16 h2 M109,16 h1 M111,16 h1 M114,16 h2 M117,16 h1 M119,16 h1 
    M5,17 h1 M7,17 h1 M11,17 h1 M13,17 h1 M15,17 h1 M17,17 h1 M19,17 h1 M21,17 h1 
    M23,17 h1 M27,17 h1 M31,17 h1 M33,17 h1 M35,17 h1 M39,17 h1 M45,17 h1 M47,17 h1 
    M51,17 h1 M53,17 h1 M55,17 h1 M59,17 h1 M71,17 h1 M73,17 h1 M75,17 h1 M79,17 h1 
    M81,17 h1 M83,17 h1 M87,17 h1 M89,17 h1 M91,17 h1 M93,17 h1 M95,17 h1 M103,17 h1 
    M107,17 h1 M109,17 h1 M111,17 h1 M115,17 h1 M117,17 h1 M119,17 h1 M5,18 h1 
    M7,18 h1 M11,18 h1 M13,18 h1 M15,18 h1 M17,18 h1 M19,18 h1 M21,18 h1 M23,18 h1 
    M27,18 h1 M31,18 h1 M33,18 h1 M35,18 h1 M39,18 h1 M45,18 h1 M47,18 h1 M51,18 h1 
    M53,18 h1 M55,18 h1 M59,18 h1 M71,18 h1 M73,18 h1 M75,18 h1 M79,18 h1 M81,18 h1 
    M83,18 h1 M87,18 h1 M89,18 h1 M91,18 h1 M93,18 h1 M95,18 h1 M103,18 h1 M107,18 h1 
    M109,18 h1 M111,18 h1 M115,18 h1 M117,18 h1 M119,18 h1 M5,19 h3 M11,19 h1 M13,19 h3 
    M17,19 h3 M21,19 h3 M27,19 h1 M31,19 h1 M33,19 h3 M39,19 h1 M45,19 h3 M51,19 h1 
    M53,19 h3 M59,19 h1 M71,19 h1 M73,19 h3 M79,19 h1 M81,19 h3 M87,19 h1 M89,19 h3 
    M93,19 h3 M103,19 h1 M107,19 h1 M109,19 h3 M115,19 h1 M117,19 h3 M0,21 h1 M4,21 h1 
    M8,21 h1 M16,21 h1 M18,21 h3 M22,21 h3 M30,21 h3 M36,21 h1 M42,21 h3 M48,21 h1 
    M56,21 h1 M58,21 h3 M64,21 h1 M66,21 h3 M74,21 h3 M84,21 h1 M86,21 h3 M92,21 h1 
    M94,21 h3 M104,21 h1 M106,21 h3 M112,21 h1 M116,21 h1 M118,21 h2 M0,22 h1 M3,22 h2 
    M7,22 h2 M15,22 h2 M18,22 h1 M20,22 h1 M22,22 h1 M24,22 h1 M30,22 h1 M32,22 h1 
    M35,22 h2 M42,22 h1 M44,22 h1 M47,22 h2 M55,22 h2 M58,22 h1 M60,22 h1 M63,22 h2 
    M66,22 h1 M68,22 h1 M74,22 h1 M76,22 h1 M83,22 h2 M86,22 h1 M88,22 h1 M91,22 h2 
    M94,22 h1 M96,22 h1 M103,22 h2 M106,22 h1 M108,22 h1 M111,22 h2 M115,22 h2 
    M118,22 h1 M0,23 h1 M4,23 h1 M8,23 h1 M16,23 h1 M18,23 h1 M20,23 h1 M22,23 h1 
    M24,23 h1 M30,23 h1 M32,23 h1 M36,23 h1 M42,23 h1 M44,23 h1 M48,23 h1 M56,23 h1 
    M58,23 h1 M60,23 h1 M64,23 h1 M66,23 h1 M68,23 h1 M74,23 h1 M76,23 h1 M84,23 h1 
    M86,23 h1 M88,23 h1 M92,23 h1 M94,23 h1 M96,23 h1 M104,23 h1 M106,23 h1 M108,23 h1 
    M112,23 h1 M116,23 h1 M118,23 h1 M0,24 h1 M4,24 h1 M8,24 h1 M16,24 h1 M18,24 h1 
    M20,24 h1 M22,24 h1 M24,24 h1 M30,24 h1 M32,24 h1 M36,24 h1 M42,24 h1 M44,24 h1 
    M48,24 h1 M56,24 h1 M58,24 h1 M60,24 h1 M64,24 h1 M66,24 h1 M68,24 h1 M74,24 h1 
    M76,24 h1 M84,24 h1 M86,24 h1 M88,24 h1 M92,24 h1 M94,24 h1 M96,24 h1 M104,24 h1 
    M106,24 h1 M108,24 h1 M112,24 h1 M116,24 h1 M118,24 h1 M0,25 h1 M4,25 h1 M8,25 h1 
    M16,25 h1 M18,25 h3 M22,25 h3 M30,25 h3 M36,25 h1 M42,25 h3 M48,25 h1 M56,25 h1 
    M58,25 h3 M64,25 h1 M66,25 h3 M74,25 h3 M84,25 h1 M86,25 h3 M92,25 h1 M94,25 h3 
    M104,25 h1 M106,25 h3 M112,25 h1 M116,25 h1 M118,25 h2 M3,27 h1 M5,27 h3 M13,27 h3 
    M19,27 h1 M23,27 h1 M25,27 h3 M31,27 h1 M37,27 h3 M43,27 h1 M45,27 h3 M51,27 h1 
    M55,27 h1 M57,27 h3 M63,27 h1 M65,27 h3 M71,27 h1 M73,27 h3 M79,27 h1 M81,27 h3 
    M85,27 h3 M89,27 h3 M95,27 h1 M99,27 h1 M101,27 h3 M107,27 h1 M113,27 h3 M119,27 h1 
    M2,28 h2 M5,28 h1 M7,28 h1 M13,28 h1 M15,28 h1 M18,28 h2 M22,28 h2 M25,28 h1 
    M27,28 h1 M30,28 h2 M37,28 h1 M39,28 h1 M42,28 h2 M50,28 h2 M54,28 h2 M57,28 h1 
    M59,28 h1 M62,28 h2 M65,28 h1 M67,28 h1 M70,28 h1 M78,28 h2 M81,28 h1 M83,28 h1 
    M85,28 h1 M87,28 h1 M89,28 h1 M91,28 h1 M94,28 h2 M98,28 h2 M101,28 h1 M103,28 h1 
    M106,28 h2 M113,28 h1 M115,28 h1 M118,28 h2 M3,29 h1 M5,29 h1 M7,29 h1 M13,29 h1 
    M15,29 h1 M19,29 h1 M23,29 h1 M25,29 h1 M27,29 h1 M31,29 h1 M37,29 h1 M39,29 h1 
    M79,29 h1 M81,29 h1 M83,29 h1 M85,29 h1 M87,29 h1 M89,29 h1 M91,29 h1 M95,29 h1 
    M99,29 h1 M101,29 h1 M103,29 h1 M107,29 h1 M113,29 h1 M115,29 h1 M119,29 h1 
    M3,30 h1 M5,30 h1 M7,30 h1 M13,30 h1 M15,30 h1 M19,30 h1 M23,30 h1 M25,30 h1 
    M27,30 h1 M31,30 h1 M37,30 h1 M39,30 h1 M79,30 h1 M81,30 h1 M83,30 h1 M85,30 h1 
    M87,30 h1 M89,30 h1 M91,30 h1 M95,30 h1 M99,30 h1 M101,30 h1 M103,30 h1 M107,30 h1 
    M113,30 h1 M115,30 h1 M119,30 h1 M3,31 h1 M5,31 h3 M13,31 h3 M19,31 h1 M23,31 h1 
    M25,31 h3 M31,31 h1 M37,31 h3 M79,31 h1 M81,31 h3 M85,31 h3 M89,31 h3 M95,31 h1 
    M99,31 h1 M101,31 h3 M107,31 h1 M113,31 h3 M119,31 h1 M2,33 h1 M4,33 h3 M12,33 h3 
    M20,33 h3 M30,33 h1 M32,33 h3 M38,33 h1 M40,33 h3 M86,33 h1 M88,33 h3 M96,33 h3 
    M106,33 h1 M114,33 h1 M116,33 h3 M1,34 h2 M4,34 h1 M6,34 h1 M12,34 h1 M14,34 h1 
    M20,34 h1 M22,34 h1 M29,34 h2 M32,34 h1 M34,34 h1 M37,34 h2 M40,34 h1 M42,34 h1 
    M85,34 h2 M88,34 h1 M90,34 h1 M96,34 h1 M98,34 h1 M105,34 h2 M113,34 h2 M116,34 h1 
    M118,34 h1 M2,35 h1 M4,35 h1 M6,35 h1 M12,35 h1 M14,35 h1 M20,35 h1 M22,35 h1 
    M30,35 h1 M32,35 h1 M34,35 h1 M38,35 h1 M40,35 h1 M42,35 h1 M86,35 h1 M88,35 h1 
    M90,35 h1 M96,35 h1 M98,35 h1 M106,35 h1 M114,35 h1 M116,35 h1 M118,35 h1 M2,36 h1 
    M4,36 h1 M6,36 h1 M12,36 h1 M14,36 h1 M20,36 h1 M22,36 h1 M30,36 h1 M32,36 h1 
    M34,36 h1 M38,36 h1 M40,36 h1 M42,36 h1 M86,36 h1 M88,36 h1 M90,36 h1 M96,36 h1 
    M98,36 h1 M106,36 h1 M114,36 h1 M116,36 h1 M118,36 h1 M2,37 h1 M4,37 h3 M12,37 h3 
    M20,37 h3 M30,37 h1 M32,37 h3 M38,37 h1 M40,37 h2 M86,37 h1 M88,37 h3 M96,37 h3 
    M106,37 h1 M114,37 h1 M116,37 h3 M3,39 h1 M21,39 h3 M35,39 h1 M41,39 h1 M83,39 h1 
    M91,39 h1 M93,39 h3 M111,39 h1 M115,39 h1 M2,40 h2 M21,40 h1 M23,40 h1 M34,40 h2 
    M82,40 h2 M90,40 h2 M93,40 h1 M95,40 h1 M110,40 h2 M114,40 h2 M3,41 h1 M21,41 h1 
    M23,41 h1 M35,41 h1 M83,41 h1 M91,41 h1 M93,41 h1 M95,41 h1 M111,41 h1 M115,41 h1 
    M3,42 h1 M21,42 h1 M23,42 h1 M35,42 h1 M83,42 h1 M91,42 h1 M93,42 h1 M95,42 h1 
    M111,42 h1 M115,42 h1 M3,43 h1 M21,43 h3 M35,43 h1 M83,43 h1 M91,43 h1 M93,43 h3 
    M111,43 h1 M115,43 h1 M2,45 h1 M4,45 h3 M12,45 h3 M18,45 h1 M32,45 h3 M94,45 h1 
    M106,45 h1 M108,45 h3 M118,45 h1 M1,46 h2 M4,46 h1 M6,46 h1 M12,46 h1 M14,46 h1 
    M17,46 h2 M32,46 h1 M34,46 h1 M93,46 h2 M105,46 h2 M108,46 h1 M110,46 h1 M117,46 h2 
    M2,47 h1 M4,47 h1 M6,47 h1 M12,47 h1 M14,47 h1 M18,47 h1 M32,47 h1 M34,47 h1 
    M94,47 h1 M106,47 h1 M108,47 h1 M110,47 h1 M118,47 h1 M2,48 h1 M4,48 h1 M6,48 h1 
    M12,48 h1 M14,48 h1 M18,48 h1 M32,48 h1 M34,48 h1 M94,48 h1 M106,48 h1 M108,48 h1 
    M110,48 h1 M118,48 h1 M2,49 h1 M4,49 h3 M12,49 h3 M18,49 h1 M32,49 h3 M94,49 h1 
    M106,49 h1 M108,49 h3 M118,49 h1 M17,51 h3 M33,51 h3 M87,51 h1 M97,51 h3 M103,51 h1 
    M107,51 h1 M115,51 h1 M117,51 h3 M17,52 h1 M19,52 h1 M33,52 h1 M86,52 h2 M97,52 h1 
    M99,52 h1 M102,52 h2 M106,52 h2 M114,52 h2 M117,52 h1 M119,52 h1 M17,53 h1 
    M19,53 h1 M33,53 h1 M87,53 h1 M97,53 h1 M99,53 h1 M103,53 h1 M107,53 h1 M115,53 h1 
    M117,53 h1 M119,53 h1 M17,54 h1 M19,54 h1 M33,54 h1 M87,54 h1 M97,54 h1 M99,54 h1 
    M103,54 h1 M107,54 h1 M115,54 h1 M117,54 h1 M119,54 h1 M17,55 h3 M33,55 h1 
    M87,55 h1 M97,55 h3 M103,55 h1 M107,55 h1 M115,55 h1 M117,55 h3 M8,57 h1 M10,57 h3 
    M16,57 h1 M28,57 h1 M30,57 h3 M87,57 h2 M94,57 h3 M106,57 h3 M118,57 h2 M7,58 h2 
    M10,58 h1 M12,58 h1 M15,58 h2 M27,58 h2 M30,58 h1 M32,58 h1 M88,58 h1 M94,58 h1 
    M96,58 h1 M106,58 h1 M108,58 h1 M118,58 h1 M8,59 h1 M10,59 h1 M12,59 h1 M16,59 h1 
    M28,59 h1 M30,59 h1 M32,59 h1 M88,59 h1 M94,59 h1 M96,59 h1 M106,59 h1 M108,59 h1 
    M118,59 h1 M8,60 h1 M10,60 h1 M12,60 h1 M16,60 h1 M28,60 h1 M30,60 h1 M32,60 h1 
    M88,60 h1 M94,60 h1 M96,60 h1 M106,60 h1 M108,60 h1 M118,60 h1 M8,61 h1 M10,61 h3 
    M16,61 h1 M28,61 h1 M30,61 h3 M88,61 h1 M94,61 h3 M106,61 h3 M118,61 h2 M23,63 h1 
    M31,63 h1 M101,63 h3 M119,63 h1 M22,64 h2 M30,64 h2 M101,64 h1 M103,64 h1 M118,64 h2 
    M23,65 h1 M31,65 h1 M101,65 h1 M103,65 h1 M119,65 h1 M23,66 h1 M31,66 h1 M101,66 h1 
    M103,66 h1 M119,66 h1 M23,67 h1 M31,67 h1 M101,67 h3 M119,67 h1 M17,69 h3 M108,69 h1 
    M17,70 h1 M19,70 h1 M107,70 h2 M17,71 h1 M19,71 h1 M108,71 h1 M17,72 h1 M19,72 h1 
    M108,72 h1 M17,73 h3 M108,73 h1"/>
  <path stroke="#ffffff" d="M44,28 h5 M71,28 h5 M43,29 h2 M48,29 h5 M54,29 h12 
    M67,29 h5 M75,29 h2 M43,30 h1 M52,30 h3 M65,30 h3 M76,30 h1 M43,31 h1 M76,31 h1 
    M43,32 h1 M76,32 h1 M43,33 h1 M76,33 h1 M43,34 h1 M76,34 h1 M43,35 h1 M76,35 h1 
    M43,36 h1 M76,36 h1 M42,37 h2 M76,37 h2 M42,38 h1 M77,38 h1 M42,39 h1 M77,39 h1 
    M41,40 h2 M77,40 h2 M40,41 h2 M78,41 h2 M40,42 h1 M79,42 h1 M39,43 h2 M79,43 h2 
    M39,44 h1 M80,44 h1 M38,45 h2 M80,45 h2 M38,46 h1 M81,46 h1 M38,47 h1 M81,47 h1 
    M38,48 h1 M81,48 h1 M37,49 h2 M81,49 h2 M37,50 h1 M82,50 h1 M36,51 h2 M82,51 h2 
    M35,52 h2 M83,52 h2 M34,53 h2 M84,53 h2 M34,54 h1 M85,54 h1 M34,55 h1 M85,55 h1 
    M34,56 h1 M85,56 h1 M34,57 h1 M85,57 h1 M34,58 h1 M85,58 h1 M33,59 h2 M85,59 h2 
    M33,60 h1 M86,60 h1 M33,61 h1 M86,61 h1 M33,62 h1 M86,62 h1 M33,63 h1 M86,63 h1 
    M33,64 h1 M86,64 h1 M33,65 h1 M86,65 h1 M33,66 h2 M85,66 h2 M33,67 h2 M85,67 h2 
    M33,68 h1 M86,68 h1 M33,69 h1 M86,69 h1 M32,70 h2 M86,70 h2 M32,71 h1 M87,71 h1 
    M32,72 h1 M87,72 h1 M31,73 h2 M87,73 h2 M31,74 h1 M88,74 h1 M31,75 h1 M88,75 h1 
    M31,76 h1 M88,76 h1 M31,77 h1 M88,77 h1 M31,78 h1 M88,78 h1 M31,79 h1 M88,79 h1 
    M31,80 h1 M88,80 h1 M31,81 h1 M88,81 h1 M31,82 h2 M87,82 h2 M32,83 h1 M87,83 h1 
    M32,84 h2 M86,84 h2 M33,85 h2 M85,85 h2 M34,86 h2 M84,86 h2 M35,87 h2 M83,87 h2 
    M36,88 h1 M83,88 h1 M36,89 h1 M83,89 h1 M36,90 h1 M83,90 h1 M36,91 h1 M83,91 h1 
    M36,92 h2 M49,92 h22 M82,92 h2 M37,93 h2 M47,93 h3 M70,93 h3 M81,93 h2 M38,94 h10 
    M72,94 h10"/>
  <path stroke="#211d25" d="M45,29 h3 M72,29 h3 M44,30 h1 M48,30 h4 M55,30 h10 
    M68,30 h4 M75,30 h1 M77,30 h1 M44,31 h1 M52,31 h3 M65,31 h3 M75,31 h1 M77,31 h1 
    M44,32 h1 M75,32 h1 M77,32 h1 M44,33 h1 M75,33 h1 M77,33 h1 M44,34 h1 M75,34 h1 
    M77,34 h1 M44,35 h1 M75,35 h1 M77,35 h1 M44,36 h1 M75,36 h1 M77,36 h1 M44,37 h1 
    M75,37 h1 M43,38 h1 M76,38 h1 M78,38 h1 M43,39 h1 M76,39 h1 M78,39 h1 M43,40 h1 
    M76,40 h1 M42,41 h1 M77,41 h1 M41,42 h1 M50,42 h1 M54,42 h3 M63,42 h2 M68,42 h2 
    M78,42 h1 M80,42 h1 M41,43 h1 M49,43 h2 M54,43 h4 M62,43 h3 M68,43 h3 M78,43 h1 
    M40,44 h1 M49,44 h2 M54,44 h4 M62,44 h3 M68,44 h3 M79,44 h1 M81,44 h1 M40,45 h1 
    M50,45 h2 M55,45 h2 M63,45 h3 M69,45 h1 M79,45 h1 M39,46 h1 M51,46 h1 M55,46 h1 
    M64,46 h2 M80,46 h1 M82,46 h1 M39,47 h1 M80,47 h1 M82,47 h1 M39,48 h1 M59,48 h2 
    M80,48 h1 M82,48 h1 M39,49 h1 M59,49 h1 M80,49 h1 M38,50 h1 M40,50 h2 M54,50 h1 
    M65,50 h1 M78,50 h2 M81,50 h1 M83,50 h1 M38,51 h1 M42,51 h1 M56,51 h2 M62,51 h2 
    M77,51 h1 M81,51 h1 M37,52 h1 M43,52 h1 M76,52 h1 M82,52 h1 M36,53 h1 M44,53 h1 
    M75,53 h1 M83,53 h1 M35,54 h1 M44,54 h2 M74,54 h2 M84,54 h1 M86,54 h1 M35,55 h1 
    M43,55 h1 M46,55 h3 M71,55 h3 M76,55 h1 M84,55 h1 M86,55 h1 M35,56 h1 M43,56 h1 
    M48,56 h24 M76,56 h1 M84,56 h1 M86,56 h1 M35,57 h1 M43,57 h3 M48,57 h1 M58,57 h1 
    M61,57 h1 M71,57 h1 M74,57 h3 M84,57 h1 M86,57 h1 M35,58 h1 M45,58 h5 M57,58 h1 
    M62,58 h1 M70,58 h5 M84,58 h1 M86,58 h1 M35,59 h1 M45,59 h1 M74,59 h1 M84,59 h1 
    M34,60 h1 M42,60 h1 M77,60 h1 M85,60 h1 M87,60 h1 M34,61 h1 M42,61 h2 M76,61 h2 
    M85,61 h1 M87,61 h1 M34,62 h1 M40,62 h2 M43,62 h1 M76,62 h1 M78,62 h2 M85,62 h1 
    M87,62 h1 M34,63 h1 M39,63 h1 M44,63 h1 M75,63 h1 M80,63 h1 M85,63 h1 M34,64 h1 
    M38,64 h1 M43,64 h1 M45,64 h3 M72,64 h3 M76,64 h1 M81,64 h1 M85,64 h1 M34,65 h1 
    M38,65 h1 M42,65 h1 M48,65 h1 M71,65 h1 M77,65 h1 M81,65 h1 M85,65 h1 M35,66 h1 
    M37,66 h1 M42,66 h1 M49,66 h1 M70,66 h1 M77,66 h1 M82,66 h1 M84,66 h1 M35,67 h2 
    M41,67 h1 M78,67 h1 M83,67 h2 M34,68 h1 M36,68 h1 M41,68 h1 M78,68 h1 M83,68 h1 
    M85,68 h1 M87,68 h1 M34,69 h1 M37,69 h1 M40,69 h1 M79,69 h1 M82,69 h1 M85,69 h1 
    M87,69 h1 M34,70 h1 M38,70 h1 M40,70 h1 M50,70 h1 M69,70 h1 M79,70 h1 M81,70 h1 
    M85,70 h1 M33,71 h1 M39,71 h2 M49,71 h1 M70,71 h1 M79,71 h2 M86,71 h1 M88,71 h1 
    M33,72 h1 M41,72 h3 M47,72 h3 M70,72 h3 M76,72 h3 M86,72 h1 M88,72 h1 M33,73 h1 
    M44,73 h3 M49,73 h1 M70,73 h1 M73,73 h3 M86,73 h1 M32,74 h1 M49,74 h1 M70,74 h1 
    M87,74 h1 M89,74 h1 M32,75 h1 M49,75 h1 M70,75 h1 M87,75 h1 M89,75 h1 M32,76 h1 
    M49,76 h1 M70,76 h1 M87,76 h1 M89,76 h1 M32,77 h1 M49,77 h1 M70,77 h1 M87,77 h1 
    M89,77 h1 M32,78 h1 M49,78 h1 M70,78 h1 M87,78 h1 M89,78 h1 M32,79 h1 M48,79 h1 
    M71,79 h1 M87,79 h1 M89,79 h1 M32,80 h1 M47,80 h1 M72,80 h1 M87,80 h1 M89,80 h1 
    M32,81 h1 M47,81 h1 M72,81 h1 M87,81 h1 M89,81 h1 M33,82 h4 M46,82 h1 M73,82 h1 
    M83,82 h4 M89,82 h1 M33,83 h1 M37,83 h5 M46,83 h1 M73,83 h1 M78,83 h5 M86,83 h1 
    M88,83 h2 M34,84 h1 M42,84 h4 M74,84 h4 M85,84 h1 M88,84 h1 M35,85 h1 M84,85 h1 
    M87,85 h2 M36,86 h1 M41,86 h1 M78,86 h1 M83,86 h1 M86,86 h2 M37,87 h4 M79,87 h4 
    M85,87 h2 M37,88 h1 M47,88 h1 M72,88 h1 M82,88 h1 M84,88 h2 M37,89 h1 M48,89 h1 
    M71,89 h1 M82,89 h1 M84,89 h1 M37,90 h1 M48,90 h1 M71,90 h1 M82,90 h1 M84,90 h1 
    M37,91 h1 M48,91 h24 M82,91 h1 M84,91 h1 M38,92 h1 M47,92 h2 M71,92 h2 M81,92 h1 
    M84,92 h1 M39,93 h8 M50,93 h20 M73,93 h8 M83,93 h2 M48,94 h3 M71,94 h1 M82,94 h2 
    M39,95 h10 M73,95 h10"/>
  <path stroke="#3c3c3c" d="M45,30 h1 M74,30 h1 M45,31 h2 M50,31 h2 M68,31 h2 M73,31 h2 
    M45,32 h1 M52,32 h2 M66,32 h2 M74,32 h1 M55,41 h1 M64,41 h1 M42,42 h1 M77,42 h1 
    M42,43 h1 M77,43 h1 M41,44 h1 M78,44 h1 M41,45 h1 M78,45 h1 M40,46 h1 M79,46 h1 
    M40,47 h1 M79,47 h1 M40,48 h2 M78,48 h2 M40,49 h2 M60,49 h1 M78,49 h2 M39,50 h1 
    M42,50 h1 M58,50 h1 M61,50 h1 M77,50 h1 M80,50 h1 M39,51 h3 M55,51 h1 M64,51 h1 
    M78,51 h3 M41,52 h2 M44,52 h1 M75,52 h1 M77,52 h2 M43,53 h1 M45,53 h1 M74,53 h1 
    M76,53 h1 M43,54 h1 M46,54 h2 M72,54 h2 M76,54 h1 M42,55 h1 M45,55 h1 M49,55 h2 
    M69,55 h2 M74,55 h1 M77,55 h1 M42,56 h1 M46,56 h2 M72,56 h2 M77,56 h1 M47,57 h1 
    M72,57 h1 M43,58 h2 M75,58 h2 M44,59 h1 M75,59 h1 M43,60 h1 M45,60 h1 M74,60 h1 
    M76,60 h1 M40,61 h2 M44,61 h1 M75,61 h1 M78,61 h2 M38,62 h2 M42,62 h1 M44,62 h1 
    M75,62 h1 M77,62 h1 M80,62 h2 M37,63 h2 M40,63 h1 M79,63 h1 M81,63 h2 M37,64 h1 
    M82,64 h1 M36,65 h2 M82,65 h2 M36,66 h1 M38,66 h1 M81,66 h1 M83,66 h1 M37,67 h1 
    M50,67 h1 M69,67 h1 M82,67 h1 M35,68 h1 M50,68 h1 M69,68 h1 M84,68 h1 M35,69 h2 
    M50,69 h1 M69,69 h1 M83,69 h2 M36,70 h2 M82,70 h2 M37,71 h2 M81,71 h2 M40,72 h1 
    M79,72 h1 M43,73 h1 M47,73 h2 M71,73 h2 M76,73 h1 M47,78 h1 M72,78 h1 M47,79 h1 
    M72,79 h1 M37,80 h1 M46,80 h1 M73,80 h1 M82,80 h1 M33,81 h6 M45,81 h2 M73,81 h2 
    M81,81 h6 M37,82 h1 M39,82 h4 M45,82 h1 M74,82 h1 M77,82 h4 M82,82 h1 M42,83 h4 
    M74,83 h4 M42,86 h4 M74,86 h4 M46,87 h1 M73,87 h1 M40,92 h1 M45,92 h1 M74,92 h1 
    M79,92 h1"/>
  <path stroke="#8d837d" d="M46,30 h2 M72,30 h2 M47,31 h1 M72,31 h1 M56,32 h1 M58,32 h4 
    M63,32 h1 M55,35 h1 M64,35 h1 M48,36 h1 M71,36 h1 M45,37 h2 M48,37 h1 M71,37 h1 
    M73,37 h2 M44,40 h2 M53,40 h1 M66,40 h1 M74,40 h2 M44,41 h1 M50,41 h1 M69,41 h1 
    M75,41 h1 M43,43 h1 M76,43 h1 M43,44 h1 M47,44 h1 M72,44 h1 M76,44 h1 M43,45 h1 
    M46,45 h2 M72,45 h2 M76,45 h1 M43,46 h2 M75,46 h2 M44,47 h2 M74,47 h2 M43,48 h2 
    M48,48 h1 M71,48 h1 M75,48 h2 M58,49 h1 M61,49 h1 M47,50 h3 M55,50 h2 M59,50 h2 
    M63,50 h2 M70,50 h3 M46,52 h1 M73,52 h1 M47,53 h1 M72,53 h1 M49,54 h2 M69,54 h2 
    M55,55 h10 M44,64 h1 M75,64 h1 M44,65 h2 M47,65 h1 M72,65 h1 M74,65 h2 M43,66 h1 
    M48,66 h1 M71,66 h1 M76,66 h1 M49,67 h1 M70,67 h1 M48,68 h1 M71,68 h1 M41,69 h1 
    M49,69 h1 M70,69 h1 M78,69 h1 M41,70 h2 M48,70 h2 M70,70 h2 M77,70 h2 M44,71 h1 
    M46,71 h2 M72,71 h2 M75,71 h1 M44,72 h1 M46,72 h1 M73,72 h1 M75,72 h1 M47,82 h2 
    M71,82 h2 M49,83 h1 M53,83 h1 M57,83 h1 M62,83 h1 M66,83 h1 M70,83 h1 M37,84 h1 
    M40,84 h1 M46,84 h4 M52,84 h1 M54,84 h1 M56,84 h1 M63,84 h1 M65,84 h1 M67,84 h1 
    M70,84 h4 M79,84 h1 M82,84 h1 M38,85 h1 M43,85 h1 M45,85 h1 M47,85 h2 M50,85 h3 
    M54,85 h1 M56,85 h1 M58,85 h1 M61,85 h1 M63,85 h1 M65,85 h1 M67,85 h3 M71,85 h2 
    M74,85 h1 M76,85 h1 M81,85 h1 M48,86 h3 M53,86 h4 M58,86 h4 M63,86 h4 M69,86 h3 
    M41,87 h5 M49,87 h1 M51,87 h2 M54,87 h2 M57,87 h1 M59,87 h2 M62,87 h1 M64,87 h2 
    M67,87 h2 M70,87 h1 M74,87 h5 M38,88 h3 M42,88 h1 M45,88 h2 M50,88 h1 M52,88 h4 
    M57,88 h6 M64,88 h4 M69,88 h1 M73,88 h2 M77,88 h1 M79,88 h3 M38,89 h1 M46,89 h2 
    M51,89 h1 M53,89 h1 M55,89 h1 M64,89 h1 M66,89 h1 M68,89 h1 M72,89 h2 M81,89 h1 
    M38,90 h1 M40,90 h1 M47,90 h1 M54,90 h1 M65,90 h1 M72,90 h1 M79,90 h1 M81,90 h1 
    M38,91 h2 M42,91 h1 M47,91 h1 M72,91 h1 M77,91 h1 M80,91 h2"/>
  <path stroke="#635d5a" d="M48,31 h2 M55,31 h10 M70,31 h2 M49,32 h3 M68,32 h3 
    M45,33 h1 M50,33 h4 M57,33 h1 M62,33 h1 M66,33 h4 M74,33 h1 M45,34 h1 M51,34 h2 
    M56,34 h1 M63,34 h1 M67,34 h2 M74,34 h1 M45,35 h1 M50,35 h2 M68,35 h2 M74,35 h1 
    M45,36 h1 M49,36 h2 M69,36 h2 M74,36 h1 M47,37 h1 M72,37 h1 M44,38 h3 M73,38 h3 
    M44,39 h2 M74,39 h2 M54,40 h1 M56,40 h1 M63,40 h1 M65,40 h1 M43,41 h1 M76,41 h1 
    M43,42 h2 M49,42 h1 M70,42 h1 M75,42 h2 M44,43 h1 M48,43 h1 M71,43 h1 M75,43 h1 
    M42,44 h1 M45,44 h1 M74,44 h1 M77,44 h1 M42,45 h1 M77,45 h1 M41,46 h2 M77,46 h2 
    M41,47 h3 M76,47 h3 M42,48 h1 M47,48 h1 M54,48 h1 M65,48 h1 M72,48 h1 M77,48 h1 
    M42,49 h2 M46,49 h1 M73,49 h1 M76,49 h2 M43,50 h4 M57,50 h1 M62,50 h1 M73,50 h4 
    M43,51 h2 M75,51 h2 M45,52 h1 M74,52 h1 M46,53 h1 M73,53 h1 M48,54 h1 M71,54 h1 
    M51,55 h4 M65,55 h4 M49,68 h1 M70,68 h1 M41,71 h2 M48,71 h1 M71,71 h1 M77,71 h2 
    M45,72 h1 M74,72 h1 M34,83 h3 M83,83 h3 M35,84 h2 M38,84 h2 M41,84 h1 M78,84 h1 
    M80,84 h2 M83,84 h2 M36,85 h2 M39,85 h4 M44,85 h1 M46,85 h1 M73,85 h1 M75,85 h1 
    M77,85 h4 M82,85 h2 M37,86 h4 M46,86 h2 M51,86 h1 M68,86 h1 M72,86 h2 M79,86 h4 
    M47,87 h2 M50,87 h1 M69,87 h1 M71,87 h2 M48,88 h2 M51,88 h1 M56,88 h1 M63,88 h1 
    M68,88 h1 M70,88 h2 M49,89 h2 M52,89 h1 M54,89 h1 M56,89 h8 M65,89 h1 M67,89 h1 
    M69,89 h2 M49,90 h5 M55,90 h10 M66,90 h5 M40,91 h1 M44,91 h1 M46,91 h1 M73,91 h1 
    M75,91 h1 M79,91 h1 M39,92 h1 M41,92 h4 M46,92 h1 M73,92 h1 M75,92 h4 M80,92 h1"/>
  <path stroke="#ffbdc1" d="M46,32 h1 M73,32 h1 M46,33 h1 M73,33 h1 M46,34 h1 M73,34 h1"/>
  <path stroke="#ef93b5" d="M47,32 h1 M72,32 h1 M47,33 h1 M72,33 h1 M47,34 h1 M72,34 h1 
    M46,35 h3 M71,35 h3"/>
  <path stroke="#c971a2" d="M48,32 h1 M71,32 h1 M48,33 h1 M71,33 h1 M48,34 h2 M70,34 h2 
    M49,35 h1 M70,35 h1 M46,36 h2 M72,36 h2"/>
  <path stroke="#b4aea4" d="M54,32 h2 M57,32 h1 M62,32 h1 M64,32 h2 M54,33 h3 M58,33 h4 
    M63,33 h3 M53,34 h3 M57,34 h6 M64,34 h3 M52,35 h3 M56,35 h8 M65,35 h3 M51,36 h18 
    M49,37 h22 M47,38 h26 M46,39 h28 M46,40 h7 M55,40 h1 M57,40 h6 M64,40 h1 M67,40 h7 
    M45,41 h5 M51,41 h4 M56,41 h8 M65,41 h4 M70,41 h5 M45,42 h4 M57,42 h6 M71,42 h4 
    M45,43 h3 M72,43 h3 M44,44 h1 M46,44 h1 M48,44 h1 M71,44 h1 M73,44 h1 M75,44 h1 
    M44,45 h2 M48,45 h2 M57,45 h6 M70,45 h2 M74,45 h2 M45,46 h6 M56,46 h2 M62,46 h2 
    M69,46 h6 M46,47 h13 M61,47 h13 M45,48 h2 M49,48 h5 M55,48 h4 M61,48 h4 M66,48 h5 
    M73,48 h2 M44,49 h2 M47,49 h11 M62,49 h11 M74,49 h2 M50,50 h4 M66,50 h4 M45,51 h10 
    M58,51 h4 M65,51 h10 M47,52 h26 M48,53 h24 M51,54 h18 M43,65 h1 M46,65 h1 M73,65 h1 
    M76,65 h1 M44,66 h4 M72,66 h4 M42,67 h7 M71,67 h7 M42,68 h6 M72,68 h6 M42,69 h7 
    M71,69 h7 M43,70 h5 M72,70 h5 M43,71 h1 M45,71 h1 M74,71 h1 M76,71 h1 M50,77 h3 
    M67,77 h3 M50,78 h5 M65,78 h5 M49,79 h7 M64,79 h7 M48,80 h11 M61,80 h11 M48,81 h24 
    M49,82 h22 M47,83 h2 M50,83 h3 M54,83 h3 M58,83 h4 M63,83 h3 M67,83 h3 M71,83 h2 
    M50,84 h2 M53,84 h1 M55,84 h1 M57,84 h6 M64,84 h1 M66,84 h1 M68,84 h2 M49,85 h1 
    M53,85 h1 M55,85 h1 M57,85 h1 M59,85 h2 M62,85 h1 M64,85 h1 M66,85 h1 M70,85 h1 
    M52,86 h1 M57,86 h1 M62,86 h1 M67,86 h1 M53,87 h1 M56,87 h1 M58,87 h1 M61,87 h1 
    M63,87 h1 M66,87 h1 M41,88 h1 M43,88 h2 M75,88 h2 M78,88 h1 M39,89 h7 M74,89 h7 
    M39,90 h1 M41,90 h6 M73,90 h6 M80,90 h1 M41,91 h1 M43,91 h1 M45,91 h1 M74,91 h1 
    M76,91 h1 M78,91 h1"/>
  <path stroke="#944e89" d="M49,33 h1 M70,33 h1 M50,34 h1 M69,34 h1"/>
  <path stroke="#5c5b63" d="M51,42 h3 M65,42 h3 M51,43 h3 M65,43 h3 M51,44 h3 M65,44 h3 
    M52,45 h3 M66,45 h3 M52,46 h3 M66,46 h3 M56,57 h1 M63,57 h1 M57,59 h1 M62,59 h1"/>
  <path stroke="#b66a4d" d="M58,43 h4 M59,57 h2 M58,58 h1 M61,58 h1 M59,59 h2 M58,60 h1 
    M61,60 h1 M58,61 h1 M61,61 h1"/>
  <path stroke="#f4ba7a" d="M58,44 h1 M61,44 h1"/>
  <path stroke="#fcfbc9" d="M59,44 h2 M59,58 h1 M59,60 h2 M59,61 h1 M59,62 h1"/>
  <path stroke="#643747" d="M58,46 h1 M61,46 h1 M47,59 h3 M46,60 h1 M50,60 h1 M45,61 h1 
    M51,61 h1 M45,62 h1 M52,62 h1 M45,63 h1 M50,63 h2 M53,63 h1 M49,64 h2 M54,64 h1 
    M49,65 h1 M55,65 h1 M55,66 h1 M55,67 h1 M54,68 h1 M51,69 h3"/>
  <path stroke="#fa8971" d="M59,46 h1 M47,60 h1 M48,61 h1 M49,62 h1 M51,64 h1 M52,65 h1 
    M53,66 h1 M54,67 h1"/>
  <path stroke="#b2434d" d="M60,46 h1 M59,47 h1 M49,60 h1 M50,61 h1 M46,62 h1 M51,62 h1 
    M46,63 h2 M52,63 h1 M48,64 h1 M53,64 h1 M54,65 h1 M50,66 h1 M51,67 h1 M51,68 h2"/>
  <path stroke="#e55858" d="M60,47 h1 M48,60 h1 M46,61 h2 M49,61 h1 M47,62 h2 M50,62 h1 
    M48,63 h2 M52,64 h1 M50,65 h2 M53,65 h1 M51,66 h2 M54,66 h1 M52,67 h2 M53,68 h1"/>
  <path stroke="#585f57" d="M38,52 h3 M79,52 h3 M37,53 h1 M39,53 h1 M41,53 h2 M77,53 h2 
    M80,53 h1 M82,53 h1 M36,54 h1 M38,54 h1 M40,54 h1 M42,54 h1 M77,54 h1 M79,54 h1 
    M81,54 h1 M83,54 h1 M37,55 h1 M39,55 h1 M41,55 h1 M44,55 h1 M75,55 h1 M78,55 h1 
    M80,55 h1 M82,55 h1 M36,56 h1 M38,56 h1 M41,56 h1 M45,56 h1 M74,56 h1 M78,56 h1 
    M81,56 h1 M83,56 h1 M40,57 h3 M46,57 h1 M73,57 h1 M77,57 h3 M37,58 h1 M39,58 h1 
    M41,58 h2 M77,58 h2 M80,58 h1 M82,58 h1 M36,59 h1 M38,59 h1 M41,59 h3 M76,59 h3 
    M81,59 h1 M83,59 h1 M37,60 h1 M39,60 h3 M44,60 h1 M75,60 h1 M78,60 h3 M82,60 h1 
    M36,61 h1 M38,61 h2 M80,61 h2 M83,61 h1 M35,62 h1 M37,62 h1 M82,62 h1 M84,62 h1 
    M36,63 h1 M41,63 h1 M43,63 h1 M76,63 h1 M78,63 h1 M83,63 h1 M36,64 h1 M39,64 h1 
    M41,64 h2 M77,64 h2 M80,64 h1 M83,64 h1 M35,65 h1 M40,65 h2 M78,65 h2 M84,65 h1 
    M39,66 h1 M41,66 h1 M78,66 h1 M80,66 h1 M38,67 h1 M40,67 h1 M79,67 h1 M81,67 h1 
    M37,68 h1 M40,68 h1 M79,68 h1 M82,68 h1 M38,69 h1 M81,69 h1 M35,70 h1 M39,70 h1 
    M80,70 h1 M84,70 h1 M36,71 h1 M83,71 h1 M38,72 h2 M80,72 h2 M34,73 h1 M39,73 h4 
    M77,73 h4 M85,73 h1 M35,74 h1 M38,74 h1 M41,74 h1 M43,74 h1 M45,74 h4 M71,74 h4 
    M76,74 h1 M78,74 h1 M81,74 h1 M84,74 h1 M34,75 h1 M37,75 h1 M39,75 h1 M41,75 h1 
    M43,75 h2 M46,75 h2 M72,75 h2 M75,75 h2 M78,75 h1 M80,75 h1 M82,75 h1 M85,75 h1 
    M33,76 h1 M35,76 h1 M38,76 h1 M40,76 h1 M42,76 h5 M48,76 h1 M71,76 h1 M73,76 h5 
    M79,76 h1 M81,76 h1 M84,76 h1 M86,76 h1 M34,77 h1 M37,77 h1 M39,77 h1 M41,77 h1 
    M43,77 h3 M47,77 h1 M72,77 h1 M74,77 h3 M78,77 h1 M80,77 h1 M82,77 h1 M85,77 h1 
    M39,78 h2 M42,78 h3 M46,78 h1 M48,78 h1 M71,78 h1 M73,78 h1 M75,78 h3 M79,78 h2 
    M36,79 h3 M41,79 h1 M43,79 h3 M74,79 h3 M78,79 h1 M81,79 h3 M33,80 h4 M38,80 h3 
    M42,80 h2 M45,80 h1 M74,80 h1 M76,80 h2 M79,80 h3 M83,80 h4 M39,81 h4 M44,81 h1 
    M75,81 h1 M77,81 h4 M38,82 h1 M43,82 h2 M75,82 h2 M81,82 h1"/>
  <path stroke="#7b8375" d="M38,53 h1 M40,53 h1 M79,53 h1 M81,53 h1 M37,54 h1 M39,54 h1 
    M41,54 h1 M78,54 h1 M80,54 h1 M82,54 h1 M36,55 h1 M38,55 h1 M40,55 h1 M79,55 h1 
    M81,55 h1 M83,55 h1 M37,56 h1 M39,56 h2 M44,56 h1 M75,56 h1 M79,56 h2 M82,56 h1 
    M36,57 h4 M80,57 h4 M36,58 h1 M38,58 h1 M40,58 h1 M79,58 h1 M81,58 h1 M83,58 h1 
    M37,59 h1 M39,59 h2 M46,59 h1 M73,59 h1 M79,59 h2 M82,59 h1 M35,60 h2 M38,60 h1 
    M81,60 h1 M83,60 h2 M35,61 h1 M37,61 h1 M82,61 h1 M84,61 h1 M36,62 h1 M83,62 h1 
    M35,63 h1 M42,63 h1 M77,63 h1 M84,63 h1 M35,64 h1 M40,64 h1 M79,64 h1 M84,64 h1 
    M39,65 h1 M80,65 h1 M40,66 h1 M79,66 h1 M39,67 h1 M80,67 h1 M38,68 h2 M80,68 h2 
    M39,69 h1 M80,69 h1 M34,71 h2 M84,71 h2 M34,72 h4 M82,72 h4 M35,73 h4 M81,73 h4 
    M33,74 h2 M36,74 h2 M39,74 h2 M42,74 h1 M44,74 h1 M75,74 h1 M77,74 h1 M79,74 h2 
    M82,74 h2 M85,74 h2 M33,75 h1 M35,75 h2 M38,75 h1 M40,75 h1 M42,75 h1 M45,75 h1 
    M48,75 h1 M71,75 h1 M74,75 h1 M77,75 h1 M79,75 h1 M81,75 h1 M83,75 h2 M86,75 h1 
    M34,76 h1 M36,76 h2 M39,76 h1 M41,76 h1 M47,76 h1 M72,76 h1 M78,76 h1 M80,76 h1 
    M82,76 h2 M85,76 h1 M33,77 h1 M35,77 h2 M38,77 h1 M40,77 h1 M42,77 h1 M46,77 h1 
    M48,77 h1 M71,77 h1 M73,77 h1 M77,77 h1 M79,77 h1 M81,77 h1 M83,77 h2 M86,77 h1 
    M33,78 h6 M41,78 h1 M45,78 h1 M74,78 h1 M78,78 h1 M81,78 h6 M33,79 h3 M39,79 h2 
    M42,79 h1 M46,79 h1 M73,79 h1 M77,79 h1 M79,79 h2 M84,79 h3 M41,80 h1 M44,80 h1 
    M75,80 h1 M78,80 h1 M43,81 h1 M76,81 h1"/>
  <path stroke="#9f76b8" d="M49,57 h4 M54,57 h1 M65,57 h1 M67,57 h4 M55,58 h1 M64,58 h1 
    M54,59 h1 M65,59 h1 M54,62 h1 M62,62 h1 M65,62 h1 M54,63 h1 M61,63 h1 M63,63 h1 
    M65,63 h1 M61,64 h1 M61,65 h1 M60,66 h1 M60,67 h1 M60,68 h1 M60,69 h1 M60,70 h1 
    M50,71 h5 M60,71 h1 M65,71 h5 M54,72 h1 M65,72 h1 M50,73 h2 M53,73 h2 M65,73 h2 
    M68,73 h2 M60,74 h1 M60,75 h1 M60,76 h1 M60,77 h1 M60,78 h1 M60,79 h1"/>
  <path stroke="#725689" d="M53,57 h1 M66,57 h1 M50,58 h5 M65,58 h5 M50,59 h4 M55,59 h1 
    M64,59 h1 M66,59 h4 M51,60 h6 M63,60 h6 M52,61 h5 M63,61 h5 M53,62 h1 M55,62 h3 
    M63,62 h2 M66,62 h1 M55,63 h4 M62,63 h1 M64,63 h1 M55,64 h5 M62,64 h3 M56,65 h4 
    M62,65 h2 M56,66 h3 M61,66 h3 M56,67 h3 M63,67 h1 M55,68 h4 M63,68 h2 M54,69 h5 
    M61,69 h5 M52,70 h7 M61,70 h7 M55,71 h4 M63,71 h2 M51,72 h3 M55,72 h4 M60,72 h1 
    M63,72 h2 M66,72 h3 M52,73 h1 M55,73 h4 M60,73 h5 M67,73 h1 M51,74 h8 M61,74 h8 
    M50,75 h9 M61,75 h9 M53,76 h6 M63,76 h4 M55,77 h4 M63,77 h2 M56,78 h3 M61,78 h3"/>
  <path stroke="#4c3d57" d="M55,57 h1 M64,57 h1 M56,58 h1 M63,58 h1 M56,59 h1 M63,59 h1 
    M57,60 h1 M62,60 h1 M57,61 h1 M62,61 h1 M58,62 h1 M61,62 h1 M59,63 h2 M60,64 h1 
    M60,65 h1 M59,66 h1 M59,67 h1 M59,68 h1 M59,69 h1 M51,70 h1 M59,70 h1 M68,70 h1 
    M59,71 h1 M50,72 h1 M59,72 h1 M69,72 h1 M59,73 h1 M50,74 h1 M59,74 h1 M69,74 h1 
    M59,75 h1 M50,76 h3 M59,76 h1 M67,76 h3 M53,77 h2 M59,77 h1 M65,77 h2 M55,78 h1 
    M59,78 h1 M64,78 h1 M56,79 h4 M61,79 h3 M59,80 h2"/>
  <path stroke="#7c808b" d="M57,57 h1 M62,57 h1 M58,59 h1 M61,59 h1"/>
  <path stroke="#edb762" d="M60,58 h1 M60,61 h1 M60,62 h1"/>
  <path stroke="#2a3b4a" d="M70,59 h3 M69,60 h1 M73,60 h1 M68,61 h1 M74,61 h1 M67,62 h1 
    M74,62 h1 M66,63 h1 M68,63 h2 M74,63 h1 M65,64 h1 M69,64 h2 M64,65 h1 M70,65 h1 
    M64,66 h1 M64,67 h1 M65,68 h1 M66,69 h3"/>
  <path stroke="#346376" d="M70,60 h1 M69,61 h1 M68,62 h1 M73,62 h1 M67,63 h1 M72,63 h2 
    M66,64 h1 M71,64 h1 M65,65 h1 M69,66 h1 M68,67 h1 M67,68 h2"/>
  <path stroke="#4694a8" d="M71,60 h1 M70,61 h1 M72,61 h2 M69,62 h1 M71,62 h2 M70,63 h2 
    M67,64 h1 M66,65 h1 M68,65 h2 M65,66 h1 M67,66 h2 M66,67 h2 M66,68 h1"/>
  <path stroke="#5ac5ce" d="M72,60 h1 M71,61 h1 M70,62 h1 M68,64 h1 M67,65 h1 M66,66 h1 
    M65,67 h1"/>
  <path stroke="#d6dede" d="M61,67 h2 M61,68 h1 M61,71 h2 M61,72 h1 M61,76 h2 M61,77 h1"/>
  <path stroke="#a5b0b6" d="M62,68 h1 M62,72 h1 M62,77 h1"/>
</svg>
