<svg xmlns="http://www.w3.org/2000/svg" shape-rendering="crispEdges" viewBox="0 -0.5 120 120" style="width:100%;height:100%;transform:translate3d(0,0,0);content-visibility:visible">
  <path stroke="#211d25" d="M0,0 h35 M36,0 h33 M70,0 h50 M0,1 h34 M37,1 h10 M48,1 h21 
    M70,1 h50 M0,2 h35 M36,2 h32 M71,2 h49 M0,3 h68 M71,3 h49 M0,4 h66 M73,4 h47 
    M0,5 h63 M76,5 h44 M0,6 h66 M73,6 h47 M0,7 h68 M71,7 h49 M0,8 h5 M6,8 h62 M71,8 h49 
    M0,9 h5 M6,9 h63 M70,9 h50 M0,10 h4 M7,10 h62 M70,10 h42 M113,10 h7 M0,11 h2 
    M9,11 h60 M70,11 h41 M114,11 h6 M0,12 h4 M7,12 h105 M113,12 h7 M0,13 h5 M6,13 h114 
    M0,14 h5 M6,14 h114 M0,15 h91 M92,15 h28 M0,16 h120 M0,17 h32 M36,17 h84 M0,18 h31 
    M37,18 h83 M0,19 h31 M37,19 h83 M0,20 h31 M38,20 h82 M0,21 h31 M38,21 h82 M0,22 h32 
    M38,22 h82 M0,23 h32 M39,23 h53 M93,23 h27 M0,24 h32 M39,24 h53 M93,24 h27 
    M0,25 h33 M39,25 h53 M93,25 h27 M0,26 h33 M40,26 h51 M94,26 h26 M0,27 h33 M40,27 h51 
    M94,27 h26 M0,28 h34 M40,28 h4 M49,28 h22 M76,28 h13 M96,28 h24 M0,29 h34 M41,29 h2 
    M45,29 h3 M53,29 h1 M66,29 h1 M72,29 h3 M77,29 h9 M99,29 h21 M0,30 h34 M41,30 h2 
    M44,30 h1 M48,30 h4 M55,30 h10 M68,30 h4 M75,30 h1 M77,30 h12 M96,30 h24 M0,31 h35 
    M41,31 h2 M44,31 h1 M52,31 h3 M65,31 h3 M75,31 h1 M77,31 h14 M94,31 h26 M0,32 h35 
    M42,32 h1 M44,32 h1 M53,32 h1 M66,32 h1 M75,32 h1 M77,32 h14 M94,32 h26 M0,33 h35 
    M42,33 h1 M44,33 h1 M53,33 h1 M66,33 h1 M75,33 h1 M77,33 h15 M93,33 h27 M0,34 h36 
    M42,34 h1 M44,34 h1 M52,34 h1 M67,34 h1 M75,34 h1 M77,34 h15 M93,34 h27 M0,35 h36 
    M44,35 h1 M51,35 h1 M68,35 h1 M75,35 h1 M77,35 h15 M93,35 h27 M0,36 h12 M13,36 h23 
    M44,36 h1 M50,36 h1 M69,36 h1 M75,36 h1 M77,36 h43 M0,37 h12 M13,37 h8 M22,37 h15 
    M44,37 h1 M50,37 h1 M56,37 h8 M69,37 h1 M75,37 h1 M78,37 h42 M0,38 h11 M14,38 h23 
    M43,38 h1 M49,38 h1 M55,38 h1 M64,38 h1 M70,38 h1 M76,38 h1 M78,38 h42 M0,39 h9 
    M16,39 h21 M43,39 h1 M48,39 h1 M54,39 h1 M65,39 h1 M71,39 h1 M76,39 h1 M78,39 h42 
    M0,40 h11 M14,40 h24 M43,40 h1 M46,40 h2 M52,40 h2 M66,40 h2 M72,40 h2 M76,40 h1 
    M80,40 h39 M0,41 h12 M13,41 h25 M43,41 h3 M51,41 h1 M68,41 h1 M74,41 h5 M80,41 h39 
    M0,42 h12 M13,42 h12 M26,42 h12 M50,42 h1 M69,42 h1 M78,42 h1 M81,42 h37 M0,43 h24 
    M27,43 h12 M49,43 h1 M70,43 h1 M79,43 h1 M81,43 h35 M0,44 h25 M26,44 h12 M48,44 h1 
    M71,44 h1 M79,44 h1 M82,44 h36 M0,45 h38 M39,45 h1 M47,45 h1 M72,45 h1 M80,45 h1 
    M82,45 h37 M0,46 h37 M39,46 h1 M45,46 h2 M73,46 h2 M80,46 h1 M83,46 h36 M0,47 h36 
    M38,47 h1 M45,47 h2 M73,47 h3 M81,47 h1 M84,47 h36 M0,48 h34 M37,48 h1 M46,48 h1 
    M73,48 h1 M75,48 h3 M82,48 h1 M86,48 h34 M0,49 h33 M35,49 h2 M39,49 h3 M74,49 h1 
    M77,49 h4 M83,49 h2 M87,49 h33 M0,50 h32 M34,50 h5 M75,50 h1 M81,50 h5 M88,50 h32 
    M0,51 h32 M33,51 h1 M76,51 h1 M86,51 h1 M88,51 h32 M0,52 h1 M2,52 h30 M33,52 h2 
    M76,52 h1 M85,52 h2 M88,52 h32 M0,53 h32 M35,53 h2 M75,53 h2 M83,53 h2 M88,53 h32 
    M0,54 h34 M35,54 h1 M37,54 h3 M43,54 h1 M74,54 h1 M76,54 h1 M80,54 h3 M84,54 h1 
    M86,54 h34 M0,55 h34 M35,55 h1 M40,55 h2 M48,55 h1 M71,55 h3 M75,55 h1 M78,55 h2 
    M84,55 h1 M86,55 h34 M0,56 h34 M35,56 h1 M42,56 h1 M49,56 h22 M75,56 h1 M77,56 h1 
    M84,56 h1 M86,56 h13 M100,56 h20 M0,57 h34 M35,57 h1 M43,57 h1 M74,57 h1 M76,57 h1 
    M84,57 h1 M86,57 h12 M101,57 h19 M0,58 h34 M35,58 h1 M44,58 h1 M74,58 h2 M84,58 h1 
    M86,58 h13 M100,58 h20 M0,59 h33 M35,59 h1 M74,59 h1 M84,59 h1 M87,59 h33 M0,60 h33 
    M34,60 h1 M45,60 h2 M49,60 h1 M74,60 h1 M85,60 h1 M87,60 h25 M113,60 h7 M0,61 h33 
    M34,61 h1 M43,61 h1 M45,61 h2 M49,61 h1 M74,61 h1 M76,61 h1 M85,61 h1 M87,61 h33 
    M0,62 h33 M34,62 h1 M43,62 h1 M45,62 h2 M49,62 h1 M74,62 h1 M76,62 h1 M85,62 h1 
    M87,62 h33 M0,63 h33 M34,63 h1 M43,63 h3 M47,63 h3 M74,63 h3 M85,63 h1 M87,63 h33 
    M0,64 h2 M3,64 h30 M34,64 h1 M42,64 h1 M45,64 h6 M72,64 h3 M77,64 h1 M85,64 h1 
    M87,64 h33 M0,65 h1 M4,65 h29 M34,65 h1 M42,65 h1 M48,65 h1 M50,65 h1 M71,65 h1 
    M77,65 h1 M85,65 h1 M87,65 h33 M0,66 h2 M3,66 h30 M35,66 h1 M42,66 h1 M49,66 h1 
    M51,66 h1 M70,66 h1 M77,66 h1 M84,66 h1 M87,66 h33 M0,67 h33 M35,67 h2 M41,67 h1 
    M50,67 h2 M69,67 h1 M78,67 h1 M83,67 h2 M87,67 h33 M0,68 h33 M34,68 h1 M36,68 h1 
    M41,68 h1 M50,68 h2 M69,68 h1 M78,68 h1 M83,68 h1 M85,68 h1 M87,68 h33 M0,69 h33 
    M34,69 h1 M36,69 h1 M41,69 h1 M50,69 h1 M52,69 h1 M69,69 h1 M78,69 h1 M83,69 h1 
    M85,69 h1 M87,69 h33 M0,70 h32 M34,70 h1 M36,70 h1 M40,70 h1 M50,70 h1 M52,70 h1 
    M69,70 h1 M79,70 h1 M83,70 h1 M85,70 h1 M88,70 h32 M0,71 h32 M33,71 h1 M36,71 h1 
    M40,71 h1 M49,71 h4 M70,71 h1 M79,71 h1 M83,71 h1 M86,71 h1 M88,71 h32 M0,72 h31 
    M33,72 h1 M36,72 h1 M40,72 h4 M47,72 h2 M71,72 h2 M76,72 h4 M83,72 h1 M86,72 h1 
    M89,72 h28 M118,72 h2 M0,73 h31 M32,73 h1 M37,73 h1 M39,73 h3 M44,73 h3 M73,73 h3 
    M78,73 h3 M82,73 h1 M87,73 h1 M89,73 h27 M119,73 h1 M0,74 h31 M32,74 h1 M37,74 h1 
    M39,74 h1 M41,74 h1 M78,74 h1 M80,74 h1 M82,74 h1 M87,74 h1 M89,74 h28 M118,74 h2 
    M0,75 h31 M32,75 h1 M37,75 h1 M39,75 h2 M79,75 h2 M82,75 h1 M87,75 h1 M89,75 h31 
    M0,76 h31 M32,76 h1 M37,76 h1 M39,76 h2 M79,76 h2 M82,76 h1 M87,76 h1 M89,76 h31 
    M0,77 h18 M19,77 h12 M32,77 h1 M38,77 h1 M40,77 h1 M79,77 h1 M81,77 h1 M87,77 h1 
    M89,77 h31 M0,78 h18 M19,78 h11 M32,78 h1 M39,78 h1 M80,78 h1 M87,78 h1 M90,78 h30 
    M0,79 h18 M19,79 h11 M31,79 h1 M39,79 h1 M80,79 h1 M88,79 h1 M90,79 h30 M0,80 h17 
    M20,80 h10 M31,80 h1 M38,80 h1 M81,80 h1 M88,80 h1 M90,80 h30 M0,81 h17 M20,81 h10 
    M31,81 h1 M38,81 h6 M76,81 h6 M88,81 h1 M90,81 h30 M0,82 h15 M22,82 h8 M31,82 h1 
    M38,82 h1 M44,82 h3 M73,82 h3 M81,82 h1 M88,82 h1 M90,82 h30 M0,83 h12 M25,83 h5 
    M31,83 h1 M33,83 h5 M47,83 h6 M67,83 h6 M82,83 h5 M88,83 h1 M90,83 h30 M0,84 h15 
    M22,84 h8 M31,84 h2 M34,84 h1 M53,84 h14 M85,84 h1 M87,84 h2 M90,84 h30 M0,85 h17 
    M20,85 h10 M35,85 h1 M84,85 h1 M90,85 h30 M0,86 h17 M20,86 h14 M36,86 h1 M41,86 h1 
    M78,86 h1 M83,86 h1 M86,86 h34 M0,87 h18 M19,87 h16 M37,87 h4 M79,87 h4 M85,87 h3 
    M89,87 h31 M0,88 h18 M19,88 h17 M37,88 h1 M47,88 h1 M72,88 h1 M82,88 h1 M84,88 h4 
    M89,88 h31 M0,89 h18 M19,89 h17 M37,89 h1 M48,89 h1 M71,89 h1 M82,89 h1 M84,89 h3 
    M90,89 h30 M0,90 h36 M37,90 h1 M48,90 h1 M71,90 h1 M82,90 h1 M84,90 h1 M92,90 h28 
    M0,91 h36 M37,91 h1 M48,91 h24 M82,91 h1 M84,91 h3 M90,91 h30 M0,92 h36 M38,92 h1 
    M47,92 h2 M71,92 h2 M81,92 h1 M84,92 h4 M89,92 h31 M0,93 h37 M39,93 h8 M50,93 h20 
    M73,93 h8 M83,93 h5 M89,93 h31 M0,94 h38 M48,94 h24 M82,94 h38 M0,95 h120 M0,96 h3 
    M4,96 h116 M0,97 h120 M0,98 h110 M111,98 h9 M0,99 h87 M88,99 h22 M111,99 h9 
    M0,100 h109 M112,100 h8 M0,101 h107 M114,101 h6 M0,102 h109 M112,102 h8 M0,103 h30 
    M31,103 h79 M111,103 h9 M0,104 h110 M111,104 h9 M0,105 h14 M15,105 h105 M0,106 h14 
    M15,106 h105 M0,107 h13 M16,107 h104 M0,108 h11 M18,108 h31 M50,108 h70 M0,109 h13 
    M16,109 h33 M50,109 h70 M0,110 h14 M15,110 h33 M51,110 h21 M73,110 h47 M0,111 h14 
    M15,111 h31 M53,111 h19 M73,111 h47 M0,112 h48 M51,112 h21 M73,112 h47 M0,113 h49 
    M50,113 h21 M74,113 h22 M97,113 h17 M115,113 h5 M0,114 h49 M50,114 h21 M74,114 h39 
    M116,114 h4 M0,115 h69 M76,115 h38 M115,115 h5 M0,116 h66 M79,116 h41 M0,117 h69 
    M76,117 h44 M0,118 h71 M74,118 h46 M0,119 h71 M74,119 h46"/>
  <path stroke="#5c5b63" d="M35,0 h1 M69,0 h1 M34,1 h3 M47,1 h1 M69,1 h1 M35,2 h1 
    M68,2 h3 M68,3 h3 M66,4 h7 M63,5 h13 M66,6 h7 M68,7 h3 M5,8 h1 M68,8 h3 M5,9 h1 
    M69,9 h1 M4,10 h3 M69,10 h1 M112,10 h1 M2,11 h7 M69,11 h1 M111,11 h3 M4,12 h3 
    M112,12 h1 M5,13 h1 M5,14 h1 M91,15 h1 M92,23 h1 M92,24 h1 M92,25 h1 M91,26 h3 
    M91,27 h3 M89,28 h7 M86,29 h13 M89,30 h7 M91,31 h3 M91,32 h3 M92,33 h1 M92,34 h1 
    M92,35 h1 M12,36 h1 M12,37 h1 M21,37 h1 M11,38 h3 M9,39 h7 M11,40 h3 M119,40 h1 
    M12,41 h1 M119,41 h1 M12,42 h1 M25,42 h1 M118,42 h2 M24,43 h3 M116,43 h4 M25,44 h1 
    M118,44 h2 M119,45 h1 M119,46 h1 M59,48 h2 M59,49 h1 M54,50 h1 M65,50 h1 M56,51 h2 
    M62,51 h2 M1,52 h1 M99,56 h1 M98,57 h3 M99,58 h1 M47,60 h2 M112,60 h1 M47,61 h1 
    M47,62 h1 M2,64 h1 M1,65 h3 M49,65 h1 M2,66 h1 M117,72 h1 M116,73 h3 M117,74 h1 
    M18,77 h1 M18,78 h1 M18,79 h1 M17,80 h3 M17,81 h3 M15,82 h7 M12,83 h13 M15,84 h7 
    M17,85 h3 M17,86 h3 M18,87 h1 M88,87 h1 M18,88 h1 M88,88 h1 M18,89 h1 M87,89 h3 
    M85,90 h7 M87,91 h3 M88,92 h1 M88,93 h1 M3,96 h1 M110,98 h1 M87,99 h1 M110,99 h1 
    M109,100 h3 M107,101 h7 M109,102 h3 M30,103 h1 M110,103 h1 M110,104 h1 M14,105 h1 
    M14,106 h1 M13,107 h3 M11,108 h7 M49,108 h1 M13,109 h3 M49,109 h1 M14,110 h1 
    M48,110 h3 M72,110 h1 M14,111 h1 M46,111 h7 M72,111 h1 M48,112 h3 M72,112 h1 
    M49,113 h1 M71,113 h3 M96,113 h1 M114,113 h1 M49,114 h1 M71,114 h3 M113,114 h3 
    M69,115 h7 M114,115 h1 M66,116 h13 M69,117 h7 M71,118 h3 M71,119 h3"/>
  <path stroke="#ffffff" d="M32,17 h4 M31,18 h2 M35,18 h2 M31,19 h1 M36,19 h1 M31,20 h1 
    M34,20 h1 M36,20 h2 M31,21 h2 M34,21 h2 M37,21 h1 M32,22 h1 M34,22 h1 M37,22 h1 
    M32,23 h1 M34,23 h1 M37,23 h2 M32,24 h2 M35,24 h1 M38,24 h1 M33,25 h1 M35,25 h1 
    M38,25 h1 M33,26 h1 M35,26 h1 M38,26 h2 M33,27 h2 M36,27 h1 M39,27 h1 M34,28 h1 
    M36,28 h1 M39,28 h1 M44,28 h5 M71,28 h5 M34,29 h1 M36,29 h1 M39,29 h2 M43,29 h2 
    M48,29 h5 M54,29 h12 M67,29 h5 M75,29 h2 M34,30 h2 M37,30 h1 M40,30 h1 M43,30 h1 
    M52,30 h3 M65,30 h3 M76,30 h1 M35,31 h1 M37,31 h1 M40,31 h1 M43,31 h1 M76,31 h1 
    M35,32 h1 M37,32 h2 M40,32 h2 M43,32 h1 M76,32 h1 M35,33 h2 M38,33 h1 M41,33 h1 
    M43,33 h1 M76,33 h1 M36,34 h1 M38,34 h2 M41,34 h1 M43,34 h1 M76,34 h1 M36,35 h1 
    M38,35 h2 M41,35 h3 M76,35 h1 M36,36 h2 M39,36 h2 M42,36 h2 M76,36 h1 M37,37 h1 
    M39,37 h1 M42,37 h2 M76,37 h2 M37,38 h1 M39,38 h1 M42,38 h1 M77,38 h1 M37,39 h2 
    M40,39 h1 M77,39 h1 M38,40 h1 M40,40 h1 M77,40 h3 M38,41 h1 M40,41 h1 M79,41 h1 
    M38,42 h2 M41,42 h1 M79,42 h2 M39,43 h1 M41,43 h1 M80,43 h1 M38,44 h2 M41,44 h1 
    M80,44 h2 M38,45 h1 M42,45 h1 M81,45 h1 M37,46 h2 M42,46 h1 M57,46 h1 M62,46 h1 
    M81,46 h2 M36,47 h2 M42,47 h1 M51,47 h8 M61,47 h8 M82,47 h2 M34,48 h3 M43,48 h2 
    M50,48 h4 M55,48 h4 M61,48 h4 M66,48 h4 M83,48 h3 M33,49 h2 M43,49 h2 M47,49 h11 
    M62,49 h11 M85,49 h2 M32,50 h2 M43,50 h2 M50,50 h4 M66,50 h4 M86,50 h2 M32,51 h1 
    M44,51 h2 M47,51 h3 M51,51 h4 M58,51 h4 M65,51 h4 M70,51 h4 M87,51 h1 M32,52 h1 
    M44,52 h1 M47,52 h26 M87,52 h1 M32,53 h3 M44,53 h1 M48,53 h24 M85,53 h3 M34,54 h1 
    M45,54 h1 M51,54 h18 M85,54 h1 M34,55 h1 M45,55 h1 M85,55 h1 M34,56 h1 M45,56 h1 
    M85,56 h1 M34,57 h1 M46,57 h1 M85,57 h1 M34,58 h1 M46,58 h1 M85,58 h1 M33,59 h2 
    M46,59 h1 M85,59 h2 M33,60 h1 M86,60 h1 M33,61 h1 M86,61 h1 M33,62 h1 M86,62 h1 
    M33,63 h1 M86,63 h1 M33,64 h1 M86,64 h1 M33,65 h1 M86,65 h1 M33,66 h2 M85,66 h2 
    M33,67 h2 M85,67 h2 M33,68 h1 M86,68 h1 M33,69 h1 M86,69 h1 M32,70 h2 M86,70 h2 
    M32,71 h1 M87,71 h1 M31,72 h2 M87,72 h2 M31,73 h1 M88,73 h1 M31,74 h1 M88,74 h1 
    M31,75 h1 M88,75 h1 M31,76 h1 M88,76 h1 M31,77 h1 M88,77 h1 M30,78 h2 M88,78 h2 
    M30,79 h1 M89,79 h1 M30,80 h1 M89,80 h1 M30,81 h1 M89,81 h1 M30,82 h1 M89,82 h1 
    M30,83 h1 M89,83 h1 M30,84 h1 M33,84 h1 M50,84 h2 M68,84 h2 M86,84 h1 M89,84 h1 
    M30,85 h5 M49,85 h1 M53,85 h1 M55,85 h1 M57,85 h1 M59,85 h2 M62,85 h1 M64,85 h1 
    M66,85 h1 M70,85 h1 M85,85 h5 M34,86 h2 M52,86 h1 M57,86 h1 M62,86 h1 M67,86 h1 
    M84,86 h2 M35,87 h2 M53,87 h1 M56,87 h1 M58,87 h1 M61,87 h1 M63,87 h1 M66,87 h1 
    M83,87 h2 M36,88 h1 M83,88 h1 M36,89 h1 M83,89 h1 M36,90 h1 M83,90 h1 M36,91 h1 
    M83,91 h1 M36,92 h2 M49,92 h22 M82,92 h2 M37,93 h2 M47,93 h3 M70,93 h3 M81,93 h2 
    M38,94 h10 M72,94 h10"/>
  <path stroke="#5ac5ce" d="M33,18 h2 M32,19 h1 M35,19 h1 M32,20 h1 M35,20 h1 M33,21 h1 
    M36,21 h1 M33,22 h1 M36,22 h1 M33,23 h1 M36,23 h1 M34,24 h1 M37,24 h1 M34,25 h1 
    M37,25 h1 M34,26 h1 M37,26 h1 M35,27 h1 M38,27 h1 M35,28 h1 M38,28 h1 M35,29 h1 
    M38,29 h1 M36,30 h1 M39,30 h1 M36,31 h1 M39,31 h1 M36,32 h1 M39,32 h1 M37,33 h1 
    M40,33 h1 M37,34 h1 M40,34 h1 M37,35 h1 M40,35 h1 M38,36 h1 M41,36 h1 M38,37 h1 
    M41,37 h1 M38,38 h1 M41,38 h1 M39,39 h1 M42,39 h1 M39,40 h1 M42,40 h1 M39,41 h1 
    M42,41 h1 M40,42 h1 M43,42 h1 M40,43 h1 M43,43 h1 M40,44 h1 M43,44 h1 M52,44 h1 
    M54,44 h1 M65,44 h1 M67,44 h1 M41,45 h1 M44,45 h1 M41,46 h1 M44,46 h1 M41,47 h1 
    M44,47 h1 M42,48 h1 M45,48 h1 M42,49 h1 M45,49 h1 M42,50 h1 M45,50 h1 M43,51 h1 
    M46,51 h1 M43,52 h1 M46,52 h1 M43,53 h1 M46,53 h1 M44,54 h1 M47,54 h1 M44,55 h1 
    M47,55 h1 M44,56 h1 M47,56 h1 M45,57 h1 M48,57 h1 M45,58 h1 M48,58 h1 M45,59 h1 
    M48,59 h1"/>
  <path stroke="#bedef6" d="M33,19 h2 M33,20 h1 M35,22 h1 M35,23 h1 M36,24 h1 M36,25 h1 
    M36,26 h1 M37,27 h1 M37,28 h1 M37,29 h1 M38,30 h1 M38,31 h1 M39,33 h1 M40,37 h1 
    M40,38 h1 M41,39 h1 M41,40 h1 M41,41 h1 M42,42 h1 M42,43 h1 M42,44 h1 M43,45 h1 
    M43,46 h1 M43,47 h1 M45,52 h1 M45,53 h1 M46,54 h1 M46,55 h1 M46,56 h1 M47,57 h1 
    M47,58 h1 M47,59 h1"/>
  <path stroke="#643747" d="M45,30 h1 M74,30 h1 M45,31 h2 M50,31 h2 M55,31 h10 
    M68,31 h2 M73,31 h2 M45,32 h1 M52,32 h1 M54,32 h2 M64,32 h2 M67,32 h1 M74,32 h1 
    M54,33 h1 M65,33 h1 M53,34 h1 M66,34 h1 M52,35 h2 M66,35 h2 M51,36 h2 M58,36 h4 
    M67,36 h2 M49,39 h1 M53,39 h1 M66,39 h1 M70,39 h1 M48,40 h1 M51,40 h1 M68,40 h1 
    M71,40 h1 M46,41 h2 M55,41 h1 M64,41 h1 M72,41 h2 M44,42 h2 M74,42 h4 M77,43 h2 
    M47,44 h1 M72,44 h1 M40,45 h1 M46,45 h1 M73,45 h1 M79,45 h1 M58,46 h1 M61,46 h1 
    M76,47 h1 M41,48 h1 M74,48 h1 M78,48 h1 M75,49 h2 M39,50 h3 M76,50 h5 M34,51 h7 
    M79,51 h7 M35,52 h4 M75,52 h1 M81,52 h4 M37,53 h4 M74,53 h1 M79,53 h4 M36,54 h1 
    M40,54 h2 M72,54 h2 M78,54 h2 M83,54 h1 M37,55 h3 M42,55 h1 M49,55 h2 M69,55 h2 
    M77,55 h1 M80,55 h3 M40,56 h2 M43,56 h1 M76,56 h1 M78,56 h2 M39,57 h1 M41,57 h2 
    M44,57 h1 M75,57 h1 M77,57 h2 M80,57 h1 M40,58 h1 M43,58 h1 M76,58 h1 M79,58 h1 
    M37,59 h1 M39,59 h1 M41,59 h4 M75,59 h4 M80,59 h1 M82,59 h1 M36,60 h1 M42,60 h3 
    M75,60 h3 M83,60 h1 M35,61 h1 M38,61 h1 M44,61 h1 M75,61 h1 M81,61 h1 M84,61 h1 
    M35,62 h1 M40,62 h1 M44,62 h1 M75,62 h1 M79,62 h1 M84,62 h1 M35,63 h1 M37,63 h1 
    M82,63 h1 M84,63 h1 M37,64 h1 M39,64 h1 M41,64 h1 M78,64 h1 M80,64 h1 M82,64 h1 
    M36,65 h1 M39,65 h1 M41,65 h1 M78,65 h1 M80,65 h1 M83,65 h1 M36,66 h1 M39,66 h1 
    M41,66 h1 M78,66 h1 M80,66 h1 M83,66 h1 M40,67 h1 M79,67 h1 M35,68 h1 M38,68 h1 
    M81,68 h1 M84,68 h1 M35,69 h1 M39,69 h2 M79,69 h2 M84,69 h1 M35,70 h1 M39,70 h1 
    M53,70 h1 M66,70 h3 M80,70 h1 M84,70 h1 M35,71 h1 M39,71 h1 M54,71 h3 M63,71 h3 
    M80,71 h1 M84,71 h1 M35,72 h1 M37,72 h1 M39,72 h1 M80,72 h1 M82,72 h1 M84,72 h1 
    M33,73 h1 M35,73 h2 M83,73 h2 M86,73 h1 M35,74 h2 M40,74 h1 M46,74 h6 M68,74 h6 
    M79,74 h1 M83,74 h2 M36,75 h1 M52,75 h5 M63,75 h5 M83,75 h1 M36,76 h1 M83,76 h1 
    M37,77 h1 M39,77 h1 M80,77 h1 M82,77 h1 M37,78 h2 M81,78 h2 M32,79 h1 M38,79 h1 
    M81,79 h1 M87,79 h1 M37,80 h1 M82,80 h1 M37,81 h1 M82,81 h1 M34,82 h4 M82,82 h4 
    M32,83 h1 M44,83 h1 M75,83 h1 M87,83 h1 M45,84 h1 M74,84 h1 M42,86 h4 M74,86 h4 
    M46,87 h1 M73,87 h1 M40,92 h1 M45,92 h1 M74,92 h1 M79,92 h1"/>
  <path stroke="#b76f6b" d="M46,30 h2 M72,30 h2 M47,31 h1 M72,31 h1 M58,32 h1 M61,32 h1 
    M55,33 h1 M57,33 h1 M62,33 h1 M64,33 h1 M56,34 h1 M58,34 h1 M61,34 h1 M63,34 h1 
    M55,35 h1 M64,35 h1 M48,36 h1 M71,36 h1 M45,37 h2 M48,37 h1 M71,37 h1 M73,37 h2 
    M52,38 h1 M67,38 h1 M51,39 h1 M68,39 h1 M44,40 h2 M50,40 h1 M69,40 h1 M74,40 h2 
    M49,41 h1 M70,41 h1 M46,43 h2 M72,43 h2 M45,44 h1 M58,44 h4 M74,44 h1 M76,44 h1 
    M75,45 h1 M77,45 h1 M76,46 h1 M78,46 h1 M48,48 h1 M71,48 h1 M47,50 h3 M70,50 h3 
    M36,56 h1 M83,56 h1 M37,57 h2 M81,57 h2 M37,58 h1 M82,58 h1 M38,62 h1 M81,62 h1 
    M43,64 h2 M75,64 h2 M44,65 h2 M47,65 h1 M72,65 h1 M74,65 h2 M43,66 h1 M48,66 h1 
    M71,66 h1 M76,66 h1 M38,67 h1 M49,67 h1 M70,67 h1 M81,67 h1 M48,68 h1 M71,68 h1 
    M38,69 h1 M49,69 h1 M70,69 h1 M81,69 h1 M37,70 h1 M41,70 h2 M48,70 h2 M70,70 h2 
    M77,70 h2 M82,70 h1 M37,71 h1 M44,71 h1 M46,71 h2 M53,71 h1 M66,71 h4 M72,71 h2 
    M75,71 h1 M82,71 h1 M44,72 h1 M46,72 h1 M49,72 h4 M54,72 h3 M63,72 h3 M67,72 h4 
    M73,72 h1 M75,72 h1 M52,73 h1 M63,73 h3 M33,74 h1 M86,74 h1 M34,75 h1 M85,75 h1 
    M33,76 h1 M35,76 h1 M84,76 h1 M86,76 h1 M34,77 h1 M85,77 h1 M33,78 h1 M35,78 h1 
    M84,78 h1 M86,78 h1 M34,79 h1 M85,79 h1 M39,82 h1 M42,82 h2 M76,82 h2 M80,82 h1 
    M39,83 h2 M42,83 h2 M45,83 h2 M73,83 h2 M76,83 h2 M79,83 h2 M37,84 h1 M40,84 h1 
    M42,84 h1 M44,84 h1 M47,84 h1 M72,84 h1 M75,84 h1 M77,84 h1 M79,84 h1 M82,84 h1 
    M38,85 h1 M43,85 h1 M45,85 h1 M74,85 h1 M76,85 h1 M81,85 h1 M41,87 h5 M74,87 h5 
    M38,88 h3 M42,88 h1 M45,88 h2 M73,88 h2 M77,88 h1 M79,88 h3 M38,89 h1 M46,89 h2 
    M72,89 h2 M81,89 h1 M38,90 h1 M40,90 h1 M47,90 h1 M72,90 h1 M79,90 h1 M81,90 h1 
    M38,91 h2 M42,91 h1 M47,91 h1 M72,91 h1 M77,91 h1 M80,91 h2"/>
  <path stroke="#91555d" d="M48,31 h2 M70,31 h2 M49,32 h3 M56,32 h2 M59,32 h2 M62,32 h2 
    M68,32 h3 M45,33 h1 M50,33 h3 M56,33 h1 M58,33 h4 M63,33 h1 M67,33 h3 M74,33 h1 
    M45,34 h1 M51,34 h1 M54,34 h2 M57,34 h1 M59,34 h2 M62,34 h1 M64,34 h2 M68,34 h1 
    M74,34 h1 M45,35 h1 M50,35 h1 M54,35 h1 M56,35 h8 M65,35 h1 M69,35 h1 M74,35 h1 
    M45,36 h1 M49,36 h1 M53,36 h5 M62,36 h5 M70,36 h1 M74,36 h1 M47,37 h1 M51,37 h5 
    M64,37 h5 M72,37 h1 M44,38 h3 M50,38 h2 M53,38 h2 M65,38 h2 M68,38 h2 M73,38 h3 
    M44,39 h2 M50,39 h1 M52,39 h1 M67,39 h1 M69,39 h1 M74,39 h2 M49,40 h1 M54,40 h1 
    M56,40 h1 M63,40 h1 M65,40 h1 M70,40 h1 M48,41 h1 M50,41 h1 M69,41 h1 M71,41 h1 
    M46,42 h4 M56,42 h1 M63,42 h1 M70,42 h4 M44,43 h2 M48,43 h1 M71,43 h1 M74,43 h3 
    M44,44 h1 M46,44 h1 M73,44 h1 M75,44 h1 M77,44 h2 M45,45 h1 M74,45 h1 M76,45 h1 
    M78,45 h1 M40,46 h1 M75,46 h1 M77,46 h1 M79,46 h1 M39,47 h2 M77,47 h4 M38,48 h3 
    M47,48 h1 M54,48 h1 M65,48 h1 M72,48 h1 M79,48 h3 M37,49 h2 M46,49 h1 M73,49 h1 
    M81,49 h2 M46,50 h1 M73,50 h2 M41,51 h2 M75,51 h1 M77,51 h2 M39,52 h4 M74,52 h1 
    M77,52 h4 M41,53 h2 M73,53 h1 M77,53 h2 M42,54 h1 M77,54 h1 M36,55 h1 M43,55 h1 
    M76,55 h1 M83,55 h1 M37,56 h3 M80,56 h3 M36,57 h1 M40,57 h1 M53,57 h1 M66,57 h1 
    M79,57 h1 M83,57 h1 M36,58 h1 M38,58 h2 M41,58 h2 M53,58 h1 M66,58 h1 M77,58 h2 
    M80,58 h2 M83,58 h1 M36,59 h1 M38,59 h1 M40,59 h1 M54,59 h1 M65,59 h1 M79,59 h1 
    M81,59 h1 M83,59 h1 M35,60 h1 M37,60 h5 M54,60 h1 M65,60 h1 M78,60 h5 M84,60 h1 
    M36,61 h2 M39,61 h4 M55,61 h1 M64,61 h1 M77,61 h4 M82,61 h2 M36,62 h2 M39,62 h1 
    M41,62 h2 M55,62 h1 M64,62 h1 M77,62 h2 M80,62 h1 M82,62 h2 M36,63 h1 M38,63 h5 
    M56,63 h1 M63,63 h1 M77,63 h5 M83,63 h1 M35,64 h2 M38,64 h1 M40,64 h1 M57,64 h1 
    M62,64 h1 M79,64 h1 M81,64 h1 M83,64 h2 M35,65 h1 M37,65 h2 M40,65 h1 M57,65 h1 
    M62,65 h1 M79,65 h1 M81,65 h2 M84,65 h1 M37,66 h2 M40,66 h1 M58,66 h1 M61,66 h1 
    M79,66 h1 M81,66 h2 M37,67 h1 M39,67 h1 M58,67 h1 M61,67 h1 M80,67 h1 M82,67 h1 
    M37,68 h1 M39,68 h2 M49,68 h1 M59,68 h2 M70,68 h1 M79,68 h2 M82,68 h1 M37,69 h1 
    M82,69 h1 M38,70 h1 M81,70 h1 M34,71 h1 M38,71 h1 M41,71 h2 M48,71 h1 M71,71 h1 
    M77,71 h2 M81,71 h1 M85,71 h1 M34,72 h1 M38,72 h1 M45,72 h1 M53,72 h1 M66,72 h1 
    M74,72 h1 M81,72 h1 M85,72 h1 M34,73 h1 M38,73 h1 M47,73 h5 M53,73 h4 M66,73 h7 
    M81,73 h1 M85,73 h1 M34,74 h1 M38,74 h1 M52,74 h5 M63,74 h5 M81,74 h1 M85,74 h1 
    M33,75 h1 M35,75 h1 M38,75 h1 M81,75 h1 M84,75 h1 M86,75 h1 M34,76 h1 M38,76 h1 
    M81,76 h1 M85,76 h1 M33,77 h1 M35,77 h2 M83,77 h2 M86,77 h1 M34,78 h1 M36,78 h1 
    M83,78 h1 M85,78 h1 M33,79 h1 M35,79 h3 M82,79 h3 M86,79 h1 M32,80 h5 M83,80 h5 
    M32,81 h5 M83,81 h5 M32,82 h2 M40,82 h2 M78,82 h2 M86,82 h2 M38,83 h1 M41,83 h1 
    M78,83 h1 M81,83 h1 M35,84 h2 M38,84 h2 M41,84 h1 M43,84 h1 M76,84 h1 M78,84 h1 
    M80,84 h2 M83,84 h2 M36,85 h2 M39,85 h4 M44,85 h1 M46,85 h1 M73,85 h1 M75,85 h1 
    M77,85 h4 M82,85 h2 M37,86 h4 M46,86 h1 M73,86 h1 M79,86 h4 M47,87 h1 M72,87 h1 
    M48,88 h1 M71,88 h1 M40,91 h1 M44,91 h1 M46,91 h1 M73,91 h1 M75,91 h1 M79,91 h1 
    M39,92 h1 M41,92 h4 M46,92 h1 M73,92 h1 M75,92 h4 M80,92 h1"/>
  <path stroke="#ffbdc1" d="M46,32 h1 M73,32 h1 M46,33 h1 M73,33 h1 M46,34 h1 M73,34 h1"/>
  <path stroke="#ef93b5" d="M47,32 h1 M72,32 h1 M47,33 h1 M72,33 h1 M47,34 h1 M72,34 h1 
    M46,35 h3 M71,35 h3"/>
  <path stroke="#c971a2" d="M48,32 h1 M71,32 h1 M48,33 h1 M71,33 h1 M48,34 h2 M70,34 h2 
    M49,35 h1 M70,35 h1 M46,36 h2 M72,36 h2"/>
  <path stroke="#944e89" d="M49,33 h1 M70,33 h1 M50,34 h1 M69,34 h1"/>
  <path stroke="#cd9383" d="M49,37 h1 M70,37 h1 M47,38 h2 M56,38 h8 M71,38 h2 M46,39 h2 
    M55,39 h10 M72,39 h2 M55,40 h1 M57,40 h6 M64,40 h1 M52,41 h3 M56,41 h8 M65,41 h3 
    M51,42 h5 M57,42 h6 M64,42 h5 M56,43 h8 M49,44 h1 M56,44 h2 M62,44 h2 M70,44 h1 
    M48,45 h2 M56,45 h8 M70,45 h2 M47,46 h4 M55,46 h2 M63,46 h2 M69,46 h4 M47,47 h4 
    M69,47 h4 M49,48 h1 M70,48 h1 M50,51 h1 M69,51 h1 M74,51 h1 M43,65 h1 M46,65 h1 
    M73,65 h1 M76,65 h1 M44,66 h4 M72,66 h4 M42,67 h7 M71,67 h7 M42,68 h6 M72,68 h6 
    M42,69 h7 M71,69 h7 M43,70 h5 M72,70 h5 M43,71 h1 M45,71 h1 M74,71 h1 M76,71 h1 
    M41,88 h1 M43,88 h2 M75,88 h2 M78,88 h1 M39,89 h7 M74,89 h7 M39,90 h1 M41,90 h6 
    M73,90 h6 M80,90 h1 M41,91 h1 M43,91 h1 M45,91 h1 M74,91 h1 M76,91 h1 M78,91 h1"/>
  <path stroke="#2a3b4a" d="M50,43 h3 M54,43 h2 M64,43 h2 M67,43 h3 M51,44 h1 M53,44 h1 
    M55,44 h1 M64,44 h1 M66,44 h1 M68,44 h1 M53,45 h1 M55,45 h1 M64,45 h1 M66,45 h1 
    M51,46 h4 M65,46 h4"/>
  <path stroke="#346376" d="M53,43 h1 M66,43 h1 M50,44 h1 M69,44 h1 M50,45 h2 M68,45 h2"/>
  <path stroke="#aae3db" d="M52,45 h1 M54,45 h1 M65,45 h1 M67,45 h1"/>
  <path stroke="#fa8971" d="M59,46 h1"/>
  <path stroke="#b2434d" d="M60,46 h1 M59,47 h1"/>
  <path stroke="#e55858" d="M60,47 h1"/>
  <path stroke="#d6dede" d="M58,49 h1 M61,49 h1 M55,50 h2 M59,50 h2 M63,50 h2 M73,52 h1 
    M47,53 h1 M72,53 h1 M49,54 h2 M69,54 h2 M55,55 h10 M46,84 h1 M48,84 h2 M52,84 h1 
    M67,84 h1 M70,84 h2 M73,84 h1 M47,85 h2 M50,85 h3 M54,85 h1 M56,85 h1 M58,85 h1 
    M61,85 h1 M63,85 h1 M65,85 h1 M67,85 h3 M71,85 h2 M48,86 h3 M53,86 h4 M58,86 h4 
    M63,86 h4 M69,86 h3 M49,87 h1 M51,87 h2 M54,87 h2 M57,87 h1 M59,87 h2 M62,87 h1 
    M64,87 h2 M67,87 h2 M70,87 h1 M50,88 h1 M52,88 h4 M57,88 h6 M64,88 h4 M69,88 h1 
    M51,89 h1 M53,89 h1 M55,89 h1 M64,89 h1 M66,89 h1 M68,89 h1 M54,90 h1 M65,90 h1"/>
  <path stroke="#7c808b" d="M60,49 h1 M58,50 h1 M61,50 h1 M55,51 h1 M64,51 h1 M48,61 h1 
    M50,66 h1"/>
  <path stroke="#a5b0b6" d="M57,50 h1 M62,50 h1 M48,54 h1 M71,54 h1 M51,55 h4 M65,55 h4 
    M47,86 h1 M51,86 h1 M68,86 h1 M72,86 h1 M48,87 h1 M50,87 h1 M69,87 h1 M71,87 h1 
    M49,88 h1 M51,88 h1 M56,88 h1 M63,88 h1 M68,88 h1 M70,88 h1 M49,89 h2 M52,89 h1 
    M54,89 h1 M56,89 h8 M65,89 h1 M67,89 h1 M69,89 h2 M49,90 h5 M55,90 h10 M66,90 h5"/>
  <path stroke="#e1ba9e" d="M75,54 h1 M74,55 h1 M48,56 h1 M71,56 h4 M49,57 h4 M67,57 h7 
    M50,58 h1 M52,58 h1 M67,58 h1 M69,58 h1 M71,58 h1 M73,58 h1 M49,59 h1 M52,59 h2 
    M66,59 h2 M70,59 h1 M73,59 h1 M53,60 h1 M66,60 h1 M70,60 h1 M73,60 h1 M50,61 h1 
    M53,61 h2 M65,61 h2 M69,61 h2 M73,61 h1 M50,62 h1 M53,62 h2 M65,62 h2 M69,62 h2 
    M72,62 h2 M46,63 h1 M50,63 h1 M52,63 h1 M54,63 h2 M64,63 h2 M67,63 h1 M69,63 h1 
    M72,63 h2 M52,64 h1 M55,64 h2 M63,64 h2 M67,64 h1 M69,64 h1 M71,64 h1 M52,65 h1 
    M55,65 h2 M63,65 h2 M67,65 h1 M69,65 h2 M55,66 h3 M62,66 h3 M69,66 h1 M55,67 h1 
    M57,67 h1 M62,67 h1 M64,67 h1 M68,67 h1 M52,68 h1 M57,68 h1 M62,68 h1 M67,68 h2 
    M53,69 h2 M57,69 h1 M62,69 h1 M65,69 h4 M54,70 h12 M42,73 h2 M76,73 h2 M42,74 h4 
    M74,74 h4 M41,75 h3 M47,75 h5 M68,75 h5 M76,75 h3 M41,76 h3 M47,76 h1 M53,76 h6 
    M61,76 h6 M72,76 h1 M76,76 h3 M41,77 h2 M46,77 h1 M51,77 h1 M53,77 h1 M56,77 h1 
    M59,77 h2 M63,77 h1 M66,77 h1 M68,77 h1 M73,77 h1 M77,77 h2 M40,78 h2 M46,78 h1 
    M51,78 h1 M53,78 h1 M56,78 h1 M59,78 h2 M63,78 h1 M66,78 h1 M68,78 h1 M73,78 h1 
    M78,78 h2 M40,79 h1 M42,79 h2 M46,79 h1 M48,79 h1 M51,79 h1 M53,79 h1 M56,79 h1 
    M59,79 h2 M63,79 h1 M66,79 h1 M68,79 h1 M71,79 h1 M73,79 h1 M76,79 h2 M79,79 h1 
    M39,80 h10 M51,80 h1 M54,80 h1 M56,80 h1 M59,80 h2 M63,80 h1 M65,80 h1 M68,80 h1 
    M71,80 h10 M44,81 h8 M55,81 h2 M59,81 h2 M63,81 h2 M68,81 h8 M47,82 h9 M58,82 h4 
    M64,82 h9 M53,83 h14"/>
  <path stroke="#8d837d" d="M54,57 h2 M64,57 h2 M54,58 h1 M56,58 h1 M63,58 h1 M65,58 h1 
    M55,59 h1 M57,59 h1 M59,59 h2 M62,59 h1 M64,59 h1 M55,60 h2 M63,60 h2 M57,61 h1 
    M62,61 h1 M56,62 h1 M63,62 h1 M57,63 h1 M62,63 h1 M58,64 h1 M61,64 h1 M58,65 h1 
    M61,65 h1 M59,67 h2 M61,72 h1 M58,73 h4"/>
  <path stroke="#635d5a" d="M56,57 h2 M62,57 h2 M55,58 h1 M57,58 h6 M64,58 h1 M56,59 h1 
    M58,59 h1 M61,59 h1 M63,59 h1 M57,60 h6 M56,61 h1 M58,61 h4 M63,61 h1 M57,62 h6 
    M58,63 h4 M59,64 h2 M59,65 h2 M59,66 h2 M58,74 h4"/>
  <path stroke="#3c3c3c" d="M58,57 h4"/>
  <path stroke="#ffe0b7" d="M49,58 h1 M51,58 h1 M68,58 h1 M70,58 h1 M72,58 h1 M50,59 h2 
    M68,59 h2 M71,59 h2 M50,60 h3 M67,60 h3 M71,60 h2 M51,61 h2 M67,61 h2 M71,61 h2 
    M51,62 h2 M67,62 h2 M71,62 h1 M51,63 h1 M53,63 h1 M66,63 h1 M68,63 h1 M70,63 h2 
    M51,64 h1 M53,64 h2 M65,64 h2 M68,64 h1 M70,64 h1 M51,65 h1 M53,65 h2 M65,65 h2 
    M68,65 h1 M52,66 h3 M65,66 h4 M52,67 h3 M56,67 h1 M63,67 h1 M65,67 h3 M53,68 h4 
    M58,68 h1 M61,68 h1 M63,68 h4 M55,69 h2 M58,69 h4 M63,69 h2 M44,75 h3 M73,75 h3 
    M44,76 h3 M48,76 h5 M59,76 h2 M67,76 h5 M73,76 h3 M43,77 h3 M47,77 h4 M52,77 h1 
    M54,77 h2 M57,77 h2 M61,77 h2 M64,77 h2 M67,77 h1 M69,77 h4 M74,77 h3 M42,78 h4 
    M47,78 h4 M52,78 h1 M54,78 h2 M57,78 h2 M61,78 h2 M64,78 h2 M67,78 h1 M69,78 h4 
    M74,78 h4 M41,79 h1 M44,79 h2 M47,79 h1 M49,79 h2 M52,79 h1 M54,79 h2 M57,79 h2 
    M61,79 h2 M64,79 h2 M67,79 h1 M69,79 h2 M72,79 h1 M74,79 h2 M78,79 h1 M49,80 h2 
    M52,80 h2 M55,80 h1 M57,80 h2 M61,80 h2 M64,80 h1 M66,80 h2 M69,80 h2 M52,81 h3 
    M57,81 h2 M61,81 h2 M65,81 h3 M56,82 h2 M62,82 h2"/>
  <path stroke="#413d42" d="M48,62 h1 M51,69 h1 M51,70 h1 M57,71 h6 M57,75 h6"/>
  <path stroke="#b4aea4" d="M57,72 h4 M57,73 h1 M57,74 h1 M62,74 h1"/>
  <path stroke="#dedcd1" d="M62,72 h1 M62,73 h1"/>
</svg>
