<svg xmlns="http://www.w3.org/2000/svg" shape-rendering="crispEdges" viewBox="0 -0.5 120 120" style="width:100%;height:100%;transform:translate3d(0,0,0);content-visibility:visible">
  <path stroke="#a5b0b6" d="M0,0 h55 M65,0 h55 M0,1 h51 M69,1 h47 M0,2 h48 M72,2 h33 
    M0,3 h46 M74,3 h29 M0,4 h44 M76,4 h21 M0,5 h43 M77,5 h18 M0,6 h41 M79,6 h41 
    M0,7 h40 M80,7 h40 M0,8 h39 M81,8 h39 M0,9 h38 M82,9 h38 M0,10 h37 M83,10 h37 
    M0,11 h30 M84,11 h36 M0,12 h2 M84,12 h36 M85,13 h35 M0,14 h1 M86,14 h34 M0,15 h4 
    M86,15 h34 M0,16 h5 M87,16 h33 M0,17 h2 M87,17 h33 M88,18 h32 M23,19 h9 M88,19 h32 
    M0,20 h32 M88,20 h32 M0,21 h31 M89,21 h31 M0,22 h31 M89,22 h8 M117,22 h3 M0,23 h31 
    M89,23 h1 M0,24 h29 M89,24 h3 M0,25 h21 M90,25 h7 M0,26 h22 M0,27 h30 M0,28 h30 
    M0,29 h30 M0,30 h30 M0,31 h30 M90,31 h30 M0,32 h30 M90,32 h30 M0,33 h30 M90,33 h30 
    M0,34 h30 M90,34 h30 M0,35 h31 M89,35 h31 M0,36 h31 M89,36 h31 M0,37 h31 M89,37 h31 
    M0,38 h31 M89,38 h31 M0,39 h32 M88,39 h32 M0,40 h32 M88,40 h32 M0,41 h32 M88,41 h32 
    M0,42 h33 M87,42 h33 M0,43 h33 M87,43 h33 M0,44 h34 M86,44 h34 M0,45 h34 M86,45 h34 
    M0,46 h35 M85,46 h35 M0,47 h36 M84,47 h36 M0,48 h36 M85,48 h35 M0,49 h35 M85,49 h35 
    M0,50 h35 M86,50 h34 M0,51 h35 M86,51 h34 M0,52 h34 M86,52 h34 M0,53 h33 M87,53 h33 
    M0,54 h33 M88,54 h32 M0,55 h32 M88,55 h32 M0,56 h32 M89,56 h31 M0,57 h32 M89,57 h31 
    M0,58 h32 M89,58 h31 M0,59 h32 M89,59 h31 M0,60 h31 M89,60 h31 M0,61 h30 M89,61 h31 
    M0,62 h29 M89,62 h31 M0,63 h28 M89,63 h31 M0,64 h26 M31,64 h1 M89,64 h12 M108,64 h12 
    M0,65 h25 M30,65 h2 M89,65 h10 M109,65 h11 M0,66 h24 M29,66 h4 M89,66 h7 M110,66 h10 
    M0,67 h23 M28,67 h5 M88,67 h7 M112,67 h8 M0,68 h22 M27,68 h4 M88,68 h6 M101,68 h1 
    M113,68 h7 M0,69 h20 M26,69 h3 M88,69 h4 M98,69 h4 M114,69 h6 M0,70 h19 M31,70 h1 
    M88,70 h3 M96,70 h13 M116,70 h4 M0,71 h18 M30,71 h1 M94,71 h16 M117,71 h3 M0,72 h17 
    M29,72 h2 M91,72 h8 M118,72 h2 M0,73 h15 M25,73 h5 M89,73 h6 M119,73 h1 M0,74 h12 
    M23,74 h7 M90,74 h7 M0,75 h11 M22,75 h7 M94,75 h2 M0,76 h9 M20,76 h8 M0,77 h8 
    M19,77 h2 M0,78 h7 M18,78 h2 M92,78 h2 M0,79 h5 M14,79 h2 M18,79 h1 M91,79 h3 
    M0,80 h4 M13,80 h2 M91,80 h1 M0,81 h3 M13,81 h2 M21,81 h8 M0,82 h1 M12,82 h3 
    M16,82 h10 M11,83 h12 M10,84 h8 M6,85 h6 M3,86 h8 M0,87 h9 M3,88 h4 M2,89 h3 
    M1,90 h2"/>
  <path stroke="#b2434d" d="M55,0 h10 M51,1 h18 M48,2 h24 M46,3 h28 M44,4 h32 M43,5 h34 
    M41,6 h38 M40,7 h40 M39,8 h42 M38,9 h44 M37,10 h46 M47,11 h37 M49,12 h35 M57,13 h28 
    M60,14 h26 M65,15 h21 M48,16 h39 M45,17 h42 M36,18 h52 M32,19 h56 M32,20 h56 
    M31,21 h58 M31,22 h58 M52,23 h37 M47,24 h2 M58,24 h4 M71,24 h18 M39,25 h10 
    M59,25 h3 M72,25 h18 M38,26 h11 M59,26 h3 M72,26 h14 M30,27 h20 M59,27 h3 M72,27 h7 
    M30,28 h14 M49,28 h2 M59,28 h3 M30,29 h13 M30,30 h13 M30,31 h13 M57,31 h1 M62,31 h1 
    M78,31 h12 M30,32 h13 M59,32 h2 M78,32 h12 M30,33 h13 M59,33 h2 M78,33 h12 
    M30,34 h13 M53,34 h1 M58,34 h4 M66,34 h1 M78,34 h12 M31,35 h12 M53,35 h1 M55,35 h1 
    M59,35 h2 M64,35 h1 M66,35 h1 M78,35 h11 M31,36 h12 M52,36 h2 M55,36 h1 M64,36 h1 
    M66,36 h2 M78,36 h11 M31,37 h11 M51,37 h2 M54,37 h2 M64,37 h2 M67,37 h2 M78,37 h11 
    M31,38 h11 M49,38 h1 M51,38 h2 M54,38 h2 M57,38 h2 M61,38 h2 M64,38 h2 M67,38 h2 
    M70,38 h1 M79,38 h10 M32,39 h9 M47,39 h2 M71,39 h2 M79,39 h9 M32,40 h9 M47,40 h1 
    M49,40 h1 M52,40 h16 M70,40 h1 M72,40 h1 M80,40 h8 M32,41 h8 M43,41 h1 M76,41 h1 
    M80,41 h8 M33,42 h7 M43,42 h4 M73,42 h4 M81,42 h6 M33,43 h6 M42,43 h1 M45,43 h2 
    M73,43 h2 M77,43 h1 M81,43 h6 M34,44 h5 M41,44 h2 M77,44 h2 M82,44 h4 M34,45 h4 
    M42,45 h4 M74,45 h4 M82,45 h4 M35,46 h2 M40,46 h1 M44,46 h1 M60,46 h1 M75,46 h1 
    M79,46 h1 M83,46 h2 M39,47 h3 M59,47 h1 M78,47 h3 M38,48 h1 M41,48 h3 M76,48 h3 
    M81,48 h1 M38,49 h1 M81,49 h1 M37,50 h6 M77,50 h6 M35,54 h2 M38,54 h4 M78,54 h4 
    M83,54 h2 M41,55 h2 M77,55 h2 M34,56 h1 M85,56 h1 M34,57 h6 M80,57 h6 M34,58 h1 
    M36,58 h6 M78,58 h6 M85,58 h1 M39,59 h2 M59,59 h2 M79,59 h2 M53,60 h14 M34,61 h4 
    M51,61 h5 M58,61 h4 M64,61 h5 M82,61 h4 M35,62 h5 M50,62 h3 M54,62 h1 M65,62 h1 
    M67,62 h3 M80,62 h5 M51,63 h1 M68,63 h1 M57,64 h6 M51,65 h18 M52,66 h16 M53,67 h14 
    M53,68 h3 M59,68 h2 M64,68 h3 M53,69 h2 M65,69 h2 M56,71 h8 M51,72 h18 M51,73 h2 
    M54,73 h12 M67,73 h2 M51,74 h2 M54,74 h12 M67,74 h2 M52,75 h1 M59,75 h2 M67,75 h1 
    M32,77 h4 M46,77 h6 M68,77 h6 M84,77 h4 M47,78 h26 M35,79 h4 M47,79 h4 M52,79 h16 
    M69,79 h4 M81,79 h4 M32,80 h6 M47,80 h3 M52,80 h5 M58,80 h4 M63,80 h5 M70,80 h3 
    M82,80 h6 M32,81 h4 M52,81 h2 M59,81 h2 M66,81 h2 M84,81 h4 M38,82 h3 M79,82 h3 
    M36,83 h3 M81,83 h3 M33,84 h4 M83,84 h4"/>
  <path stroke="#d6dede" d="M116,1 h4 M105,2 h15 M103,3 h17 M97,4 h23 M95,5 h25 
    M30,11 h17 M2,12 h47 M0,13 h57 M1,14 h59 M4,15 h61 M5,16 h43 M2,17 h43 M0,18 h36 
    M0,19 h23 M97,22 h20 M31,23 h21 M90,23 h30 M29,24 h18 M92,24 h28 M21,25 h18 
    M97,25 h23 M22,26 h16 M86,26 h34 M79,27 h41 M76,28 h44 M77,29 h43 M78,30 h42"/>
  <path stroke="#ffffff" d="M49,24 h9 M62,24 h9 M49,25 h1 M57,25 h1 M62,25 h1 M70,25 h1 
    M49,26 h2 M57,26 h1 M62,26 h1 M69,26 h2 M50,27 h2 M57,27 h1 M62,27 h1 M68,27 h2 
    M44,28 h5 M51,28 h1 M57,28 h1 M62,28 h1 M68,28 h1 M71,28 h5 M43,29 h2 M48,29 h4 
    M57,29 h6 M68,29 h4 M75,29 h2 M43,30 h1 M76,30 h1 M43,31 h1 M76,31 h1 M43,32 h1 
    M76,32 h1 M43,33 h1 M76,33 h1 M43,34 h1 M76,34 h1 M43,35 h1 M76,35 h1 M43,36 h1 
    M76,36 h1 M42,37 h2 M76,37 h2 M42,38 h1 M77,38 h1 M41,39 h2 M77,39 h2 M41,40 h1 
    M78,40 h1 M40,41 h2 M78,41 h2 M40,42 h1 M79,42 h1 M39,43 h2 M79,43 h2 M39,44 h1 
    M80,44 h1 M38,45 h2 M80,45 h2 M37,46 h2 M81,46 h2 M36,47 h2 M82,47 h2 M36,48 h1 
    M83,48 h1 M35,49 h2 M83,49 h2 M35,50 h1 M84,50 h1 M35,51 h1 M84,51 h1 M34,52 h3 
    M83,52 h3 M33,53 h2 M85,53 h2 M33,54 h1 M86,54 h1 M32,55 h2 M86,55 h2 M32,56 h1 
    M87,56 h1 M32,57 h1 M87,57 h1 M32,58 h1 M87,58 h1 M32,59 h1 M87,59 h1 M32,60 h1 
    M87,60 h1 M32,61 h1 M87,61 h1 M32,62 h1 M87,62 h1 M32,63 h1 M87,63 h1 M32,64 h1 
    M87,64 h1 M32,65 h2 M86,65 h2 M33,66 h2 M85,66 h2 M33,67 h2 M85,67 h2 M33,68 h1 
    M86,68 h1 M33,69 h1 M86,69 h1 M32,70 h2 M86,70 h2 M32,71 h1 M87,71 h1 M32,72 h1 
    M87,72 h1 M31,73 h2 M87,73 h2 M31,74 h1 M88,74 h1 M30,75 h2 M88,75 h2 M30,76 h1 
    M89,76 h1 M30,77 h1 M89,77 h1 M30,78 h1 M89,78 h1 M30,79 h1 M89,79 h1 M30,80 h1 
    M89,80 h1 M30,81 h1 M89,81 h1 M30,82 h1 M89,82 h1 M30,83 h1 M89,83 h1 M30,84 h2 
    M88,84 h2 M31,85 h1 M88,85 h1 M31,86 h2 M87,86 h2 M32,87 h5 M83,87 h5 M36,88 h1 
    M83,88 h1 M36,89 h1 M83,89 h1 M36,90 h1 M83,90 h1 M36,91 h1 M83,91 h1 M36,92 h2 
    M49,92 h22 M82,92 h2 M37,93 h2 M47,93 h3 M70,93 h3 M81,93 h2 M38,94 h10 M72,94 h10"/>
  <path stroke="#643747" d="M50,25 h7 M58,25 h1 M63,25 h7 M71,25 h1 M51,26 h1 M56,26 h1 
    M58,26 h1 M63,26 h1 M68,26 h1 M71,26 h1 M52,27 h1 M56,27 h1 M58,27 h1 M63,27 h1 
    M67,27 h1 M70,27 h2 M52,28 h1 M56,28 h1 M58,28 h1 M63,28 h1 M67,28 h1 M69,28 h2 
    M52,29 h1 M56,29 h1 M63,29 h1 M67,29 h1 M52,30 h1 M56,30 h8 M67,30 h1 M53,31 h1 
    M66,31 h1 M77,31 h1 M53,32 h1 M66,32 h1 M77,32 h1 M53,33 h1 M66,33 h1 M77,33 h1 
    M52,34 h1 M67,34 h1 M77,34 h1 M51,35 h1 M68,35 h1 M77,35 h1 M50,36 h1 M69,36 h1 
    M77,36 h1 M49,37 h1 M70,37 h1 M47,38 h2 M71,38 h2 M78,38 h1 M43,39 h4 M51,39 h18 
    M73,39 h4 M42,40 h1 M48,40 h1 M50,40 h1 M69,40 h1 M71,40 h1 M77,40 h1 M79,40 h1 
    M42,41 h1 M48,41 h8 M64,41 h8 M77,41 h1 M41,42 h1 M47,42 h1 M56,42 h8 M72,42 h1 
    M78,42 h1 M80,42 h1 M41,43 h1 M47,43 h1 M50,43 h3 M54,43 h2 M64,43 h2 M67,43 h3 
    M72,43 h1 M78,43 h1 M40,44 h1 M46,44 h1 M51,44 h1 M53,44 h1 M55,44 h1 M64,44 h1 
    M66,44 h1 M68,44 h1 M73,44 h1 M79,44 h1 M81,44 h1 M40,45 h1 M46,45 h1 M53,45 h1 
    M55,45 h1 M64,45 h1 M66,45 h1 M73,45 h1 M79,45 h1 M39,46 h1 M45,46 h1 M51,46 h4 
    M58,46 h1 M61,46 h1 M65,46 h4 M74,46 h1 M80,46 h1 M38,47 h1 M45,47 h1 M74,47 h1 
    M81,47 h1 M37,48 h1 M44,48 h1 M75,48 h1 M82,48 h1 M37,49 h1 M44,49 h1 M75,49 h1 
    M82,49 h1 M36,50 h1 M43,50 h1 M76,50 h1 M83,50 h1 M36,51 h8 M76,51 h8 M35,53 h7 
    M78,53 h7 M34,54 h1 M42,54 h2 M76,54 h2 M85,54 h1 M34,55 h1 M43,55 h1 M76,55 h1 
    M85,55 h1 M33,56 h1 M35,56 h5 M43,56 h1 M76,56 h1 M80,56 h5 M86,56 h1 M33,57 h1 
    M40,57 h2 M43,57 h1 M76,57 h1 M78,57 h2 M86,57 h1 M33,58 h1 M42,58 h1 M53,58 h14 
    M77,58 h1 M86,58 h1 M33,59 h1 M41,59 h1 M49,59 h4 M67,59 h4 M78,59 h1 M86,59 h1 
    M33,60 h5 M40,60 h1 M49,60 h1 M70,60 h1 M79,60 h1 M82,60 h5 M33,61 h1 M38,61 h3 
    M49,61 h1 M70,61 h1 M79,61 h3 M86,61 h1 M33,62 h1 M40,62 h1 M49,62 h1 M70,62 h1 
    M79,62 h1 M86,62 h1 M33,63 h1 M38,63 h3 M49,63 h1 M57,63 h6 M70,63 h1 M79,63 h3 
    M86,63 h1 M33,64 h5 M49,64 h1 M51,64 h6 M63,64 h6 M70,64 h1 M82,64 h5 M50,65 h1 
    M69,65 h1 M51,66 h1 M68,66 h1 M52,67 h1 M67,67 h1 M52,68 h1 M67,68 h1 M52,69 h1 
    M67,69 h1 M52,70 h1 M56,70 h8 M67,70 h1 M51,71 h5 M64,71 h5 M50,72 h1 M69,72 h1 
    M48,73 h2 M70,73 h2 M48,74 h1 M71,74 h1 M32,75 h7 M45,75 h4 M71,75 h4 M81,75 h7 
    M31,76 h1 M38,76 h1 M44,76 h1 M49,76 h3 M68,76 h3 M75,76 h1 M81,76 h1 M88,76 h1 
    M31,77 h1 M38,77 h1 M44,77 h1 M52,77 h16 M75,77 h1 M81,77 h1 M88,77 h1 M31,78 h1 
    M35,78 h4 M45,78 h1 M74,78 h1 M81,78 h4 M88,78 h1 M31,79 h4 M39,79 h1 M45,79 h1 
    M74,79 h1 M80,79 h1 M85,79 h4 M31,80 h1 M39,80 h1 M45,80 h1 M74,80 h1 M80,80 h1 
    M88,80 h1 M31,81 h1 M38,81 h3 M45,81 h1 M74,81 h1 M79,81 h3 M88,81 h1 M31,82 h1 
    M36,82 h2 M41,82 h1 M46,82 h6 M68,82 h6 M78,82 h1 M82,82 h2 M88,82 h1 M31,83 h5 
    M41,83 h1 M52,83 h16 M78,83 h1 M84,83 h5 M32,84 h1 M38,84 h3 M79,84 h3 M87,84 h1 
    M32,85 h1 M37,85 h1 M82,85 h1 M87,85 h1 M33,86 h4 M83,86 h4"/>
  <path stroke="#e79055" d="M52,26 h4 M64,26 h4 M53,27 h2 M65,27 h2 M53,28 h2 M65,28 h2 
    M53,29 h2 M65,29 h2 M54,30 h1 M65,30 h1 M54,31 h1 M65,31 h1 M55,32 h1 M64,32 h1 
    M55,33 h1 M64,33 h1 M56,34 h1 M63,34 h1 M57,35 h1 M62,35 h1 M57,36 h1 M62,36 h1"/>
  <path stroke="#ce6442" d="M55,27 h1 M64,27 h1 M55,28 h1 M64,28 h1 M55,29 h1 M64,29 h1 
    M53,30 h1 M55,30 h1 M64,30 h1 M66,30 h1 M55,31 h1 M64,31 h1 M54,32 h1 M56,32 h1 
    M63,32 h1 M65,32 h1 M56,33 h1 M63,33 h1 M58,36 h1 M61,36 h1"/>
  <path stroke="#211d25" d="M45,29 h3 M72,29 h3 M44,30 h1 M48,30 h4 M68,30 h4 M75,30 h1 
    M44,31 h1 M52,31 h1 M67,31 h1 M75,31 h1 M44,32 h1 M75,32 h1 M44,33 h1 M75,33 h1 
    M44,34 h1 M75,34 h1 M44,35 h1 M75,35 h1 M44,36 h1 M75,36 h1 M44,37 h1 M75,37 h1 
    M43,38 h1 M76,38 h1 M59,48 h2 M59,49 h1 M54,50 h1 M65,50 h1 M56,51 h2 M62,51 h2 
    M37,52 h1 M43,52 h1 M76,52 h1 M82,52 h1 M44,53 h1 M75,53 h1 M45,54 h1 M74,54 h1 
    M46,55 h3 M71,55 h3 M49,56 h22 M43,61 h1 M76,61 h1 M43,62 h1 M76,62 h1 M44,63 h1 
    M75,63 h1 M44,64 h4 M72,64 h4 M34,65 h1 M43,65 h1 M48,65 h1 M71,65 h1 M76,65 h1 
    M85,65 h1 M35,66 h1 M43,66 h1 M49,66 h1 M70,66 h1 M76,66 h1 M84,66 h1 M35,67 h1 
    M42,67 h1 M50,67 h1 M69,67 h1 M77,67 h1 M84,67 h1 M34,68 h1 M36,68 h1 M41,68 h1 
    M50,68 h1 M69,68 h1 M78,68 h1 M83,68 h1 M85,68 h1 M34,69 h1 M37,69 h1 M39,69 h2 
    M50,69 h1 M69,69 h1 M79,69 h2 M82,69 h1 M85,69 h1 M34,70 h1 M38,70 h1 M50,70 h1 
    M69,70 h1 M81,70 h1 M85,70 h1 M33,71 h1 M39,71 h2 M49,71 h1 M70,71 h1 M79,71 h2 
    M86,71 h1 M33,72 h1 M41,72 h3 M47,72 h2 M71,72 h2 M76,72 h3 M86,72 h1 M33,73 h1 
    M44,73 h3 M73,73 h3 M86,73 h1 M32,74 h1 M87,74 h1 M41,75 h1 M78,75 h1 M42,76 h1 
    M77,76 h1 M42,77 h1 M77,77 h1 M43,78 h1 M76,78 h1 M43,79 h1 M76,79 h1 M42,80 h3 
    M75,80 h3 M41,81 h1 M43,81 h1 M76,81 h1 M78,81 h1 M44,82 h1 M75,82 h1 M41,86 h1 
    M78,86 h1 M37,87 h4 M79,87 h4 M37,88 h1 M47,88 h1 M72,88 h1 M82,88 h1 M37,89 h1 
    M48,89 h1 M71,89 h1 M82,89 h1 M37,90 h1 M48,90 h1 M71,90 h1 M82,90 h1 M37,91 h1 
    M48,91 h24 M82,91 h1 M38,92 h1 M47,92 h2 M71,92 h2 M81,92 h1 M39,93 h8 M73,93 h8"/>
  <path stroke="#3c3c3c" d="M45,30 h1 M74,30 h1 M45,31 h2 M50,31 h2 M68,31 h2 M73,31 h2 
    M45,32 h1 M52,32 h1 M67,32 h1 M74,32 h1 M60,49 h1 M58,50 h1 M61,50 h1 M55,51 h1 
    M64,51 h1 M44,52 h1 M75,52 h1 M45,53 h1 M74,53 h1 M46,54 h2 M72,54 h2 M49,55 h2 
    M69,55 h2 M44,83 h1 M75,83 h1 M90,83 h1 M45,84 h1 M74,84 h1 M90,84 h1 M89,85 h2 
    M42,86 h4 M74,86 h4 M89,86 h1 M46,87 h1 M73,87 h1 M88,87 h2 M35,88 h1 M84,88 h5 
    M84,89 h1 M84,90 h1 M84,91 h1 M40,92 h1 M45,92 h1 M74,92 h1 M79,92 h1 M84,92 h1 
    M50,93 h20 M83,93 h2 M48,94 h3 M71,94 h1 M82,94 h2 M39,95 h10 M73,95 h10"/>
  <path stroke="#8d837d" d="M46,30 h2 M72,30 h2 M47,31 h1 M72,31 h1 M48,36 h1 M71,36 h1 
    M45,37 h2 M48,37 h1 M71,37 h1 M73,37 h2 M47,44 h1 M58,44 h4 M72,44 h1 M47,45 h1 
    M72,45 h1 M48,48 h1 M71,48 h1 M58,49 h1 M61,49 h1 M47,50 h3 M55,50 h2 M59,50 h2 
    M63,50 h2 M70,50 h3 M46,52 h1 M73,52 h1 M47,53 h1 M72,53 h1 M49,54 h2 M69,54 h2 
    M55,55 h10 M44,65 h2 M47,65 h1 M72,65 h1 M74,65 h2 M48,66 h1 M71,66 h1 M49,67 h1 
    M70,67 h1 M48,68 h1 M71,68 h1 M41,69 h1 M49,69 h1 M70,69 h1 M78,69 h1 M41,70 h2 
    M48,70 h2 M70,70 h2 M77,70 h2 M44,71 h1 M46,71 h2 M72,71 h2 M75,71 h1 M44,72 h1 
    M46,72 h1 M73,72 h1 M75,72 h1 M42,81 h1 M44,81 h1 M75,81 h1 M77,81 h1 M42,82 h2 
    M45,82 h1 M74,82 h1 M76,82 h2 M42,83 h2 M45,83 h2 M49,83 h1 M70,83 h1 M73,83 h2 
    M76,83 h2 M42,84 h1 M44,84 h1 M46,84 h4 M52,84 h1 M54,84 h1 M56,84 h1 M63,84 h1 
    M65,84 h1 M67,84 h1 M70,84 h4 M75,84 h1 M77,84 h1 M38,85 h1 M43,85 h1 M45,85 h1 
    M47,85 h2 M50,85 h3 M54,85 h1 M56,85 h1 M58,85 h1 M61,85 h1 M63,85 h1 M65,85 h1 
    M67,85 h3 M71,85 h2 M74,85 h1 M76,85 h1 M81,85 h1 M48,86 h3 M53,86 h4 M58,86 h4 
    M63,86 h4 M69,86 h3 M41,87 h5 M49,87 h1 M51,87 h2 M54,87 h2 M57,87 h1 M59,87 h2 
    M62,87 h1 M64,87 h2 M67,87 h2 M70,87 h1 M74,87 h5 M38,88 h3 M42,88 h1 M45,88 h2 
    M50,88 h1 M52,88 h4 M57,88 h6 M64,88 h4 M69,88 h1 M73,88 h2 M77,88 h1 M79,88 h3 
    M38,89 h1 M46,89 h2 M51,89 h1 M53,89 h1 M55,89 h1 M64,89 h1 M66,89 h1 M68,89 h1 
    M72,89 h2 M81,89 h1 M38,90 h1 M40,90 h1 M47,90 h1 M54,90 h1 M65,90 h1 M72,90 h1 
    M79,90 h1 M81,90 h1 M38,91 h2 M42,91 h1 M47,91 h1 M72,91 h1 M77,91 h1 M80,91 h2"/>
  <path stroke="#8f8189" d="M77,30 h1"/>
  <path stroke="#635d5a" d="M48,31 h2 M70,31 h2 M49,32 h3 M68,32 h3 M45,33 h1 M50,33 h3 
    M67,33 h3 M74,33 h1 M45,34 h1 M51,34 h1 M68,34 h1 M74,34 h1 M45,35 h1 M50,35 h1 
    M69,35 h1 M74,35 h1 M45,36 h1 M49,36 h1 M70,36 h1 M74,36 h1 M47,37 h1 M72,37 h1 
    M44,38 h3 M73,38 h3 M49,42 h1 M70,42 h1 M48,43 h2 M70,43 h2 M47,48 h1 M54,48 h1 
    M65,48 h1 M72,48 h1 M46,49 h1 M73,49 h1 M44,50 h3 M57,50 h1 M62,50 h1 M73,50 h3 
    M44,51 h1 M75,51 h1 M45,52 h1 M74,52 h1 M46,53 h1 M73,53 h1 M48,54 h1 M71,54 h1 
    M51,55 h4 M65,55 h4 M49,68 h1 M70,68 h1 M39,70 h2 M79,70 h2 M41,71 h2 M48,71 h1 
    M71,71 h1 M77,71 h2 M45,72 h1 M74,72 h1 M41,84 h1 M43,84 h1 M76,84 h1 M78,84 h1 
    M39,85 h4 M44,85 h1 M46,85 h1 M73,85 h1 M75,85 h1 M77,85 h4 M37,86 h4 M46,86 h2 
    M51,86 h1 M68,86 h1 M72,86 h2 M79,86 h4 M47,87 h2 M50,87 h1 M69,87 h1 M71,87 h2 
    M48,88 h2 M51,88 h1 M56,88 h1 M63,88 h1 M68,88 h1 M70,88 h2 M49,89 h2 M52,89 h1 
    M54,89 h1 M56,89 h8 M65,89 h1 M67,89 h1 M69,89 h2 M49,90 h5 M55,90 h10 M66,90 h5 
    M40,91 h1 M44,91 h1 M46,91 h1 M73,91 h1 M75,91 h1 M79,91 h1 M39,92 h1 M41,92 h4 
    M46,92 h1 M73,92 h1 M75,92 h4 M80,92 h1"/>
  <path stroke="#944940" d="M56,31 h1 M63,31 h1 M57,32 h1 M62,32 h1 M54,33 h1 M57,33 h1 
    M62,33 h1 M65,33 h1 M55,34 h1 M57,34 h1 M62,34 h1 M64,34 h1 M56,35 h1 M58,35 h1 
    M61,35 h1 M63,35 h1 M56,36 h1 M59,36 h2 M63,36 h1 M57,37 h6 M53,43 h1 M66,43 h1 
    M50,44 h1 M69,44 h1 M50,45 h2 M68,45 h2"/>
  <path stroke="#e55858" d="M58,31 h4 M58,32 h1 M61,32 h1 M58,33 h1 M61,33 h1 M54,34 h1 
    M65,34 h1 M52,35 h1 M54,35 h1 M65,35 h1 M67,35 h1 M51,36 h1 M54,36 h1 M65,36 h1 
    M68,36 h1 M50,37 h1 M53,37 h1 M56,37 h1 M63,37 h1 M66,37 h1 M69,37 h1 M50,38 h1 
    M53,38 h1 M56,38 h1 M59,38 h2 M63,38 h1 M66,38 h1 M69,38 h1 M49,39 h2 M69,39 h2 
    M43,40 h4 M51,40 h1 M68,40 h1 M73,40 h4 M44,41 h4 M56,41 h8 M72,41 h4 M42,42 h1 
    M77,42 h1 M43,43 h2 M75,43 h2 M43,44 h3 M74,44 h3 M41,45 h1 M78,45 h1 M41,46 h3 
    M76,46 h3 M42,47 h3 M60,47 h1 M75,47 h3 M39,48 h2 M79,48 h2 M39,49 h5 M76,49 h5 
    M37,54 h1 M82,54 h1 M35,55 h6 M79,55 h6 M40,56 h3 M77,56 h3 M42,57 h1 M77,57 h1 
    M35,58 h1 M84,58 h1 M34,59 h5 M53,59 h6 M61,59 h6 M81,59 h5 M38,60 h2 M50,60 h3 
    M67,60 h3 M80,60 h2 M50,61 h1 M56,61 h2 M62,61 h2 M69,61 h1 M34,62 h1 M53,62 h1 
    M55,62 h10 M66,62 h1 M85,62 h1 M34,63 h4 M50,63 h1 M52,63 h5 M63,63 h5 M69,63 h1 
    M82,63 h4 M50,64 h1 M69,64 h1 M56,68 h3 M61,68 h3 M55,69 h10 M53,70 h3 M64,70 h3 
    M50,73 h1 M53,73 h1 M66,73 h1 M69,73 h1 M49,74 h2 M53,74 h1 M66,74 h1 M69,74 h2 
    M49,75 h3 M53,75 h6 M61,75 h6 M68,75 h3 M32,76 h6 M45,76 h4 M52,76 h16 M71,76 h4 
    M82,76 h6 M36,77 h2 M45,77 h1 M74,77 h1 M82,77 h2 M32,78 h3 M46,78 h1 M73,78 h1 
    M85,78 h3 M46,79 h1 M51,79 h1 M68,79 h1 M73,79 h1 M38,80 h1 M46,80 h1 M50,80 h2 
    M57,80 h1 M62,80 h1 M68,80 h2 M73,80 h1 M81,80 h1 M36,81 h2 M46,81 h6 M54,81 h5 
    M61,81 h5 M68,81 h6 M82,81 h2 M32,82 h4 M52,82 h16 M84,82 h4 M39,83 h2 M79,83 h2 
    M37,84 h1 M82,84 h1 M33,85 h4 M83,85 h4"/>
  <path stroke="#ffbdc1" d="M46,32 h1 M73,32 h1 M46,33 h1 M73,33 h1 M46,34 h1 M73,34 h1"/>
  <path stroke="#ef93b5" d="M47,32 h1 M72,32 h1 M47,33 h1 M72,33 h1 M47,34 h1 M72,34 h1 
    M46,35 h3 M71,35 h3"/>
  <path stroke="#c971a2" d="M48,32 h1 M71,32 h1 M48,33 h1 M71,33 h1 M48,34 h2 M70,34 h2 
    M49,35 h1 M70,35 h1 M46,36 h2 M72,36 h2"/>
  <path stroke="#944e89" d="M49,33 h1 M70,33 h1 M50,34 h1 M69,34 h1"/>
  <path stroke="#b4aea4" d="M48,42 h1 M50,42 h6 M64,42 h6 M71,42 h1 M56,43 h8 M48,44 h2 
    M56,44 h2 M62,44 h2 M70,44 h2 M48,45 h2 M56,45 h8 M70,45 h2 M46,46 h5 M55,46 h3 
    M62,46 h3 M69,46 h5 M46,47 h13 M61,47 h13 M45,48 h2 M49,48 h5 M55,48 h4 M61,48 h4 
    M66,48 h5 M73,48 h2 M45,49 h1 M47,49 h11 M62,49 h11 M74,49 h1 M50,50 h4 M66,50 h4 
    M45,51 h10 M58,51 h4 M65,51 h10 M47,52 h26 M48,53 h24 M51,54 h18 M46,65 h1 
    M73,65 h1 M44,66 h4 M72,66 h4 M43,67 h6 M71,67 h6 M42,68 h6 M72,68 h6 M42,69 h7 
    M71,69 h7 M43,70 h5 M72,70 h5 M43,71 h1 M45,71 h1 M74,71 h1 M76,71 h1 M47,83 h2 
    M50,83 h2 M68,83 h2 M71,83 h2 M50,84 h2 M53,84 h1 M55,84 h1 M57,84 h6 M64,84 h1 
    M66,84 h1 M68,84 h2 M49,85 h1 M53,85 h1 M55,85 h1 M57,85 h1 M59,85 h2 M62,85 h1 
    M64,85 h1 M66,85 h1 M70,85 h1 M52,86 h1 M57,86 h1 M62,86 h1 M67,86 h1 M53,87 h1 
    M56,87 h1 M58,87 h1 M61,87 h1 M63,87 h1 M66,87 h1 M41,88 h1 M43,88 h2 M75,88 h2 
    M78,88 h1 M39,89 h7 M74,89 h7 M39,90 h1 M41,90 h6 M73,90 h6 M80,90 h1 M41,91 h1 
    M43,91 h1 M45,91 h1 M74,91 h1 M76,91 h1 M78,91 h1"/>
  <path stroke="#edb762" d="M52,44 h1 M54,44 h1 M65,44 h1 M67,44 h1"/>
  <path stroke="#fcfbc9" d="M52,45 h1 M54,45 h1 M65,45 h1 M67,45 h1"/>
  <path stroke="#fa8971" d="M59,46 h1"/>
  <path stroke="#685d66" d="M84,48 h1 M85,50 h1 M85,51 h1 M87,54 h1 M88,56 h1 M88,57 h1 
    M88,58 h1 M88,59 h1 M88,60 h1 M88,61 h1 M88,62 h1 M88,63 h1 M88,64 h1 M88,65 h1 
    M87,66 h2 M87,67 h1 M87,68 h1 M87,69 h1 M88,71 h1 M89,74 h1 M90,79 h1 M90,80 h1 
    M90,81 h1"/>
  <path stroke="#413d42" d="M38,52 h5 M77,52 h5 M42,53 h2 M76,53 h2 M45,55 h1 M74,55 h1 
    M44,56 h1 M46,56 h3 M71,56 h3 M75,56 h1 M44,57 h1 M47,57 h1 M49,57 h1 M51,57 h1 
    M68,57 h1 M70,57 h1 M72,57 h1 M75,57 h1 M43,58 h1 M48,58 h1 M50,58 h1 M52,58 h1 
    M67,58 h1 M69,58 h1 M71,58 h1 M76,58 h1 M42,59 h1 M46,59 h1 M48,59 h1 M71,59 h1 
    M73,59 h1 M77,59 h1 M41,60 h1 M47,60 h2 M71,60 h2 M78,60 h1 M41,61 h1 M44,61 h1 
    M46,61 h1 M48,61 h1 M71,61 h1 M73,61 h1 M75,61 h1 M78,61 h1 M41,62 h1 M44,62 h2 
    M48,62 h1 M71,62 h1 M74,62 h2 M78,62 h1 M45,63 h3 M72,63 h3 M38,64 h2 M43,64 h1 
    M48,64 h1 M71,64 h1 M76,64 h1 M80,64 h2 M35,65 h2 M40,65 h1 M79,65 h1 M83,65 h2 
    M37,66 h1 M39,66 h1 M42,66 h1 M50,66 h1 M69,66 h1 M77,66 h1 M80,66 h1 M82,66 h1 
    M36,67 h1 M38,67 h1 M41,67 h1 M78,67 h1 M81,67 h1 M83,67 h1 M35,68 h1 M39,68 h2 
    M79,68 h2 M84,68 h1 M35,69 h2 M38,69 h1 M81,69 h1 M83,69 h2 M36,70 h2 M82,70 h2 
    M34,71 h2 M38,71 h1 M50,71 h1 M69,71 h1 M81,71 h1 M84,71 h2 M34,72 h1 M37,72 h1 
    M39,72 h2 M79,72 h2 M82,72 h1 M85,72 h1 M34,73 h1 M36,73 h1 M38,73 h1 M40,73 h4 
    M76,73 h4 M81,73 h1 M83,73 h1 M85,73 h1 M33,74 h5 M39,74 h1 M43,74 h5 M72,74 h5 
    M80,74 h1 M82,74 h5 M40,75 h1 M44,75 h1 M75,75 h1 M79,75 h1 M39,76 h1 M41,76 h1 
    M78,76 h1 M80,76 h1 M39,77 h1 M41,77 h1 M43,77 h1 M76,77 h1 M78,77 h1 M80,77 h1 
    M39,78 h1 M42,78 h1 M44,78 h1 M75,78 h1 M77,78 h1 M80,78 h1 M40,79 h1 M42,79 h1 
    M44,79 h1 M75,79 h1 M77,79 h1 M79,79 h1 M40,80 h2 M78,80 h2 M97,100 h7 M94,101 h12 
    M93,102 h4 M104,102 h4 M90,103 h5 M101,103 h10 M76,104 h18 M100,104 h13 M69,105 h22 
    M97,105 h20 M118,105 h2 M50,106 h39 M95,106 h25 M49,107 h71 M49,108 h6 M75,108 h45 
    M47,109 h6 M67,109 h42 M110,109 h10 M46,110 h4 M61,110 h47 M110,110 h9 M44,111 h3 
    M55,111 h29 M93,111 h13 M109,111 h9 M42,112 h5 M49,112 h32 M108,112 h9 M41,113 h5 
    M49,113 h32 M107,113 h10 M37,114 h7 M53,114 h26 M87,114 h9 M104,114 h12 M33,115 h11 
    M66,115 h12 M84,115 h32 M31,116 h12 M54,116 h23 M81,116 h32 M119,116 h1 M30,117 h12 
    M44,117 h31 M90,117 h21 M119,117 h1 M0,118 h2 M27,118 h14 M44,118 h29 M88,118 h22 
    M117,118 h3 M0,119 h6 M23,119 h14 M43,119 h28 M87,119 h19 M116,119 h4"/>
  <path stroke="#5c5b63" d="M44,54 h1 M75,54 h1 M44,55 h1 M75,55 h1 M45,56 h1 M74,56 h1 
    M45,57 h2 M48,57 h1 M50,57 h1 M52,57 h16 M69,57 h1 M71,57 h1 M73,57 h2 M44,58 h4 
    M49,58 h1 M51,58 h1 M68,58 h1 M70,58 h1 M72,58 h4 M43,59 h3 M47,59 h1 M72,59 h1 
    M74,59 h3 M42,60 h5 M73,60 h5 M42,61 h1 M45,61 h1 M47,61 h1 M72,61 h1 M74,61 h1 
    M77,61 h1 M42,62 h1 M46,62 h2 M72,62 h2 M77,62 h1 M41,63 h3 M48,63 h1 M71,63 h1 
    M76,63 h3 M40,64 h3 M77,64 h3 M37,65 h3 M41,65 h2 M49,65 h1 M70,65 h1 M77,65 h2 
    M80,65 h3 M36,66 h1 M38,66 h1 M40,66 h2 M78,66 h2 M81,66 h1 M83,66 h1 M37,67 h1 
    M39,67 h2 M51,67 h1 M68,67 h1 M79,67 h2 M82,67 h1 M37,68 h2 M51,68 h1 M68,68 h1 
    M81,68 h2 M51,69 h1 M68,69 h1 M35,70 h1 M51,70 h1 M68,70 h1 M84,70 h1 M36,71 h2 
    M82,71 h2 M35,72 h2 M38,72 h1 M49,72 h1 M70,72 h1 M81,72 h1 M83,72 h2 M35,73 h1 
    M37,73 h1 M39,73 h1 M47,73 h1 M72,73 h1 M80,73 h1 M82,73 h1 M84,73 h1 M38,74 h1 
    M40,74 h3 M77,74 h3 M81,74 h1 M39,75 h1 M42,75 h2 M76,75 h2 M80,75 h1 M40,76 h1 
    M43,76 h1 M76,76 h1 M79,76 h1 M102,76 h9 M40,77 h1 M79,77 h1 M99,77 h13 M40,78 h2 
    M78,78 h2 M98,78 h5 M109,78 h4 M41,79 h1 M78,79 h1 M96,79 h5 M106,79 h7 M95,80 h4 
    M104,80 h10 M94,81 h4 M102,81 h13 M93,82 h4 M100,82 h16 M91,83 h4 M98,83 h19 
    M91,84 h3 M96,84 h22 M91,85 h1 M95,85 h23 M90,86 h1 M93,86 h26 M90,87 h30 M14,88 h7 
    M89,88 h31 M13,89 h10 M33,89 h3 M85,89 h25 M111,89 h9 M12,90 h14 M31,90 h5 
    M85,90 h17 M112,90 h8 M11,91 h25 M85,91 h13 M110,91 h10 M9,92 h26 M85,92 h11 
    M109,92 h8 M118,92 h2 M8,93 h5 M14,93 h17 M85,93 h9 M108,93 h9 M6,94 h6 M13,94 h10 
    M26,94 h2 M37,94 h1 M51,94 h20 M84,94 h5 M98,94 h7 M106,94 h12 M4,95 h7 M12,95 h12 
    M32,95 h7 M49,95 h16 M66,95 h7 M83,95 h4 M96,95 h19 M2,96 h7 M12,96 h1 M14,96 h3 
    M20,96 h5 M30,96 h30 M67,96 h17 M101,96 h11 M0,97 h7 M18,97 h4 M28,97 h29 M65,97 h11 
    M82,97 h1 M103,97 h17 M0,98 h5 M17,98 h3 M24,98 h27 M72,98 h9 M86,98 h34 M0,99 h3 
    M13,99 h35 M62,99 h58 M10,100 h44 M59,100 h38 M104,100 h16 M4,101 h36 M41,101 h9 
    M57,101 h37 M106,101 h14 M1,102 h33 M40,102 h9 M56,102 h37 M97,102 h7 M108,102 h12 
    M0,103 h28 M37,103 h10 M53,103 h37 M95,103 h6 M111,103 h9 M0,104 h27 M35,104 h41 
    M94,104 h6 M113,104 h7 M0,105 h27 M32,105 h37 M91,105 h6 M117,105 h1 M0,106 h24 
    M30,106 h20 M89,106 h6 M0,107 h7 M10,107 h6 M26,107 h2 M29,107 h20 M0,108 h2 
    M10,108 h2 M23,108 h26 M55,108 h20 M16,109 h31 M53,109 h14 M109,109 h1 M0,110 h3 
    M16,110 h30 M50,110 h11 M108,110 h2 M119,110 h1 M0,111 h4 M14,111 h30 M47,111 h8 
    M84,111 h9 M106,111 h3 M118,111 h2 M0,112 h3 M13,112 h29 M47,112 h2 M81,112 h27 
    M117,112 h3 M0,113 h2 M12,113 h29 M46,113 h3 M81,113 h26 M117,113 h3 M0,114 h1 
    M10,114 h3 M16,114 h21 M44,114 h9 M79,114 h8 M96,114 h8 M116,114 h4 M0,115 h9 
    M15,115 h18 M44,115 h22 M78,115 h6 M116,115 h4 M0,116 h10 M14,116 h17 M43,116 h11 
    M77,116 h4 M113,116 h6 M0,117 h30 M42,117 h2 M75,117 h15 M111,117 h8 M2,118 h25 
    M41,118 h3 M73,118 h15 M110,118 h7 M6,119 h17 M37,119 h6 M71,119 h16 M106,119 h10"/>
  <path stroke="#7c808b" d="M31,60 h1 M30,61 h2 M29,62 h3 M28,63 h4 M26,64 h5 M101,64 h7 
    M25,65 h5 M99,65 h10 M24,66 h5 M96,66 h14 M23,67 h5 M95,67 h17 M22,68 h5 M31,68 h2 
    M94,68 h7 M102,68 h11 M20,69 h6 M29,69 h4 M92,69 h6 M102,69 h12 M19,70 h12 
    M91,70 h5 M109,70 h7 M18,71 h12 M31,71 h1 M89,71 h5 M110,71 h7 M17,72 h12 M31,72 h1 
    M89,72 h2 M99,72 h19 M15,73 h10 M30,73 h1 M95,73 h24 M12,74 h11 M30,74 h1 M97,74 h23 
    M11,75 h11 M29,75 h1 M90,75 h4 M96,75 h24 M9,76 h11 M28,76 h2 M91,76 h11 M111,76 h9 
    M8,77 h11 M21,77 h9 M91,77 h8 M112,77 h8 M7,78 h11 M20,78 h10 M91,78 h1 M94,78 h4 
    M103,78 h6 M113,78 h7 M5,79 h9 M16,79 h2 M19,79 h11 M94,79 h2 M101,79 h5 M113,79 h7 
    M4,80 h9 M15,80 h15 M92,80 h3 M99,80 h5 M114,80 h6 M3,81 h10 M15,81 h6 M29,81 h1 
    M91,81 h3 M98,81 h4 M115,81 h5 M1,82 h11 M15,82 h1 M26,82 h4 M91,82 h2 M97,82 h3 
    M116,82 h4 M0,83 h11 M23,83 h7 M95,83 h3 M117,83 h3 M0,84 h10 M18,84 h12 M94,84 h2 
    M118,84 h2 M0,85 h6 M12,85 h19 M92,85 h3 M118,85 h2 M0,86 h3 M11,86 h20 M91,86 h2 
    M119,86 h1 M9,87 h23 M0,88 h3 M7,88 h7 M21,88 h12 M0,89 h2 M5,89 h8 M23,89 h10 
    M110,89 h1 M0,90 h1 M3,90 h9 M26,90 h5 M102,90 h10 M0,91 h11 M98,91 h12 M0,92 h9 
    M35,92 h1 M96,92 h13 M117,92 h1 M0,93 h8 M13,93 h1 M31,93 h6 M94,93 h14 M117,93 h3 
    M0,94 h6 M12,94 h1 M23,94 h3 M28,94 h9 M89,94 h9 M105,94 h1 M118,94 h2 M0,95 h4 
    M11,95 h1 M24,95 h8 M65,95 h1 M87,95 h9 M115,95 h5 M0,96 h2 M9,96 h3 M13,96 h1 
    M17,96 h3 M25,96 h5 M60,96 h7 M84,96 h17 M112,96 h8 M7,97 h11 M22,97 h6 M57,97 h8 
    M76,97 h6 M83,97 h20 M5,98 h12 M20,98 h4 M51,98 h21 M81,98 h5 M3,99 h10 M48,99 h14 
    M0,100 h10 M54,100 h5 M0,101 h4 M40,101 h1 M50,101 h7 M0,102 h1 M34,102 h6 
    M49,102 h7 M28,103 h9 M47,103 h6 M27,104 h8 M27,105 h5 M24,106 h6 M7,107 h3 
    M16,107 h10 M28,107 h1 M2,108 h8 M12,108 h11 M0,109 h16 M3,110 h13 M4,111 h10 
    M3,112 h10 M2,113 h10 M1,114 h9 M13,114 h3 M9,115 h6 M10,116 h4"/>
  <path stroke="#585f57" d="M88,72 h1 M90,76 h1 M90,77 h1 M90,78 h1 M90,82 h1 M33,88 h2"/>
</svg>
