<svg xmlns="http://www.w3.org/2000/svg" shape-rendering="crispEdges" viewBox="0 -0.5 120 120" style="width:100%;height:100%;transform:translate3d(0,0,0);content-visibility:visible">
  <path stroke="#643747" d="M0,0 h120 M0,1 h120 M0,2 h120 M0,3 h120 M0,4 h120 M0,5 h120 
    M0,6 h120 M0,7 h120 M0,8 h120 M0,9 h120 M0,10 h120 M0,11 h120 M0,12 h120 M0,13 h120 
    M0,14 h120 M0,15 h120 M0,16 h120 M0,17 h120 M0,18 h120 M0,19 h120 M0,20 h120 
    M0,21 h120 M0,22 h120 M0,23 h120 M0,24 h120 M0,25 h120 M0,26 h120 M0,27 h120 
    M0,28 h44 M49,28 h22 M76,28 h44 M0,29 h43 M53,29 h1 M66,29 h1 M77,29 h43 M0,30 h43 
    M78,30 h42 M0,31 h43 M78,31 h42 M0,32 h43 M78,32 h42 M0,33 h43 M78,33 h42 M0,34 h43 
    M78,34 h42 M0,35 h43 M78,35 h42 M0,36 h43 M78,36 h42 M0,37 h42 M78,37 h42 M0,38 h42 
    M79,38 h41 M0,39 h42 M79,39 h41 M0,40 h41 M79,40 h41 M0,41 h40 M80,41 h40 M0,42 h40 
    M81,42 h39 M0,43 h39 M81,43 h39 M0,44 h39 M82,44 h38 M0,45 h38 M82,45 h38 M0,46 h38 
    M58,46 h1 M61,46 h1 M83,46 h37 M0,47 h38 M83,47 h37 M0,48 h38 M83,48 h37 M0,49 h37 
    M83,49 h37 M0,50 h37 M84,50 h36 M0,51 h36 M84,51 h36 M0,52 h35 M85,52 h35 M0,53 h34 
    M86,53 h34 M0,54 h34 M87,54 h33 M0,55 h34 M87,55 h33 M0,56 h34 M87,56 h33 M0,57 h34 
    M87,57 h33 M0,58 h34 M87,58 h33 M0,59 h33 M87,59 h33 M0,60 h33 M88,60 h32 M0,61 h33 
    M88,61 h32 M0,62 h33 M88,62 h32 M0,63 h33 M88,63 h32 M0,64 h33 M88,64 h32 M0,65 h33 
    M88,65 h32 M0,66 h33 M88,66 h32 M0,67 h33 M88,67 h32 M0,68 h33 M88,68 h32 M0,69 h33 
    M88,69 h32 M0,70 h32 M88,70 h32 M0,71 h32 M89,71 h31 M0,72 h32 M89,72 h31 M0,73 h31 
    M89,73 h31 M0,74 h31 M90,74 h30 M0,75 h31 M90,75 h30 M0,76 h31 M90,76 h30 M0,77 h31 
    M90,77 h30 M0,78 h31 M90,78 h30 M0,79 h31 M90,79 h30 M0,80 h31 M90,80 h30 M0,81 h31 
    M90,81 h30 M0,82 h31 M90,82 h30 M0,83 h32 M90,83 h30 M0,84 h32 M89,84 h31 M0,85 h33 
    M89,85 h31 M0,86 h34 M88,86 h32 M0,87 h35 M87,87 h33 M0,88 h36 M86,88 h34 M0,89 h36 
    M85,89 h35 M0,90 h36 M85,90 h35 M0,91 h36 M85,91 h35 M0,92 h36 M85,92 h35 M0,93 h37 
    M85,93 h35 M0,94 h38 M51,94 h20 M84,94 h36 M0,95 h39 M49,95 h24 M83,95 h37 
    M0,96 h120 M0,97 h120 M0,98 h120 M0,99 h120 M0,100 h120 M0,101 h120 M0,102 h120 
    M0,103 h120 M0,104 h120 M0,105 h120 M0,106 h120 M0,107 h120 M0,108 h120 M0,109 h120 
    M0,110 h120 M0,111 h120 M0,112 h120 M0,113 h120 M0,114 h120 M0,115 h120 M0,116 h120 
    M0,117 h120 M0,118 h120 M0,119 h120"/>
  <path stroke="#ffffff" d="M44,28 h5 M71,28 h5 M43,29 h2 M48,29 h5 M54,29 h12 
    M67,29 h5 M75,29 h2 M43,30 h1 M52,30 h3 M65,30 h3 M76,30 h1 M43,31 h1 M76,31 h1 
    M43,32 h1 M76,32 h1 M43,33 h1 M76,33 h1 M43,34 h1 M76,34 h1 M43,35 h1 M76,35 h1 
    M43,36 h1 M76,36 h1 M42,37 h2 M76,37 h2 M42,38 h1 M77,38 h1 M42,39 h1 M77,39 h1 
    M41,40 h2 M77,40 h2 M40,41 h2 M78,41 h2 M40,42 h1 M79,42 h1 M39,43 h2 M79,43 h2 
    M39,44 h1 M80,44 h1 M38,45 h2 M80,45 h2 M38,46 h1 M81,46 h1 M38,47 h1 M81,47 h1 
    M38,48 h1 M81,48 h1 M37,49 h2 M81,49 h2 M37,50 h1 M82,50 h1 M36,51 h2 M82,51 h2 
    M35,52 h2 M83,52 h2 M34,53 h2 M84,53 h2 M34,54 h1 M85,54 h1 M34,55 h1 M85,55 h1 
    M34,56 h1 M85,56 h1 M34,57 h1 M85,57 h1 M34,58 h1 M85,58 h1 M33,59 h2 M85,59 h2 
    M33,60 h1 M86,60 h1 M33,61 h1 M86,61 h1 M33,62 h1 M86,62 h1 M33,63 h1 M86,63 h1 
    M33,64 h1 M86,64 h1 M33,65 h1 M86,65 h1 M33,66 h2 M85,66 h2 M33,67 h2 M85,67 h2 
    M33,68 h1 M86,68 h1 M33,69 h1 M86,69 h1 M32,70 h2 M86,70 h2 M32,71 h1 M87,71 h1 
    M32,72 h1 M87,72 h1 M31,73 h2 M87,73 h2 M31,74 h1 M88,74 h1 M31,75 h1 M88,75 h1 
    M31,76 h1 M88,76 h1 M31,77 h1 M88,77 h1 M31,78 h1 M88,78 h1 M31,79 h1 M88,79 h1 
    M31,80 h1 M88,80 h1 M31,81 h1 M88,81 h1 M31,82 h2 M87,82 h2 M32,83 h1 M87,83 h1 
    M32,84 h2 M86,84 h2 M33,85 h2 M85,85 h2 M34,86 h2 M84,86 h2 M35,87 h2 M83,87 h2 
    M36,88 h1 M83,88 h1 M36,89 h1 M83,89 h1 M36,90 h1 M83,90 h1 M36,91 h1 M83,91 h1 
    M36,92 h2 M49,92 h22 M82,92 h2 M37,93 h2 M47,93 h3 M70,93 h3 M81,93 h2 M38,94 h10 
    M72,94 h10"/>
  <path stroke="#211d25" d="M45,29 h3 M72,29 h3 M44,30 h1 M48,30 h4 M55,30 h10 
    M68,30 h4 M75,30 h1 M44,31 h1 M52,31 h3 M65,31 h3 M75,31 h1 M44,32 h1 M75,32 h1 
    M44,33 h1 M75,33 h1 M44,34 h1 M75,34 h1 M44,35 h1 M75,35 h1 M44,36 h1 M75,36 h1 
    M44,37 h1 M75,37 h1 M43,38 h1 M76,38 h1 M43,39 h1 M76,39 h1 M43,40 h1 M76,40 h1 
    M42,41 h1 M77,41 h1 M41,42 h1 M78,42 h1 M41,43 h1 M78,43 h1 M40,44 h1 M79,44 h1 
    M40,45 h1 M79,45 h1 M39,46 h1 M80,46 h1 M39,47 h1 M80,47 h1 M39,48 h1 M59,48 h2 
    M80,48 h1 M39,49 h1 M59,49 h1 M80,49 h1 M38,50 h1 M40,50 h2 M54,50 h1 M65,50 h1 
    M78,50 h2 M81,50 h1 M38,51 h1 M42,51 h1 M56,51 h2 M62,51 h2 M77,51 h1 M81,51 h1 
    M37,52 h1 M43,52 h1 M76,52 h1 M82,52 h1 M36,53 h1 M44,53 h1 M75,53 h1 M83,53 h1 
    M35,54 h1 M45,54 h1 M74,54 h1 M84,54 h1 M35,55 h1 M46,55 h3 M71,55 h3 M84,55 h1 
    M35,56 h1 M49,56 h22 M84,56 h1 M35,57 h1 M84,57 h1 M35,58 h1 M84,58 h1 M35,59 h1 
    M84,59 h1 M34,60 h1 M85,60 h1 M34,61 h1 M43,61 h1 M76,61 h1 M85,61 h1 M34,62 h1 
    M43,62 h1 M76,62 h1 M85,62 h1 M34,63 h1 M44,63 h1 M75,63 h1 M85,63 h1 M34,64 h1 
    M45,64 h1 M74,64 h1 M85,64 h1 M34,65 h1 M85,65 h1 M35,66 h1 M84,66 h1 M35,67 h1 
    M84,67 h1 M34,68 h1 M36,68 h1 M83,68 h1 M85,68 h1 M34,69 h1 M37,69 h1 M82,69 h1 
    M85,69 h1 M34,70 h1 M38,70 h1 M50,70 h1 M69,70 h1 M81,70 h1 M85,70 h1 M33,71 h1 
    M39,71 h2 M49,71 h1 M70,71 h1 M79,71 h2 M86,71 h1 M33,72 h1 M41,72 h3 M47,72 h2 
    M71,72 h2 M76,72 h3 M86,72 h1 M33,73 h1 M44,73 h3 M73,73 h3 M86,73 h1 M32,74 h1 
    M87,74 h1 M32,75 h1 M87,75 h1 M32,76 h1 M87,76 h1 M32,77 h1 M87,77 h1 M32,78 h1 
    M87,78 h1 M32,79 h1 M43,79 h1 M76,79 h1 M87,79 h1 M32,80 h1 M43,80 h1 M76,80 h1 
    M87,80 h1 M32,81 h1 M43,81 h1 M76,81 h1 M87,81 h1 M33,82 h1 M44,82 h1 M75,82 h1 
    M86,82 h1 M33,83 h1 M86,83 h1 M34,84 h1 M85,84 h1 M35,85 h1 M84,85 h1 M36,86 h1 
    M41,86 h1 M78,86 h1 M83,86 h1 M37,87 h4 M79,87 h4 M37,88 h1 M47,88 h1 M72,88 h1 
    M82,88 h1 M37,89 h1 M48,89 h1 M71,89 h1 M82,89 h1 M37,90 h1 M48,90 h1 M71,90 h1 
    M82,90 h1 M37,91 h1 M48,91 h24 M82,91 h1 M38,92 h1 M47,92 h2 M71,92 h2 M81,92 h1 
    M39,93 h8 M73,93 h8"/>
  <path stroke="#3c3c3c" d="M45,30 h1 M74,30 h1 M77,30 h1 M45,31 h2 M50,31 h2 M68,31 h2 
    M73,31 h2 M77,31 h1 M45,32 h1 M52,32 h2 M66,32 h2 M74,32 h1 M77,32 h1 M77,33 h1 
    M77,34 h1 M77,35 h1 M77,36 h1 M78,38 h1 M78,39 h1 M55,41 h1 M64,41 h1 M42,42 h1 
    M77,42 h1 M80,42 h1 M42,43 h1 M77,43 h1 M41,44 h1 M78,44 h1 M81,44 h1 M41,45 h1 
    M78,45 h1 M40,46 h1 M79,46 h1 M82,46 h1 M40,47 h1 M79,47 h1 M82,47 h1 M40,48 h2 
    M78,48 h2 M82,48 h1 M40,49 h2 M60,49 h1 M78,49 h2 M39,50 h1 M42,50 h1 M58,50 h1 
    M61,50 h1 M77,50 h1 M80,50 h1 M83,50 h1 M39,51 h3 M55,51 h1 M64,51 h1 M78,51 h2 
    M38,52 h2 M41,52 h2 M44,52 h1 M75,52 h1 M77,52 h2 M80,52 h2 M37,53 h1 M39,53 h1 
    M42,53 h1 M45,53 h1 M74,53 h1 M77,53 h1 M80,53 h1 M82,53 h1 M36,54 h1 M39,54 h1 
    M43,54 h2 M46,54 h2 M72,54 h2 M75,54 h2 M80,54 h1 M83,54 h1 M86,54 h1 M36,55 h2 
    M40,55 h1 M44,55 h1 M49,55 h2 M69,55 h2 M75,55 h1 M79,55 h1 M82,55 h2 M86,55 h1 
    M36,56 h1 M47,56 h2 M71,56 h2 M83,56 h1 M86,56 h1 M37,57 h1 M82,57 h1 M86,57 h1 
    M86,58 h1 M87,60 h1 M87,61 h1 M87,62 h1 M87,63 h1 M46,64 h2 M72,64 h2 M87,64 h1 
    M48,65 h1 M71,65 h1 M87,65 h1 M49,66 h1 M70,66 h1 M87,66 h1 M50,67 h1 M69,67 h1 
    M87,67 h1 M50,68 h1 M69,68 h1 M87,68 h1 M50,69 h1 M69,69 h1 M87,69 h1 M88,71 h1 
    M88,72 h1 M89,74 h1 M41,75 h1 M78,75 h1 M89,75 h1 M42,76 h1 M77,76 h1 M89,76 h1 
    M42,77 h1 M77,77 h1 M89,77 h1 M43,78 h1 M76,78 h1 M89,78 h1 M89,79 h1 M89,80 h1 
    M89,81 h1 M89,82 h1 M44,83 h1 M75,83 h1 M88,83 h2 M45,84 h1 M74,84 h1 M88,84 h1 
    M87,85 h2 M42,86 h4 M74,86 h4 M86,86 h2 M46,87 h1 M73,87 h1 M85,87 h2 M84,88 h2 
    M84,89 h1 M84,90 h1 M84,91 h1 M40,92 h1 M45,92 h1 M74,92 h1 M79,92 h1 M84,92 h1 
    M50,93 h20 M83,93 h2 M48,94 h3 M71,94 h1 M82,94 h2 M39,95 h10 M73,95 h10"/>
  <path stroke="#8d837d" d="M46,30 h2 M72,30 h2 M47,31 h1 M72,31 h1 M56,32 h1 M58,32 h4 
    M63,32 h1 M55,35 h1 M64,35 h1 M48,36 h1 M71,36 h1 M45,37 h2 M48,37 h1 M71,37 h1 
    M73,37 h2 M44,40 h2 M53,40 h1 M66,40 h1 M74,40 h2 M44,41 h1 M50,41 h1 M69,41 h1 
    M75,41 h1 M43,43 h1 M76,43 h1 M43,44 h1 M47,44 h1 M58,44 h4 M72,44 h1 M76,44 h1 
    M43,45 h1 M46,45 h2 M72,45 h2 M76,45 h1 M43,46 h2 M75,46 h2 M44,47 h2 M74,47 h2 
    M43,48 h2 M48,48 h1 M71,48 h1 M75,48 h2 M58,49 h1 M61,49 h1 M47,50 h3 M55,50 h2 
    M59,50 h2 M63,50 h2 M70,50 h3 M46,52 h1 M73,52 h1 M47,53 h1 M72,53 h1 M38,54 h1 
    M41,54 h1 M49,54 h2 M69,54 h2 M78,54 h1 M81,54 h1 M42,55 h1 M55,55 h10 M77,55 h1 
    M38,56 h2 M41,56 h1 M78,56 h1 M80,56 h2 M38,57 h5 M46,57 h1 M73,57 h1 M77,57 h5 
    M39,58 h3 M45,58 h4 M50,58 h1 M53,58 h2 M56,58 h1 M58,58 h1 M61,58 h1 M63,58 h1 
    M65,58 h2 M69,58 h1 M71,58 h4 M78,58 h3 M38,59 h1 M40,59 h2 M44,59 h10 M55,59 h3 
    M62,59 h3 M66,59 h10 M78,59 h2 M81,59 h1 M37,60 h2 M40,60 h4 M45,60 h3 M49,60 h4 
    M67,60 h2 M70,60 h1 M72,60 h3 M76,60 h4 M81,60 h2 M36,61 h2 M42,61 h1 M45,61 h1 
    M47,61 h2 M52,61 h1 M71,61 h2 M74,61 h1 M77,61 h1 M82,61 h2 M36,62 h1 M41,62 h2 
    M46,62 h2 M49,62 h2 M72,62 h2 M77,62 h2 M83,62 h1 M36,63 h1 M38,63 h1 M40,63 h4 
    M45,63 h1 M49,63 h1 M51,63 h1 M74,63 h1 M76,63 h4 M81,63 h1 M83,63 h1 M36,64 h2 
    M42,64 h3 M50,64 h1 M75,64 h3 M82,64 h2 M36,65 h1 M38,65 h2 M41,65 h1 M44,65 h2 
    M47,65 h1 M50,65 h2 M72,65 h1 M74,65 h2 M78,65 h1 M80,65 h2 M83,65 h1 M38,66 h3 
    M43,66 h1 M48,66 h1 M51,66 h2 M71,66 h1 M76,66 h1 M79,66 h3 M37,67 h2 M49,67 h1 
    M70,67 h1 M81,67 h2 M38,68 h2 M48,68 h1 M52,68 h1 M71,68 h1 M80,68 h2 M40,69 h2 
    M49,69 h1 M52,69 h1 M70,69 h1 M78,69 h2 M41,70 h2 M48,70 h2 M52,70 h2 M70,70 h2 
    M77,70 h2 M36,71 h1 M44,71 h1 M46,71 h2 M53,71 h1 M72,71 h2 M75,71 h1 M83,71 h1 
    M35,72 h1 M37,72 h1 M44,72 h1 M46,72 h1 M50,72 h2 M53,72 h1 M73,72 h1 M75,72 h1 
    M82,72 h1 M84,72 h1 M35,73 h5 M48,73 h4 M68,73 h4 M80,73 h5 M34,74 h1 M36,74 h2 
    M39,74 h4 M46,74 h4 M51,74 h2 M67,74 h2 M70,74 h4 M77,74 h4 M82,74 h2 M85,74 h1 
    M35,75 h1 M37,75 h4 M42,75 h6 M49,75 h1 M70,75 h1 M72,75 h6 M79,75 h4 M84,75 h1 
    M34,76 h3 M38,76 h1 M40,76 h2 M43,76 h4 M48,76 h1 M50,76 h1 M69,76 h1 M71,76 h1 
    M73,76 h4 M78,76 h2 M81,76 h1 M83,76 h3 M35,77 h3 M40,77 h2 M43,77 h2 M75,77 h2 
    M78,77 h2 M82,77 h3 M35,78 h1 M40,78 h3 M77,78 h3 M84,78 h1 M35,79 h2 M38,79 h2 
    M41,79 h2 M77,79 h2 M80,79 h2 M83,79 h2 M34,80 h1 M36,80 h1 M38,80 h2 M42,80 h1 
    M77,80 h1 M80,80 h2 M83,80 h1 M85,80 h1 M35,81 h1 M37,81 h2 M40,81 h3 M44,81 h1 
    M46,81 h2 M72,81 h2 M75,81 h1 M77,81 h3 M81,81 h2 M84,81 h1 M36,82 h4 M42,82 h2 
    M45,82 h4 M71,82 h4 M76,82 h2 M80,82 h4 M37,83 h1 M39,83 h2 M42,83 h2 M45,83 h2 
    M49,83 h1 M53,83 h1 M57,83 h1 M62,83 h1 M66,83 h1 M70,83 h1 M73,83 h2 M76,83 h2 
    M79,83 h2 M82,83 h1 M37,84 h1 M40,84 h1 M42,84 h1 M44,84 h1 M46,84 h4 M52,84 h1 
    M54,84 h1 M56,84 h1 M63,84 h1 M65,84 h1 M67,84 h1 M70,84 h4 M75,84 h1 M77,84 h1 
    M79,84 h1 M82,84 h1 M38,85 h1 M43,85 h1 M45,85 h1 M47,85 h2 M50,85 h3 M54,85 h1 
    M56,85 h1 M58,85 h1 M61,85 h1 M63,85 h1 M65,85 h1 M67,85 h3 M71,85 h2 M74,85 h1 
    M76,85 h1 M81,85 h1 M48,86 h3 M53,86 h4 M58,86 h4 M63,86 h4 M69,86 h3 M41,87 h5 
    M49,87 h1 M51,87 h2 M54,87 h2 M57,87 h1 M59,87 h2 M62,87 h1 M64,87 h2 M67,87 h2 
    M70,87 h1 M74,87 h5 M38,88 h3 M42,88 h1 M45,88 h2 M50,88 h1 M52,88 h4 M57,88 h6 
    M64,88 h4 M69,88 h1 M73,88 h2 M77,88 h1 M79,88 h3 M38,89 h1 M46,89 h2 M51,89 h1 
    M53,89 h1 M55,89 h1 M64,89 h1 M66,89 h1 M68,89 h1 M72,89 h2 M81,89 h1 M38,90 h1 
    M40,90 h1 M47,90 h1 M54,90 h1 M65,90 h1 M72,90 h1 M79,90 h1 M81,90 h1 M38,91 h2 
    M42,91 h1 M47,91 h1 M72,91 h1 M77,91 h1 M80,91 h2"/>
  <path stroke="#635d5a" d="M48,31 h2 M55,31 h10 M70,31 h2 M49,32 h3 M68,32 h3 
    M45,33 h1 M50,33 h4 M57,33 h1 M62,33 h1 M66,33 h4 M74,33 h1 M45,34 h1 M51,34 h2 
    M56,34 h1 M63,34 h1 M67,34 h2 M74,34 h1 M45,35 h1 M50,35 h2 M68,35 h2 M74,35 h1 
    M45,36 h1 M49,36 h2 M69,36 h2 M74,36 h1 M47,37 h1 M72,37 h1 M44,38 h3 M73,38 h3 
    M44,39 h2 M74,39 h2 M54,40 h1 M56,40 h1 M63,40 h1 M65,40 h1 M43,41 h1 M76,41 h1 
    M43,42 h2 M49,42 h1 M56,42 h1 M63,42 h1 M70,42 h1 M75,42 h2 M44,43 h1 M48,43 h2 
    M70,43 h2 M75,43 h1 M42,44 h1 M45,44 h1 M74,44 h1 M77,44 h1 M42,45 h1 M77,45 h1 
    M41,46 h2 M77,46 h2 M41,47 h3 M76,47 h3 M42,48 h1 M47,48 h1 M54,48 h1 M65,48 h1 
    M72,48 h1 M77,48 h1 M42,49 h2 M46,49 h1 M73,49 h1 M76,49 h2 M43,50 h4 M57,50 h1 
    M62,50 h1 M73,50 h4 M43,51 h2 M75,51 h2 M80,51 h1 M40,52 h1 M45,52 h1 M74,52 h1 
    M79,52 h1 M38,53 h1 M40,53 h2 M43,53 h1 M46,53 h1 M73,53 h1 M76,53 h1 M78,53 h2 
    M81,53 h1 M37,54 h1 M40,54 h1 M42,54 h1 M48,54 h1 M71,54 h1 M77,54 h1 M79,54 h1 
    M82,54 h1 M38,55 h2 M41,55 h1 M43,55 h1 M45,55 h1 M51,55 h4 M65,55 h4 M74,55 h1 
    M76,55 h1 M78,55 h1 M80,55 h2 M37,56 h1 M40,56 h1 M42,56 h5 M73,56 h5 M79,56 h1 
    M82,56 h1 M36,57 h1 M43,57 h3 M47,57 h26 M74,57 h3 M83,57 h1 M36,58 h3 M42,58 h3 
    M49,58 h1 M51,58 h2 M67,58 h2 M70,58 h1 M75,58 h3 M81,58 h3 M36,59 h2 M39,59 h1 
    M42,59 h2 M76,59 h2 M80,59 h1 M82,59 h2 M35,60 h2 M44,60 h1 M75,60 h1 M83,60 h2 
    M35,61 h1 M44,61 h1 M46,61 h1 M73,61 h1 M75,61 h1 M84,61 h1 M35,62 h1 M44,62 h2 
    M74,62 h2 M84,62 h1 M35,63 h1 M46,63 h3 M72,63 h2 M84,63 h1 M35,64 h1 M48,64 h2 
    M84,64 h1 M35,65 h1 M37,65 h1 M49,65 h1 M82,65 h1 M84,65 h1 M36,66 h2 M50,66 h1 
    M82,66 h2 M36,67 h1 M51,67 h1 M83,67 h1 M35,68 h1 M37,68 h1 M49,68 h1 M51,68 h1 
    M70,68 h1 M82,68 h1 M84,68 h1 M35,69 h2 M38,69 h2 M51,69 h1 M80,69 h2 M83,69 h2 
    M35,70 h3 M39,70 h2 M51,70 h1 M79,70 h2 M82,70 h3 M34,71 h2 M37,71 h2 M41,71 h2 
    M48,71 h1 M50,71 h2 M71,71 h1 M77,71 h2 M81,71 h2 M84,71 h2 M34,72 h1 M36,72 h1 
    M38,72 h3 M45,72 h1 M49,72 h1 M70,72 h1 M74,72 h1 M79,72 h3 M83,72 h1 M85,72 h1 
    M34,73 h1 M40,73 h4 M47,73 h1 M72,73 h1 M76,73 h4 M85,73 h1 M33,74 h1 M43,74 h3 
    M74,74 h3 M86,74 h1 M33,75 h1 M86,75 h1 M33,76 h1 M86,76 h1 M33,77 h2 M85,77 h2 
    M33,78 h2 M85,78 h2 M33,79 h2 M85,79 h2 M33,80 h1 M35,80 h1 M37,80 h1 M82,80 h1 
    M84,80 h1 M86,80 h1 M33,81 h2 M36,81 h1 M83,81 h1 M85,81 h2 M34,82 h2 M40,82 h2 
    M78,82 h2 M84,82 h2 M34,83 h3 M38,83 h1 M41,83 h1 M78,83 h1 M81,83 h1 M83,83 h3 
    M35,84 h2 M38,84 h2 M41,84 h1 M43,84 h1 M76,84 h1 M78,84 h1 M80,84 h2 M83,84 h2 
    M36,85 h2 M39,85 h4 M44,85 h1 M46,85 h1 M73,85 h1 M75,85 h1 M77,85 h4 M82,85 h2 
    M37,86 h4 M46,86 h2 M51,86 h1 M68,86 h1 M72,86 h2 M79,86 h4 M47,87 h2 M50,87 h1 
    M69,87 h1 M71,87 h2 M48,88 h2 M51,88 h1 M56,88 h1 M63,88 h1 M68,88 h1 M70,88 h2 
    M49,89 h2 M52,89 h1 M54,89 h1 M56,89 h8 M65,89 h1 M67,89 h1 M69,89 h2 M49,90 h5 
    M55,90 h10 M66,90 h5 M40,91 h1 M44,91 h1 M46,91 h1 M73,91 h1 M75,91 h1 M79,91 h1 
    M39,92 h1 M41,92 h4 M46,92 h1 M73,92 h1 M75,92 h4 M80,92 h1"/>
  <path stroke="#ffbdc1" d="M46,32 h1 M73,32 h1 M46,33 h1 M73,33 h1 M46,34 h1 M73,34 h1"/>
  <path stroke="#ef93b5" d="M47,32 h1 M72,32 h1 M47,33 h1 M72,33 h1 M47,34 h1 M72,34 h1 
    M46,35 h3 M71,35 h3"/>
  <path stroke="#c971a2" d="M48,32 h1 M71,32 h1 M48,33 h1 M71,33 h1 M48,34 h2 M70,34 h2 
    M49,35 h1 M70,35 h1 M46,36 h2 M72,36 h2"/>
  <path stroke="#b4aea4" d="M54,32 h2 M57,32 h1 M62,32 h1 M64,32 h2 M54,33 h3 M58,33 h4 
    M63,33 h3 M53,34 h3 M57,34 h6 M64,34 h3 M52,35 h3 M56,35 h8 M65,35 h3 M51,36 h18 
    M49,37 h22 M47,38 h26 M46,39 h28 M46,40 h7 M55,40 h1 M57,40 h6 M64,40 h1 M67,40 h7 
    M45,41 h5 M51,41 h4 M56,41 h8 M65,41 h4 M70,41 h5 M45,42 h4 M50,42 h6 M57,42 h6 
    M64,42 h6 M71,42 h4 M45,43 h3 M56,43 h8 M72,43 h3 M44,44 h1 M46,44 h1 M48,44 h2 
    M56,44 h2 M62,44 h2 M70,44 h2 M73,44 h1 M75,44 h1 M44,45 h2 M48,45 h2 M56,45 h8 
    M70,45 h2 M74,45 h2 M45,46 h6 M55,46 h3 M62,46 h3 M69,46 h6 M46,47 h13 M61,47 h13 
    M45,48 h2 M49,48 h5 M55,48 h4 M61,48 h4 M66,48 h5 M73,48 h2 M44,49 h2 M47,49 h11 
    M62,49 h11 M74,49 h2 M50,50 h4 M66,50 h4 M45,51 h10 M58,51 h4 M65,51 h10 M47,52 h26 
    M48,53 h24 M51,54 h18 M55,58 h1 M57,58 h1 M59,58 h2 M62,58 h1 M64,58 h1 M54,59 h1 
    M58,59 h4 M65,59 h1 M39,60 h1 M48,60 h1 M53,60 h14 M71,60 h1 M80,60 h1 M38,61 h4 
    M49,61 h3 M53,61 h14 M78,61 h4 M37,62 h4 M48,62 h1 M51,62 h15 M79,62 h4 M37,63 h1 
    M39,63 h1 M50,63 h1 M52,63 h13 M80,63 h1 M82,63 h1 M38,64 h4 M51,64 h14 M78,64 h4 
    M40,65 h1 M42,65 h2 M46,65 h1 M52,65 h13 M73,65 h1 M76,65 h2 M79,65 h1 M41,66 h2 
    M44,66 h4 M53,66 h11 M72,66 h4 M77,66 h2 M39,67 h10 M52,67 h11 M71,67 h10 M40,68 h8 
    M53,68 h10 M72,68 h8 M42,69 h7 M53,69 h10 M71,69 h7 M43,70 h5 M54,70 h10 M72,70 h5 
    M43,71 h1 M45,71 h1 M52,71 h1 M54,71 h11 M74,71 h1 M76,71 h1 M52,72 h1 M54,72 h12 
    M52,73 h16 M35,74 h1 M38,74 h1 M50,74 h1 M53,74 h14 M69,74 h1 M81,74 h1 M84,74 h1 
    M34,75 h1 M36,75 h1 M48,75 h1 M50,75 h20 M71,75 h1 M83,75 h1 M85,75 h1 M37,76 h1 
    M39,76 h1 M47,76 h1 M49,76 h1 M51,76 h18 M70,76 h1 M72,76 h1 M80,76 h1 M82,76 h1 
    M38,77 h2 M45,77 h30 M80,77 h2 M36,78 h4 M44,78 h32 M80,78 h4 M37,79 h1 M40,79 h1 
    M44,79 h32 M79,79 h1 M82,79 h1 M40,80 h2 M44,80 h32 M78,80 h2 M39,81 h1 M45,81 h1 
    M48,81 h24 M74,81 h1 M80,81 h1 M49,82 h22 M47,83 h2 M50,83 h3 M54,83 h3 M58,83 h4 
    M63,83 h3 M67,83 h3 M71,83 h2 M50,84 h2 M53,84 h1 M55,84 h1 M57,84 h6 M64,84 h1 
    M66,84 h1 M68,84 h2 M49,85 h1 M53,85 h1 M55,85 h1 M57,85 h1 M59,85 h2 M62,85 h1 
    M64,85 h1 M66,85 h1 M70,85 h1 M52,86 h1 M57,86 h1 M62,86 h1 M67,86 h1 M53,87 h1 
    M56,87 h1 M58,87 h1 M61,87 h1 M63,87 h1 M66,87 h1 M41,88 h1 M43,88 h2 M75,88 h2 
    M78,88 h1 M39,89 h7 M74,89 h7 M39,90 h1 M41,90 h6 M73,90 h6 M80,90 h1 M41,91 h1 
    M43,91 h1 M45,91 h1 M74,91 h1 M76,91 h1 M78,91 h1"/>
  <path stroke="#944e89" d="M49,33 h1 M70,33 h1 M50,34 h1 M69,34 h1"/>
  <path stroke="#333f29" d="M50,43 h3 M54,43 h2 M64,43 h2 M67,43 h3 M51,44 h1 M53,44 h1 
    M55,44 h1 M64,44 h1 M66,44 h1 M68,44 h1 M53,45 h1 M55,45 h1 M64,45 h1 M66,45 h1 
    M51,46 h4 M65,46 h4"/>
  <path stroke="#4e5c2c" d="M53,43 h1 M66,43 h1 M50,44 h1 M69,44 h1 M50,45 h2 M68,45 h2"/>
  <path stroke="#79b547" d="M52,44 h1 M54,44 h1 M65,44 h1 M67,44 h1"/>
  <path stroke="#b8cf61" d="M52,45 h1 M54,45 h1 M65,45 h1 M67,45 h1"/>
  <path stroke="#fa8971" d="M59,46 h1"/>
  <path stroke="#b2434d" d="M60,46 h1 M59,47 h1"/>
  <path stroke="#e55858" d="M60,47 h1"/>
  <path stroke="#413d42" d="M69,60 h1 M67,61 h2 M70,61 h1 M66,62 h1 M71,62 h1 M65,63 h1 
    M71,63 h1 M65,64 h1 M71,64 h1 M65,65 h1 M70,65 h1 M64,66 h1 M69,66 h1 M63,67 h1 
    M68,67 h1 M63,68 h1 M68,68 h1 M63,69 h1 M68,69 h1 M64,70 h1 M68,70 h1 M65,71 h1 
    M69,71 h1 M66,72 h4"/>
  <path stroke="#a5b0b6" d="M69,61 h1 M68,62 h1 M66,63 h2 M70,63 h1 M66,64 h1 M65,66 h1 
    M65,67 h1 M64,68 h2 M65,69 h1"/>
  <path stroke="#7c808b" d="M67,62 h1 M69,62 h2 M68,63 h2 M67,64 h3 M66,65 h1 M67,66 h1 
    M64,67 h1 M66,68 h1 M64,69 h1 M66,69 h1 M65,70 h1 M66,71 h1"/>
  <path stroke="#5c5b63" d="M70,64 h1 M67,65 h3 M66,66 h1 M68,66 h1 M66,67 h2 M67,68 h1 
    M67,69 h1 M66,70 h2 M67,71 h2"/>
</svg>
