<svg xmlns="http://www.w3.org/2000/svg" shape-rendering="crispEdges" viewBox="0 -0.5 120 120" style="width:100%;height:100%;transform:translate3d(0,0,0);content-visibility:visible">
  <path stroke="#211d25" d="M0,0 h6 M7,0 h43 M51,0 h67 M119,0 h1 M0,1 h7 M8,1 h43 
    M52,1 h65 M118,1 h2 M0,2 h8 M9,2 h42 M52,2 h64 M117,2 h3 M0,3 h8 M9,3 h42 M52,3 h63 
    M116,3 h4 M0,4 h9 M10,4 h41 M52,4 h62 M115,4 h5 M0,5 h10 M11,5 h40 M52,5 h61 
    M114,5 h6 M0,6 h11 M12,6 h39 M52,6 h60 M113,6 h7 M0,7 h12 M13,7 h36 M50,7 h2 
    M53,7 h58 M112,7 h8 M0,8 h13 M14,8 h35 M50,8 h2 M53,8 h57 M111,8 h9 M0,9 h14 
    M15,9 h34 M50,9 h2 M53,9 h57 M111,9 h9 M0,10 h15 M16,10 h34 M51,10 h1 M53,10 h56 
    M110,10 h10 M0,11 h50 M51,11 h1 M53,11 h55 M109,11 h11 M0,12 h50 M51,12 h1 
    M53,12 h54 M108,12 h12 M0,13 h50 M51,13 h2 M54,13 h27 M82,13 h24 M107,13 h13 
    M0,14 h50 M51,14 h2 M54,14 h27 M82,14 h23 M106,14 h14 M0,15 h50 M51,15 h2 M54,15 h26 
    M81,15 h23 M105,15 h15 M0,16 h51 M52,16 h1 M54,16 h26 M81,16 h22 M104,16 h16 
    M0,17 h51 M52,17 h1 M54,17 h25 M80,17 h13 M94,17 h8 M103,17 h17 M0,18 h51 M52,18 h1 
    M54,18 h25 M80,18 h12 M93,18 h8 M102,18 h18 M0,19 h8 M9,19 h42 M52,19 h26 M79,19 h12 
    M92,19 h28 M0,20 h9 M10,20 h23 M34,20 h44 M79,20 h12 M92,20 h28 M0,21 h10 M12,21 h22 
    M35,21 h42 M78,21 h12 M91,21 h29 M0,22 h12 M13,22 h22 M36,22 h41 M78,22 h11 
    M90,22 h30 M0,23 h13 M14,23 h21 M36,23 h41 M78,23 h42 M0,24 h14 M15,24 h61 
    M77,24 h31 M109,24 h11 M0,25 h15 M17,25 h90 M108,25 h12 M0,26 h17 M18,26 h87 
    M107,26 h13 M0,27 h15 M16,27 h2 M19,27 h85 M105,27 h15 M0,28 h16 M18,28 h1 
    M21,28 h23 M49,28 h22 M76,28 h27 M104,28 h16 M0,29 h18 M19,29 h2 M22,29 h21 
    M53,29 h1 M66,29 h1 M77,29 h24 M103,29 h17 M0,30 h19 M20,30 h2 M23,30 h20 M55,30 h10 
    M77,30 h23 M101,30 h19 M0,31 h20 M22,31 h1 M24,31 h19 M50,31 h5 M65,31 h5 M77,31 h22 
    M100,31 h20 M0,32 h22 M23,32 h1 M26,32 h17 M50,32 h1 M69,32 h1 M77,32 h20 M99,32 h21 
    M0,33 h23 M24,33 h2 M27,33 h16 M49,33 h2 M69,33 h2 M77,33 h19 M97,33 h21 M0,34 h27 
    M28,34 h15 M49,34 h1 M51,34 h4 M65,34 h4 M70,34 h1 M77,34 h18 M96,34 h20 M118,34 h2 
    M0,35 h37 M38,35 h5 M49,35 h1 M55,35 h10 M70,35 h1 M77,35 h16 M95,35 h19 M116,35 h4 
    M2,36 h36 M39,36 h4 M49,36 h1 M52,36 h2 M66,36 h2 M70,36 h1 M77,36 h15 M93,36 h19 
    M114,36 h6 M0,37 h2 M5,37 h34 M40,37 h2 M49,37 h1 M51,37 h1 M54,37 h3 M63,37 h3 
    M68,37 h1 M70,37 h1 M78,37 h13 M92,37 h17 M112,37 h8 M0,38 h5 M7,38 h33 M41,38 h1 
    M50,38 h1 M57,38 h2 M61,38 h2 M69,38 h1 M78,38 h11 M91,38 h16 M109,38 h11 M0,39 h7 
    M10,39 h31 M59,39 h2 M78,39 h10 M89,39 h16 M107,39 h13 M0,40 h10 M12,40 h29 
    M79,40 h8 M88,40 h15 M105,40 h15 M0,41 h4 M6,41 h6 M14,41 h26 M80,41 h5 M87,41 h33 
    M0,42 h6 M9,42 h31 M80,42 h4 M85,42 h35 M0,43 h9 M12,43 h27 M81,43 h2 M84,43 h36 
    M0,44 h12 M15,44 h24 M81,44 h1 M83,44 h37 M0,45 h38 M82,45 h38 M0,46 h38 M82,46 h38 
    M0,47 h32 M34,47 h4 M82,47 h38 M0,48 h34 M36,48 h2 M82,48 h38 M0,49 h36 M83,49 h37 
    M0,50 h37 M83,50 h35 M0,51 h36 M84,51 h28 M118,51 h2 M0,52 h35 M85,52 h21 M112,52 h8 
    M0,53 h34 M86,53 h18 M106,53 h14 M0,54 h34 M86,54 h34 M0,55 h34 M86,55 h34 
    M0,56 h34 M86,56 h34 M0,57 h34 M86,57 h34 M0,58 h34 M86,58 h34 M0,59 h33 M87,59 h33 
    M0,60 h33 M87,60 h33 M0,61 h33 M87,61 h33 M0,62 h33 M87,62 h33 M0,63 h33 M87,63 h33 
    M0,64 h33 M87,64 h33 M0,65 h33 M87,65 h33 M0,66 h33 M87,66 h33 M0,67 h33 M87,67 h33 
    M0,68 h33 M87,68 h33 M0,69 h20 M23,69 h10 M87,69 h33 M0,70 h16 M20,70 h12 M63,70 h1 
    M88,70 h32 M0,71 h12 M16,71 h16 M62,71 h2 M88,71 h32 M0,72 h32 M50,72 h1 M88,72 h32 
    M0,73 h31 M47,73 h2 M89,73 h31 M0,74 h31 M89,74 h5 M95,74 h25 M0,75 h30 M36,75 h2 
    M40,75 h14 M56,75 h2 M89,75 h6 M98,75 h22 M0,76 h28 M30,76 h1 M36,76 h1 M57,76 h1 
    M89,76 h9 M100,76 h11 M115,76 h5 M0,77 h26 M28,77 h3 M36,77 h1 M57,77 h1 M63,77 h1 
    M89,77 h11 M101,77 h14 M119,77 h1 M0,78 h24 M26,78 h5 M36,78 h1 M57,78 h1 M62,78 h2 
    M89,78 h30 M0,79 h23 M24,79 h7 M36,79 h1 M57,79 h1 M89,79 h31 M0,80 h31 M36,80 h1 
    M57,80 h1 M89,80 h31 M0,81 h31 M36,81 h1 M57,81 h1 M89,81 h31 M0,82 h31 M36,82 h1 
    M57,82 h1 M89,82 h31 M0,83 h32 M36,83 h1 M57,83 h1 M88,83 h32 M0,84 h32 M36,84 h1 
    M57,84 h1 M88,84 h32 M0,85 h33 M36,85 h1 M57,85 h1 M87,85 h33 M0,86 h34 M36,86 h1 
    M57,86 h1 M86,86 h34 M0,87 h35 M36,87 h1 M57,87 h1 M85,87 h35 M0,88 h35 M36,88 h22 
    M84,88 h36 M0,89 h35 M84,89 h36 M0,90 h36 M84,90 h36 M0,91 h32 M33,91 h3 M84,91 h36 
    M0,92 h31 M32,92 h4 M84,92 h36 M0,93 h30 M31,93 h6 M50,93 h5 M56,93 h10 M67,93 h3 
    M83,93 h37 M0,94 h8 M9,94 h20 M30,94 h8 M48,94 h7 M56,94 h10 M67,94 h5 M82,94 h38 
    M0,95 h6 M8,95 h20 M29,95 h26 M56,95 h10 M67,95 h11 M79,95 h41 M0,96 h4 M6,96 h21 
    M28,96 h27 M56,96 h11 M68,96 h11 M80,96 h40 M0,97 h2 M4,97 h22 M27,97 h28 M56,97 h11 
    M68,97 h11 M80,97 h19 M100,97 h20 M0,98 h1 M2,98 h23 M26,98 h41 M68,98 h12 
    M81,98 h19 M101,98 h19 M1,99 h24 M26,99 h41 M68,99 h12 M81,99 h20 M102,99 h18 
    M0,100 h24 M25,100 h3 M29,100 h38 M68,100 h13 M82,100 h20 M103,100 h1 M105,100 h15 
    M0,101 h23 M24,101 h3 M28,101 h40 M69,101 h12 M82,101 h21 M104,101 h1 M106,101 h14 
    M0,102 h22 M23,102 h3 M27,102 h41 M69,102 h13 M83,102 h21 M105,102 h1 M108,102 h12 
    M0,103 h21 M22,103 h3 M26,103 h42 M69,103 h13 M83,103 h22 M106,103 h2 M109,103 h11 
    M0,104 h20 M21,104 h3 M25,104 h43 M69,104 h37 M107,104 h2 M110,104 h10 M0,105 h24 
    M25,105 h43 M69,105 h38 M108,105 h2 M111,105 h9 M0,106 h23 M24,106 h44 M69,106 h42 
    M112,106 h8 M0,107 h22 M23,107 h46 M70,107 h42 M113,107 h7 M0,108 h21 M22,108 h47 
    M70,108 h50 M0,109 h69 M70,109 h50 M0,110 h69 M70,110 h50 M0,111 h45 M46,111 h23 
    M70,111 h50 M0,112 h45 M46,112 h24 M71,112 h49 M0,113 h45 M46,113 h24 M71,113 h49 
    M0,114 h45 M46,114 h24 M71,114 h49 M0,115 h44 M45,115 h25 M71,115 h49 M0,116 h44 
    M45,116 h25 M71,116 h49 M0,117 h25 M26,117 h18 M45,117 h25 M71,117 h30 M102,117 h18 
    M0,118 h24 M25,118 h18 M44,118 h27 M72,118 h30 M103,118 h17 M0,119 h23 M24,119 h19 
    M44,119 h27 M72,119 h31 M104,119 h16"/>
  <path stroke="#413d42" d="M6,0 h1 M118,0 h1 M7,1 h1 M117,1 h1 M8,2 h1 M116,2 h1 
    M8,3 h1 M115,3 h1 M9,4 h1 M114,4 h1 M10,5 h1 M113,5 h1 M11,6 h1 M112,6 h1 M12,7 h1 
    M111,7 h1 M13,8 h1 M110,8 h1 M14,9 h1 M110,9 h1 M15,10 h1 M109,10 h1 M108,11 h1 
    M107,12 h1 M81,13 h1 M106,13 h1 M81,14 h1 M105,14 h1 M80,15 h1 M104,15 h1 M80,16 h1 
    M103,16 h1 M79,17 h1 M102,17 h1 M79,18 h1 M101,18 h1 M8,19 h1 M78,19 h1 M9,20 h1 
    M78,20 h1 M10,21 h2 M77,21 h1 M12,22 h1 M77,22 h1 M13,23 h1 M77,23 h1 M14,24 h1 
    M76,24 h1 M108,24 h1 M15,25 h2 M107,25 h1 M17,26 h1 M105,26 h2 M18,27 h1 M104,27 h1 
    M19,28 h2 M103,28 h1 M21,29 h1 M45,29 h3 M72,29 h3 M101,29 h2 M22,30 h1 M44,30 h1 
    M48,30 h4 M68,30 h4 M75,30 h1 M100,30 h1 M23,31 h1 M44,31 h1 M55,31 h1 M57,31 h1 
    M59,31 h2 M62,31 h1 M64,31 h1 M75,31 h1 M99,31 h1 M24,32 h2 M44,32 h1 M51,32 h2 
    M54,32 h1 M56,32 h1 M58,32 h1 M61,32 h1 M63,32 h1 M65,32 h1 M67,32 h2 M75,32 h1 
    M97,32 h2 M26,33 h1 M44,33 h1 M51,33 h1 M53,33 h2 M56,33 h1 M58,33 h4 M63,33 h1 
    M65,33 h2 M68,33 h1 M75,33 h1 M96,33 h1 M118,33 h2 M27,34 h1 M44,34 h1 M55,34 h2 
    M58,34 h4 M63,34 h2 M75,34 h1 M95,34 h1 M116,34 h2 M37,35 h1 M44,35 h1 M50,35 h1 
    M52,35 h3 M65,35 h3 M69,35 h1 M75,35 h1 M93,35 h2 M114,35 h2 M38,36 h1 M44,36 h1 
    M51,36 h1 M55,36 h2 M58,36 h1 M61,36 h1 M63,36 h2 M68,36 h1 M75,36 h1 M92,36 h1 
    M112,36 h2 M39,37 h1 M44,37 h1 M50,37 h1 M57,37 h1 M59,37 h2 M62,37 h1 M69,37 h1 
    M75,37 h1 M91,37 h1 M109,37 h3 M40,38 h1 M43,38 h1 M59,38 h2 M76,38 h1 M89,38 h2 
    M107,38 h2 M41,39 h1 M43,39 h1 M76,39 h1 M88,39 h1 M105,39 h2 M43,40 h1 M76,40 h1 
    M87,40 h1 M103,40 h2 M42,41 h1 M77,41 h1 M85,41 h2 M41,42 h1 M78,42 h1 M84,42 h1 
    M41,43 h1 M78,43 h1 M83,43 h1 M40,44 h1 M79,44 h1 M82,44 h1 M40,45 h1 M79,45 h1 
    M39,46 h1 M80,46 h1 M39,47 h1 M80,47 h1 M39,48 h1 M80,48 h1 M62,70 h1 M43,73 h1 
    M49,73 h1 M32,76 h1 M55,76 h2 M87,76 h1 M32,77 h1 M39,77 h1 M54,77 h1 M56,77 h1 
    M62,77 h1 M87,77 h1 M32,78 h1 M38,78 h1 M50,78 h1 M55,78 h2 M87,78 h1 M32,79 h1 
    M49,79 h1 M51,79 h1 M56,79 h1 M76,79 h1 M87,79 h1 M32,80 h1 M56,80 h1 M76,80 h1 
    M87,80 h1 M32,81 h1 M56,81 h1 M76,81 h1 M87,81 h1 M33,82 h1 M56,82 h1 M75,82 h1 
    M86,82 h1 M33,83 h1 M53,83 h1 M55,83 h2 M86,83 h1 M34,84 h1 M54,84 h1 M56,84 h1 
    M85,84 h1 M35,85 h1 M38,85 h1 M53,85 h1 M55,85 h2 M84,85 h1 M37,86 h1 M39,86 h1 
    M52,86 h1 M54,86 h1 M56,86 h1 M78,86 h1 M83,86 h1 M37,87 h20 M79,87 h4 M72,88 h1 
    M82,88 h1 M37,89 h1 M48,89 h1 M71,89 h1 M82,89 h1 M37,90 h1 M48,90 h1 M71,90 h1 
    M82,90 h1 M37,91 h1 M48,91 h24 M82,91 h1 M38,92 h1 M47,92 h2 M71,92 h2 M81,92 h1 
    M39,93 h8 M73,93 h8 M28,100 h1 M104,100 h1 M27,101 h1 M105,101 h1 M26,102 h1 
    M106,102 h2 M25,103 h1 M108,103 h1 M24,104 h1 M109,104 h1 M24,105 h1 M110,105 h1 
    M23,106 h1 M111,106 h1 M22,107 h1 M112,107 h1 M21,108 h1 M25,117 h1 M101,117 h1 
    M24,118 h1 M102,118 h1 M23,119 h1 M103,119 h1"/>
  <path stroke="#7c808b" d="M50,0 h1 M51,1 h1 M51,2 h1 M51,3 h1 M51,4 h1 M51,5 h1 
    M51,6 h1 M52,7 h1 M52,8 h1 M52,9 h1 M52,10 h1 M52,11 h1 M52,12 h1 M53,13 h1 
    M53,14 h1 M53,15 h1 M53,16 h1 M53,17 h1 M53,18 h1 M45,30 h1 M74,30 h1 M45,31 h2 
    M73,31 h2 M45,32 h1 M74,32 h1 M0,36 h2 M2,37 h3 M5,38 h2 M7,39 h3 M10,40 h2 
    M4,41 h2 M12,41 h2 M6,42 h3 M42,42 h1 M77,42 h1 M9,43 h3 M42,43 h1 M77,43 h1 
    M12,44 h3 M41,44 h1 M78,44 h1 M41,45 h1 M78,45 h1 M40,46 h1 M79,46 h1 M32,47 h2 
    M40,47 h1 M79,47 h1 M34,48 h2 M40,48 h2 M78,48 h2 M36,49 h1 M40,49 h2 M60,49 h1 
    M78,49 h2 M42,50 h1 M58,50 h1 M61,50 h1 M77,50 h1 M118,50 h2 M55,51 h1 M64,51 h1 
    M112,51 h6 M44,52 h1 M75,52 h1 M106,52 h6 M45,53 h1 M74,53 h1 M104,53 h2 M46,54 h2 
    M72,54 h2 M49,55 h2 M69,55 h2 M55,59 h2 M63,59 h2 M57,60 h1 M62,60 h1 M94,74 h1 
    M30,75 h1 M95,75 h3 M28,76 h2 M37,76 h2 M42,76 h13 M98,76 h2 M26,77 h2 M37,77 h1 
    M77,77 h1 M100,77 h1 M24,78 h2 M37,78 h1 M76,78 h1 M23,79 h1 M37,83 h1 M75,83 h1 
    M37,84 h1 M74,84 h1 M37,85 h1 M74,86 h4 M73,87 h1 M32,91 h1 M31,92 h1 M40,92 h1 
    M45,92 h1 M74,92 h1 M79,92 h1 M30,93 h1 M29,94 h1 M66,94 h1 M28,95 h1 M66,95 h1 
    M27,96 h1 M67,96 h1 M26,97 h1 M67,97 h1 M25,98 h1 M67,98 h1 M25,99 h1 M67,99 h1 
    M24,100 h1 M67,100 h1 M23,101 h1 M68,101 h1 M22,102 h1 M68,102 h1 M21,103 h1 
    M68,103 h1 M20,104 h1 M68,104 h1 M68,105 h1 M68,106 h1 M69,107 h1 M69,108 h1 
    M69,109 h1 M69,110 h1 M45,111 h1 M69,111 h1 M45,112 h1 M70,112 h1 M45,113 h1 
    M70,113 h1 M45,114 h1 M70,114 h1 M44,115 h1 M70,115 h1 M44,116 h1 M70,116 h1 
    M44,117 h1 M70,117 h1 M43,118 h1 M71,118 h1 M43,119 h1 M71,119 h1"/>
  <path stroke="#d6dede" d="M49,7 h1 M49,8 h1 M49,9 h1 M50,10 h1 M50,11 h1 M50,12 h1 
    M50,13 h1 M50,14 h1 M50,15 h1 M51,16 h1 M51,17 h1 M51,18 h1 M51,19 h1 M46,30 h2 
    M72,30 h2 M47,31 h1 M72,31 h1 M48,36 h1 M71,36 h1 M45,37 h2 M48,37 h1 M71,37 h1 
    M73,37 h2 M44,40 h2 M74,40 h2 M44,41 h1 M50,41 h1 M69,41 h1 M75,41 h1 M43,43 h1 
    M76,43 h1 M43,44 h1 M47,44 h1 M58,44 h4 M72,44 h1 M76,44 h1 M43,45 h1 M46,45 h2 
    M72,45 h2 M76,45 h1 M43,46 h2 M75,46 h2 M44,47 h2 M74,47 h2 M43,48 h2 M48,48 h1 
    M71,48 h1 M75,48 h2 M58,49 h1 M61,49 h1 M47,50 h3 M55,50 h2 M59,50 h2 M63,50 h2 
    M70,50 h3 M46,52 h1 M73,52 h1 M47,53 h1 M72,53 h1 M49,54 h2 M69,54 h2 M55,55 h10 
    M55,57 h4 M61,57 h4 M57,58 h1 M62,58 h1 M56,61 h1 M63,61 h1 M44,65 h2 M47,65 h1 
    M72,65 h1 M74,65 h2 M43,66 h1 M48,66 h1 M71,66 h1 M76,66 h1 M49,67 h1 M70,67 h1 
    M48,68 h1 M71,68 h1 M20,69 h3 M41,69 h1 M49,69 h1 M70,69 h1 M78,69 h1 M16,70 h4 
    M41,70 h2 M48,70 h2 M70,70 h2 M77,70 h2 M12,71 h4 M44,71 h1 M46,71 h2 M72,71 h2 
    M75,71 h1 M44,72 h1 M46,72 h1 M73,72 h1 M75,72 h1 M34,76 h2 M81,76 h1 M83,76 h3 
    M111,76 h4 M35,77 h1 M78,77 h2 M82,77 h3 M115,77 h4 M35,78 h1 M77,78 h3 M84,78 h1 
    M119,78 h1 M35,79 h1 M77,79 h2 M80,79 h2 M83,79 h2 M34,80 h1 M77,80 h1 M80,80 h2 
    M83,80 h1 M85,80 h1 M35,81 h1 M72,81 h2 M75,81 h1 M77,81 h3 M81,81 h2 M84,81 h1 
    M71,82 h4 M76,82 h2 M80,82 h4 M62,83 h1 M66,83 h1 M70,83 h1 M73,83 h2 M76,83 h2 
    M79,83 h2 M82,83 h1 M63,84 h1 M65,84 h1 M67,84 h1 M70,84 h4 M75,84 h1 M77,84 h1 
    M79,84 h1 M82,84 h1 M58,85 h1 M61,85 h1 M63,85 h1 M65,85 h1 M67,85 h3 M71,85 h2 
    M74,85 h1 M76,85 h1 M81,85 h1 M58,86 h4 M63,86 h4 M69,86 h3 M59,87 h2 M62,87 h1 
    M64,87 h2 M67,87 h2 M70,87 h1 M74,87 h5 M58,88 h5 M64,88 h4 M69,88 h1 M73,88 h2 
    M77,88 h1 M79,88 h3 M38,89 h1 M46,89 h2 M51,89 h1 M53,89 h1 M55,89 h1 M64,89 h1 
    M66,89 h1 M68,89 h1 M72,89 h2 M81,89 h1 M38,90 h1 M40,90 h1 M47,90 h1 M54,90 h1 
    M65,90 h1 M72,90 h1 M79,90 h1 M81,90 h1 M38,91 h2 M42,91 h1 M47,91 h1 M72,91 h1 
    M77,91 h1 M80,91 h2 M8,94 h1 M6,95 h2 M4,96 h2 M2,97 h2 M1,98 h1 M0,99 h1"/>
  <path stroke="#5c5b63" d="M93,17 h1 M92,18 h1 M91,19 h1 M33,20 h1 M91,20 h1 M34,21 h1 
    M90,21 h1 M35,22 h1 M89,22 h1 M35,23 h1 M15,27 h1 M16,28 h2 M18,29 h1 M19,30 h1 
    M20,31 h2 M56,31 h1 M58,31 h1 M61,31 h1 M63,31 h1 M22,32 h1 M53,32 h1 M55,32 h1 
    M57,32 h1 M59,32 h2 M62,32 h1 M64,32 h1 M66,32 h1 M23,33 h1 M52,33 h1 M55,33 h1 
    M57,33 h1 M62,33 h1 M64,33 h1 M67,33 h1 M50,34 h1 M57,34 h1 M62,34 h1 M69,34 h1 
    M51,35 h1 M68,35 h1 M50,36 h1 M54,36 h1 M57,36 h1 M59,36 h2 M62,36 h1 M65,36 h1 
    M69,36 h1 M58,37 h1 M61,37 h1 M54,39 h1 M56,39 h1 M55,40 h1 M63,40 h1 M65,40 h1 
    M56,41 h1 M64,41 h1 M63,42 h1 M59,48 h2 M59,49 h1 M54,50 h1 M65,50 h1 M56,51 h2 
    M62,51 h2 M49,72 h1 M50,73 h1 M39,76 h3 M38,77 h1 M40,77 h14 M55,77 h1 M39,78 h11 
    M51,78 h4 M37,79 h12 M50,79 h1 M52,79 h4 M37,80 h19 M37,81 h19 M37,82 h19 M38,83 h15 
    M54,83 h1 M38,84 h16 M55,84 h1 M39,85 h14 M54,85 h1 M38,86 h1 M40,86 h12 M53,86 h1 
    M55,86 h1 M55,94 h1 M55,95 h1 M55,96 h1 M79,96 h1 M55,97 h1 M79,97 h1 M99,97 h1 
    M80,98 h1 M100,98 h1 M80,99 h1 M101,99 h1 M81,100 h1 M102,100 h1 M81,101 h1 
    M103,101 h1 M82,102 h1 M104,102 h1 M82,103 h1 M105,103 h1 M106,104 h1 M107,105 h1"/>
  <path stroke="#ffffff" d="M44,28 h5 M71,28 h5 M43,29 h2 M48,29 h5 M54,29 h12 
    M67,29 h5 M75,29 h2 M43,30 h1 M52,30 h3 M65,30 h3 M76,30 h1 M43,31 h1 M76,31 h1 
    M43,32 h1 M76,32 h1 M43,33 h1 M76,33 h1 M43,34 h1 M76,34 h1 M43,35 h1 M76,35 h1 
    M43,36 h1 M76,36 h1 M42,37 h2 M52,37 h2 M66,37 h2 M76,37 h2 M42,38 h1 M47,38 h3 
    M51,38 h6 M63,38 h6 M70,38 h3 M77,38 h1 M42,39 h1 M46,39 h7 M55,39 h1 M57,39 h2 
    M61,39 h13 M77,39 h1 M41,40 h2 M46,40 h9 M56,40 h7 M64,40 h1 M67,40 h7 M77,40 h2 
    M40,41 h2 M45,41 h5 M51,41 h5 M57,41 h7 M65,41 h4 M70,41 h5 M78,41 h2 M40,42 h1 
    M45,42 h4 M50,42 h13 M64,42 h6 M71,42 h4 M79,42 h1 M39,43 h2 M45,43 h3 M56,43 h8 
    M72,43 h3 M79,43 h2 M39,44 h1 M44,44 h1 M46,44 h1 M48,44 h2 M56,44 h2 M62,44 h2 
    M70,44 h2 M73,44 h1 M75,44 h1 M80,44 h1 M38,45 h2 M44,45 h2 M48,45 h2 M56,45 h8 
    M70,45 h2 M74,45 h2 M80,45 h2 M38,46 h1 M45,46 h6 M55,46 h3 M62,46 h3 M69,46 h6 
    M81,46 h1 M38,47 h1 M46,47 h13 M61,47 h13 M81,47 h1 M38,48 h1 M45,48 h2 M49,48 h5 
    M55,48 h4 M61,48 h4 M66,48 h5 M73,48 h2 M81,48 h1 M37,49 h2 M44,49 h2 M47,49 h11 
    M62,49 h11 M74,49 h2 M81,49 h2 M37,50 h1 M50,50 h4 M66,50 h4 M82,50 h1 M36,51 h2 
    M45,51 h10 M58,51 h4 M65,51 h10 M82,51 h2 M35,52 h2 M47,52 h26 M83,52 h2 M34,53 h2 
    M48,53 h24 M84,53 h2 M34,54 h1 M51,54 h18 M85,54 h1 M34,55 h1 M85,55 h1 M34,56 h1 
    M85,56 h1 M34,57 h1 M85,57 h1 M34,58 h1 M85,58 h1 M33,59 h2 M85,59 h2 M33,60 h1 
    M86,60 h1 M33,61 h1 M86,61 h1 M33,62 h1 M86,62 h1 M33,63 h1 M86,63 h1 M33,64 h1 
    M86,64 h1 M33,65 h1 M46,65 h1 M73,65 h1 M86,65 h1 M33,66 h2 M44,66 h4 M72,66 h4 
    M85,66 h2 M33,67 h2 M43,67 h6 M71,67 h6 M85,67 h2 M33,68 h1 M42,68 h6 M72,68 h6 
    M86,68 h1 M33,69 h1 M42,69 h7 M71,69 h7 M86,69 h1 M32,70 h2 M43,70 h5 M72,70 h5 
    M86,70 h2 M32,71 h1 M43,71 h1 M45,71 h1 M74,71 h1 M76,71 h1 M87,71 h1 M32,72 h1 
    M87,72 h1 M31,73 h2 M87,73 h2 M31,74 h1 M88,74 h1 M31,75 h1 M88,75 h1 M31,76 h1 
    M80,76 h1 M82,76 h1 M88,76 h1 M31,77 h1 M80,77 h2 M88,77 h1 M31,78 h1 M74,78 h2 
    M80,78 h4 M88,78 h1 M31,79 h1 M73,79 h3 M79,79 h1 M82,79 h1 M88,79 h1 M31,80 h1 
    M69,80 h7 M78,80 h2 M88,80 h1 M31,81 h1 M58,81 h1 M64,81 h8 M74,81 h1 M80,81 h1 
    M88,81 h1 M31,82 h2 M58,82 h13 M87,82 h2 M32,83 h1 M58,83 h4 M63,83 h3 M67,83 h3 
    M71,83 h2 M87,83 h1 M32,84 h2 M58,84 h5 M64,84 h1 M66,84 h1 M68,84 h2 M86,84 h2 
    M33,85 h2 M59,85 h2 M62,85 h1 M64,85 h1 M66,85 h1 M70,85 h1 M85,85 h2 M34,86 h2 
    M62,86 h1 M67,86 h1 M84,86 h2 M35,87 h1 M58,87 h1 M61,87 h1 M63,87 h1 M66,87 h1 
    M83,87 h2 M35,88 h1 M75,88 h2 M78,88 h1 M83,88 h1 M35,89 h2 M39,89 h7 M74,89 h7 
    M83,89 h1 M36,90 h1 M39,90 h1 M41,90 h6 M73,90 h6 M80,90 h1 M83,90 h1 M36,91 h1 
    M41,91 h1 M43,91 h1 M45,91 h1 M74,91 h1 M76,91 h1 M78,91 h1 M83,91 h1 M36,92 h2 
    M49,92 h22 M82,92 h2 M37,93 h2 M47,93 h3 M70,93 h3 M81,93 h2 M38,94 h10 M72,94 h10"/>
  <path stroke="#a5b0b6" d="M48,31 h2 M70,31 h2 M49,32 h1 M70,32 h1 M45,33 h1 M74,33 h1 
    M45,34 h1 M74,34 h1 M45,35 h1 M74,35 h1 M45,36 h1 M74,36 h1 M47,37 h1 M72,37 h1 
    M44,38 h3 M73,38 h3 M44,39 h2 M53,39 h1 M74,39 h2 M66,40 h1 M43,41 h1 M76,41 h1 
    M43,42 h2 M49,42 h1 M70,42 h1 M75,42 h2 M44,43 h1 M48,43 h2 M70,43 h2 M75,43 h1 
    M42,44 h1 M45,44 h1 M74,44 h1 M77,44 h1 M42,45 h1 M77,45 h1 M41,46 h2 M77,46 h2 
    M41,47 h3 M76,47 h3 M42,48 h1 M47,48 h1 M54,48 h1 M65,48 h1 M72,48 h1 M77,48 h1 
    M42,49 h2 M46,49 h1 M73,49 h1 M76,49 h2 M43,50 h4 M57,50 h1 M62,50 h1 M73,50 h4 
    M43,51 h2 M75,51 h2 M45,52 h1 M74,52 h1 M46,53 h1 M73,53 h1 M48,54 h1 M71,54 h1 
    M51,55 h4 M65,55 h4 M55,58 h2 M63,58 h2 M57,59 h2 M61,59 h2 M56,60 h1 M58,60 h1 
    M61,60 h1 M63,60 h1 M57,61 h1 M62,61 h1 M57,62 h1 M62,62 h1 M57,63 h1 M62,63 h1 
    M49,68 h1 M70,68 h1 M41,71 h2 M48,71 h1 M71,71 h1 M77,71 h2 M45,72 h1 M74,72 h1 
    M33,76 h1 M86,76 h1 M33,77 h2 M85,77 h2 M33,78 h2 M85,78 h2 M33,79 h2 M85,79 h2 
    M33,80 h1 M35,80 h1 M82,80 h1 M84,80 h1 M86,80 h1 M33,81 h2 M83,81 h1 M85,81 h2 
    M34,82 h2 M78,82 h2 M84,82 h2 M34,83 h2 M78,83 h1 M81,83 h1 M83,83 h3 M35,84 h1 
    M76,84 h1 M78,84 h1 M80,84 h2 M83,84 h2 M73,85 h1 M75,85 h1 M77,85 h4 M82,85 h2 
    M68,86 h1 M72,86 h2 M79,86 h4 M69,87 h1 M71,87 h2 M63,88 h1 M68,88 h1 M70,88 h2 
    M49,89 h2 M52,89 h1 M54,89 h1 M56,89 h8 M65,89 h1 M67,89 h1 M69,89 h2 M49,90 h5 
    M55,90 h10 M66,90 h5 M40,91 h1 M44,91 h1 M46,91 h1 M73,91 h1 M75,91 h1 M79,91 h1 
    M39,92 h1 M41,92 h4 M46,92 h1 M73,92 h1 M75,92 h4 M80,92 h1"/>
  <path stroke="#ffbdc1" d="M46,32 h1 M73,32 h1 M46,33 h1 M73,33 h1 M46,34 h1 M73,34 h1"/>
  <path stroke="#ef93b5" d="M47,32 h1 M72,32 h1 M47,33 h1 M72,33 h1 M47,34 h1 M72,34 h1 
    M46,35 h3 M71,35 h3"/>
  <path stroke="#c971a2" d="M48,32 h1 M71,32 h1 M48,33 h1 M71,33 h1 M48,34 h1 M71,34 h1 
    M46,36 h2 M72,36 h2"/>
  <path stroke="#333f29" d="M50,43 h3 M54,43 h2 M64,43 h2 M67,43 h3 M51,44 h1 M53,44 h1 
    M55,44 h1 M64,44 h1 M66,44 h1 M68,44 h1 M53,45 h1 M55,45 h1 M64,45 h1 M66,45 h1 
    M51,46 h4 M65,46 h4"/>
  <path stroke="#4e5c2c" d="M53,43 h1 M66,43 h1 M50,44 h1 M69,44 h1 M50,45 h2 M68,45 h2"/>
  <path stroke="#79b547" d="M52,44 h1 M54,44 h1 M65,44 h1 M67,44 h1"/>
  <path stroke="#b8cf61" d="M52,45 h1 M54,45 h1 M65,45 h1 M67,45 h1"/>
  <path stroke="#643747" d="M58,46 h1 M61,46 h1"/>
  <path stroke="#fa8971" d="M59,46 h1"/>
  <path stroke="#b2434d" d="M60,46 h1 M59,47 h1"/>
  <path stroke="#e55858" d="M60,47 h1"/>
  <path stroke="#4c3d57" d="M39,49 h1 M80,49 h1 M38,50 h1 M40,50 h2 M78,50 h2 M81,50 h1 
    M38,51 h1 M42,51 h1 M77,51 h1 M81,51 h1 M37,52 h1 M43,52 h1 M76,52 h1 M82,52 h1 
    M36,53 h1 M44,53 h1 M75,53 h1 M83,53 h1 M35,54 h1 M45,54 h1 M74,54 h1 M84,54 h1 
    M35,55 h1 M46,55 h3 M71,55 h3 M84,55 h1 M35,56 h1 M48,56 h24 M84,56 h1 M35,57 h1 
    M48,57 h1 M54,57 h1 M65,57 h1 M71,57 h1 M84,57 h1 M35,58 h1 M48,58 h1 M52,58 h3 
    M65,58 h3 M71,58 h1 M84,58 h1 M35,59 h1 M49,59 h3 M54,59 h1 M65,59 h1 M68,59 h3 
    M84,59 h1 M34,60 h1 M51,60 h1 M55,60 h1 M64,60 h1 M68,60 h1 M85,60 h1 M34,61 h1 
    M43,61 h1 M51,61 h1 M55,61 h1 M64,61 h1 M68,61 h1 M76,61 h1 M85,61 h1 M34,62 h1 
    M43,62 h1 M52,62 h1 M56,62 h1 M63,62 h1 M67,62 h1 M76,62 h1 M85,62 h1 M34,63 h1 
    M44,63 h1 M53,63 h1 M56,63 h1 M63,63 h1 M66,63 h1 M75,63 h1 M85,63 h1 M34,64 h1 
    M44,64 h4 M54,64 h1 M57,64 h1 M62,64 h1 M65,64 h1 M72,64 h4 M85,64 h1 M34,65 h1 
    M43,65 h1 M48,65 h1 M55,65 h1 M57,65 h1 M62,65 h1 M64,65 h1 M71,65 h1 M76,65 h1 
    M85,65 h1 M35,66 h1 M42,66 h1 M49,66 h1 M55,66 h1 M57,66 h1 M62,66 h1 M64,66 h1 
    M70,66 h1 M77,66 h1 M84,66 h1 M35,67 h1 M42,67 h1 M50,67 h1 M56,67 h1 M58,67 h1 
    M61,67 h1 M63,67 h1 M69,67 h1 M77,67 h1 M84,67 h1 M34,68 h1 M36,68 h1 M41,68 h1 
    M50,68 h1 M57,68 h2 M61,68 h2 M69,68 h1 M78,68 h1 M83,68 h1 M85,68 h1 M34,69 h1 
    M37,69 h1 M40,69 h1 M50,69 h1 M58,69 h1 M61,69 h1 M69,69 h1 M79,69 h1 M82,69 h1 
    M85,69 h1 M34,70 h1 M38,70 h1 M40,70 h1 M50,70 h1 M59,70 h2 M69,70 h1 M79,70 h1 
    M81,70 h1 M85,70 h1 M33,71 h1 M39,71 h2 M49,71 h1 M60,71 h1 M70,71 h1 M79,71 h2 
    M86,71 h1 M33,72 h1 M41,72 h3 M47,72 h2 M60,72 h1 M71,72 h2 M76,72 h3 M86,72 h1 
    M33,73 h1 M44,73 h3 M59,73 h1 M73,73 h3 M86,73 h1 M32,74 h1 M59,74 h1 M87,74 h1 
    M32,75 h4 M59,75 h1 M80,75 h8 M59,76 h1 M77,76 h3 M59,77 h1 M74,77 h3 M59,78 h1 
    M73,78 h1 M59,79 h1 M69,79 h4 M58,80 h2 M64,80 h5 M59,81 h5"/>
  <path stroke="#5d558f" d="M39,50 h1 M80,50 h1 M39,51 h3 M78,51 h3 M38,52 h5 M77,52 h5 
    M37,53 h1 M39,53 h1 M41,53 h3 M76,53 h3 M80,53 h1 M82,53 h1 M36,54 h2 M39,54 h1 
    M43,54 h2 M75,54 h2 M80,54 h1 M82,54 h2 M36,55 h1 M38,55 h1 M40,55 h1 M44,55 h2 
    M74,55 h2 M79,55 h1 M81,55 h1 M83,55 h1 M36,56 h2 M40,56 h1 M46,56 h2 M72,56 h2 
    M79,56 h1 M82,56 h2 M36,57 h1 M41,57 h1 M47,57 h1 M49,57 h2 M52,57 h2 M66,57 h2 
    M69,57 h2 M72,57 h1 M78,57 h1 M83,57 h1 M36,58 h1 M83,58 h1 M36,59 h1 M44,59 h1 
    M48,59 h1 M52,59 h1 M67,59 h1 M71,59 h1 M75,59 h1 M83,59 h1 M35,60 h1 M37,60 h1 
    M43,60 h1 M45,60 h1 M50,60 h1 M52,60 h1 M54,60 h1 M65,60 h1 M67,60 h1 M69,60 h1 
    M74,60 h1 M76,60 h1 M82,60 h1 M84,60 h1 M35,61 h2 M41,61 h2 M44,61 h1 M50,61 h1 
    M52,61 h1 M67,61 h1 M69,61 h1 M75,61 h1 M77,61 h2 M83,61 h2 M35,62 h1 M40,62 h1 
    M42,62 h1 M44,62 h2 M47,62 h1 M51,62 h1 M53,62 h1 M66,62 h1 M68,62 h1 M72,62 h1 
    M74,62 h2 M77,62 h1 M79,62 h1 M84,62 h1 M35,63 h1 M43,63 h1 M45,63 h3 M52,63 h1 
    M54,63 h1 M65,63 h1 M67,63 h1 M72,63 h3 M76,63 h1 M84,63 h1 M35,64 h1 M43,64 h1 
    M48,64 h1 M53,64 h1 M55,64 h1 M64,64 h1 M66,64 h1 M71,64 h1 M76,64 h1 M84,64 h1 
    M35,65 h1 M49,65 h2 M54,65 h1 M65,65 h1 M69,65 h2 M84,65 h1 M36,66 h2 M50,66 h1 
    M56,66 h1 M63,66 h1 M69,66 h1 M82,66 h2 M36,67 h2 M40,67 h2 M51,67 h1 M68,67 h1 
    M78,67 h2 M82,67 h2 M35,68 h1 M37,68 h2 M40,68 h1 M51,68 h1 M56,68 h1 M63,68 h1 
    M68,68 h1 M79,68 h1 M81,68 h2 M84,68 h1 M35,69 h2 M38,69 h2 M51,69 h1 M56,69 h2 
    M62,69 h2 M68,69 h1 M80,69 h2 M83,69 h2 M35,70 h1 M37,70 h1 M39,70 h1 M51,70 h1 
    M57,70 h2 M61,70 h1 M68,70 h1 M80,70 h1 M82,70 h1 M84,70 h1 M34,71 h2 M37,71 h2 
    M50,71 h2 M58,71 h2 M61,71 h1 M68,71 h2 M81,71 h2 M84,71 h2 M34,72 h1 M36,72 h1 
    M38,72 h3 M58,72 h2 M61,72 h1 M69,72 h2 M79,72 h3 M83,72 h1 M85,72 h1 M34,73 h2 
    M41,73 h1 M60,73 h1 M69,73 h3 M76,73 h3 M84,73 h2 M33,74 h2 M36,74 h1 M45,74 h3 
    M60,74 h1 M68,74 h1 M70,74 h1 M72,74 h4 M83,74 h1 M85,74 h2 M60,75 h1 M69,75 h1 
    M71,75 h1 M60,76 h1 M74,76 h3 M60,77 h1 M64,77 h1 M72,77 h2 M58,78 h1 M60,78 h2 
    M65,78 h2 M70,78 h3 M58,79 h1 M60,79 h3 M64,79 h5 M60,80 h4"/>
  <path stroke="#777dc4" d="M38,53 h1 M40,53 h1 M79,53 h1 M81,53 h1 M38,54 h1 M40,54 h3 
    M77,54 h3 M81,54 h1 M37,55 h1 M39,55 h1 M41,55 h3 M76,55 h3 M80,55 h1 M82,55 h1 
    M38,56 h2 M41,56 h5 M74,56 h5 M80,56 h2 M37,57 h4 M42,57 h5 M51,57 h1 M68,57 h1 
    M73,57 h5 M79,57 h4 M37,58 h11 M49,58 h3 M68,58 h3 M72,58 h11 M37,59 h7 M45,59 h3 
    M53,59 h1 M66,59 h1 M72,59 h3 M76,59 h7 M36,60 h1 M38,60 h5 M44,60 h1 M46,60 h4 
    M53,60 h1 M66,60 h1 M70,60 h4 M75,60 h1 M77,60 h5 M83,60 h1 M37,61 h4 M45,61 h5 
    M53,61 h2 M65,61 h2 M70,61 h5 M79,61 h4 M36,62 h4 M41,62 h1 M46,62 h1 M48,62 h3 
    M54,62 h2 M64,62 h2 M69,62 h3 M73,62 h1 M78,62 h1 M80,62 h4 M36,63 h7 M48,63 h4 
    M55,63 h1 M64,63 h1 M68,63 h4 M77,63 h7 M36,64 h7 M49,64 h4 M56,64 h1 M63,64 h1 
    M67,64 h4 M77,64 h7 M36,65 h7 M51,65 h3 M56,65 h1 M63,65 h1 M66,65 h3 M77,65 h7 
    M38,66 h4 M51,66 h4 M65,66 h4 M78,66 h4 M38,67 h2 M52,67 h4 M57,67 h1 M62,67 h1 
    M64,67 h4 M80,67 h2 M39,68 h1 M52,68 h4 M64,68 h4 M80,68 h1 M52,69 h4 M64,69 h4 
    M36,70 h1 M52,70 h5 M64,70 h4 M83,70 h1 M36,71 h1 M52,71 h6 M64,71 h4 M83,71 h1 
    M35,72 h1 M37,72 h1 M51,72 h7 M62,72 h7 M82,72 h1 M84,72 h1 M36,73 h5 M52,73 h7 
    M61,73 h8 M72,73 h1 M79,73 h5 M35,74 h1 M37,74 h1 M40,74 h2 M48,74 h1 M52,74 h2 
    M56,74 h3 M61,74 h7 M69,74 h1 M71,74 h1 M76,74 h7 M84,74 h1 M58,75 h1 M61,75 h8 
    M70,75 h1 M72,75 h8 M58,76 h1 M61,76 h13 M58,77 h1 M61,77 h1 M65,77 h7 M64,78 h1 
    M67,78 h3 M63,79 h1"/>
  <path stroke="#725689" d="M59,57 h2 M58,58 h1 M61,58 h1 M59,59 h2 M59,60 h2 M58,61 h1 
    M61,61 h1 M58,62 h2 M61,62 h1 M58,63 h1 M61,63 h1 M59,64 h1 M58,65 h1 M60,65 h1 
    M59,66 h1"/>
  <path stroke="#9f76b8" d="M59,58 h2 M59,61 h2 M60,62 h1 M59,63 h2 M58,64 h1 M60,64 h2 
    M59,65 h1 M61,65 h1 M58,66 h1 M60,66 h2 M59,67 h2 M59,68 h2 M59,69 h2"/>
  <path stroke="#944940" d="M42,73 h1 M51,73 h1 M38,74 h2 M42,74 h1 M44,74 h1 M49,74 h1 
    M51,74 h1 M54,74 h2"/>
  <path stroke="#e79055" d="M43,74 h1 M50,74 h1 M38,75 h1 M55,75 h1"/>
  <path stroke="#edb762" d="M39,75 h1 M54,75 h1"/>
  <path stroke="#3c3c3c" d="M55,93 h1 M78,95 h1"/>
  <path stroke="#585f57" d="M66,93 h1"/>
</svg>
