<svg xmlns="http://www.w3.org/2000/svg" shape-rendering="crispEdges" viewBox="0 -0.5 120 120" style="width:100%;height:100%;transform:translate3d(0,0,0);content-visibility:visible">
  <path stroke="#346376" d="M0,0 h1 M4,0 h4 M11,0 h2 M18,0 h4 M25,0 h2 M28,0 h3 
    M32,0 h5 M39,0 h6 M46,0 h2 M49,0 h1 M51,0 h2 M58,0 h2 M63,0 h4 M70,0 h2 M77,0 h4 
    M84,0 h2 M87,0 h3 M91,0 h5 M98,0 h6 M105,0 h2 M108,0 h1 M110,0 h2 M0,1 h1 M4,1 h2 
    M11,1 h2 M18,1 h2 M25,1 h2 M29,1 h2 M32,1 h2 M35,1 h2 M39,1 h2 M43,1 h2 M46,1 h2 
    M51,1 h2 M58,1 h2 M63,1 h2 M70,1 h2 M77,1 h2 M84,1 h2 M88,1 h2 M91,1 h2 M94,1 h2 
    M98,1 h2 M102,1 h2 M105,1 h2 M110,1 h2 M0,2 h1 M4,2 h2 M11,2 h2 M18,2 h2 M25,2 h2 
    M29,2 h2 M32,2 h2 M36,2 h2 M39,2 h2 M43,2 h2 M46,2 h2 M51,2 h2 M58,2 h2 M63,2 h2 
    M70,2 h2 M77,2 h2 M84,2 h2 M88,2 h2 M91,2 h2 M95,2 h2 M98,2 h2 M102,2 h2 M105,2 h2 
    M110,2 h2 M0,3 h1 M4,3 h6 M11,3 h6 M18,3 h6 M26,3 h4 M32,3 h2 M36,3 h2 M39,3 h2 
    M43,3 h2 M46,3 h2 M51,3 h2 M58,3 h2 M63,3 h6 M70,3 h6 M77,3 h6 M85,3 h4 M91,3 h2 
    M95,3 h2 M98,3 h2 M102,3 h2 M105,3 h2 M110,3 h2 M30,6 h6 M37,6 h6 M44,6 h2 
    M51,6 h6 M59,6 h4 M65,6 h5 M73,6 h4 M79,6 h2 M84,6 h2 M89,6 h6 M96,6 h6 M103,6 h2 
    M110,6 h6 M118,6 h2 M32,7 h2 M37,7 h2 M44,7 h2 M51,7 h2 M58,7 h2 M62,7 h2 M65,7 h2 
    M69,7 h2 M72,7 h6 M79,7 h3 M83,7 h3 M91,7 h2 M96,7 h2 M103,7 h2 M110,7 h2 M117,7 h2 
    M32,8 h2 M37,8 h2 M44,8 h2 M51,8 h2 M58,8 h2 M65,8 h2 M69,8 h2 M72,8 h2 M76,8 h2 
    M79,8 h7 M91,8 h2 M96,8 h2 M103,8 h2 M110,8 h2 M117,8 h2 M32,9 h2 M37,9 h4 
    M44,9 h2 M51,9 h4 M58,9 h2 M61,9 h3 M65,9 h5 M72,9 h6 M79,9 h2 M82,9 h1 M84,9 h2 
    M91,9 h2 M96,9 h4 M103,9 h2 M110,9 h4 M117,9 h2 M32,10 h2 M37,10 h2 M44,10 h2 
    M51,10 h2 M58,10 h2 M62,10 h2 M65,10 h2 M68,10 h2 M72,10 h2 M76,10 h2 M79,10 h2 
    M84,10 h2 M91,10 h2 M96,10 h2 M103,10 h2 M110,10 h2 M117,10 h2 M32,11 h2 M37,11 h2 
    M44,11 h2 M51,11 h2 M58,11 h2 M62,11 h2 M65,11 h2 M69,11 h2 M72,11 h2 M76,11 h2 
    M79,11 h2 M84,11 h2 M91,11 h2 M96,11 h2 M103,11 h2 M110,11 h2 M117,11 h2 M32,12 h2 
    M37,12 h6 M44,12 h6 M51,12 h6 M59,12 h4 M65,12 h2 M69,12 h2 M72,12 h2 M76,12 h2 
    M79,12 h2 M84,12 h2 M91,12 h2 M96,12 h6 M103,12 h6 M110,12 h6 M118,12 h2 M14,15 h6 
    M21,15 h6 M28,15 h2 M35,15 h6 M43,15 h4 M49,15 h5 M57,15 h4 M63,15 h2 M68,15 h2 
    M16,16 h2 M21,16 h2 M28,16 h2 M35,16 h2 M42,16 h2 M46,16 h2 M49,16 h2 M53,16 h2 
    M56,16 h6 M63,16 h3 M67,16 h3 M16,17 h2 M21,17 h2 M28,17 h2 M35,17 h2 M42,17 h2 
    M49,17 h2 M53,17 h2 M56,17 h2 M60,17 h2 M63,17 h7 M16,18 h2 M21,18 h4 M28,18 h2 
    M35,18 h4 M42,18 h2 M45,18 h3 M49,18 h5 M56,18 h6 M63,18 h2 M66,18 h1 M68,18 h2 
    M16,19 h2 M21,19 h2 M28,19 h2 M35,19 h2 M42,19 h2 M46,19 h2 M49,19 h2 M52,19 h2 
    M56,19 h2 M60,19 h2 M63,19 h2 M68,19 h2 M16,20 h2 M21,20 h2 M28,20 h2 M35,20 h2 
    M42,20 h2 M46,20 h2 M49,20 h2 M53,20 h2 M56,20 h2 M60,20 h2 M63,20 h2 M68,20 h2 
    M16,21 h2 M21,21 h6 M28,21 h6 M35,21 h6 M43,21 h4 M49,21 h2 M53,21 h2 M56,21 h2 
    M60,21 h2 M63,21 h2 M68,21 h2 M2,24 h6 M10,24 h4 M16,24 h5 M24,24 h4 M30,24 h2 
    M35,24 h2 M40,24 h6 M47,24 h6 M54,24 h2 M61,24 h6 M69,24 h4 M75,24 h5 M83,24 h4 
    M89,24 h2 M94,24 h2 M99,24 h6 M106,24 h6 M113,24 h2 M2,25 h2 M9,25 h2 M13,25 h2 
    M16,25 h2 M20,25 h2 M23,25 h6 M30,25 h3 M34,25 h3 M42,25 h2 M47,25 h2 M54,25 h2 
    M61,25 h2 M68,25 h2 M72,25 h2 M75,25 h2 M79,25 h2 M82,25 h6 M89,25 h3 M93,25 h3 
    M101,25 h2 M106,25 h2 M113,25 h2 M2,26 h2 M9,26 h2 M16,26 h2 M20,26 h2 M23,26 h2 
    M27,26 h2 M30,26 h7 M42,26 h2 M47,26 h2 M54,26 h2 M61,26 h2 M68,26 h2 M75,26 h2 
    M79,26 h2 M82,26 h2 M86,26 h2 M89,26 h7 M101,26 h2 M106,26 h2 M113,26 h2 M2,27 h4 
    M9,27 h2 M12,27 h3 M16,27 h5 M23,27 h6 M30,27 h2 M33,27 h1 M35,27 h2 M42,27 h2 
    M47,27 h4 M54,27 h2 M68,27 h2 M71,27 h3 M75,27 h5 M82,27 h6 M89,27 h2 M92,27 h1 
    M94,27 h2 M101,27 h2 M106,27 h4 M113,27 h2 M2,28 h2 M9,28 h2 M13,28 h2 M16,28 h2 
    M19,28 h2 M23,28 h2 M27,28 h2 M30,28 h2 M35,28 h2 M42,28 h2 M68,28 h2 M76,28 h1 
    M78,28 h2 M82,28 h2 M86,28 h2 M89,28 h2 M94,28 h2 M101,28 h2 M106,28 h2 M113,28 h2 
    M2,29 h2 M9,29 h2 M13,29 h2 M16,29 h2 M20,29 h2 M23,29 h2 M27,29 h2 M30,29 h2 
    M35,29 h2 M42,29 h1 M79,29 h2 M82,29 h2 M86,29 h2 M89,29 h2 M94,29 h2 M101,29 h2 
    M106,29 h2 M113,29 h2 M0,30 h1 M2,30 h6 M10,30 h4 M16,30 h2 M20,30 h2 M23,30 h2 
    M27,30 h2 M30,30 h2 M35,30 h2 M42,30 h1 M79,30 h2 M82,30 h2 M86,30 h2 M89,30 h2 
    M94,30 h2 M101,30 h2 M106,30 h6 M113,30 h6 M0,33 h5 M8,33 h4 M14,33 h2 M19,33 h2 
    M24,33 h6 M31,33 h6 M38,33 h2 M78,33 h2 M0,34 h2 M4,34 h2 M7,34 h6 M14,34 h3 
    M18,34 h3 M26,34 h2 M31,34 h2 M38,34 h2 M78,34 h2 M0,35 h2 M4,35 h2 M7,35 h2 
    M11,35 h2 M14,35 h7 M26,35 h2 M31,35 h2 M38,35 h2 M78,35 h2 M0,36 h5 M7,36 h6 
    M14,36 h2 M17,36 h1 M19,36 h2 M26,36 h2 M31,36 h4 M38,36 h2 M78,36 h2 M0,37 h2 
    M3,37 h2 M7,37 h2 M11,37 h2 M14,37 h2 M19,37 h2 M26,37 h2 M31,37 h2 M38,37 h2 
    M78,37 h2 M0,38 h2 M4,38 h2 M7,38 h2 M11,38 h2 M14,38 h2 M19,38 h2 M26,38 h2 
    M31,38 h2 M38,38 h2 M79,38 h1 M0,39 h2 M4,39 h2 M7,39 h2 M11,39 h2 M14,39 h2 
    M19,39 h2 M26,39 h2 M31,39 h6 M38,39 h4 M79,39 h1 M81,42 h3 M86,42 h5 M94,42 h4 
    M100,42 h2 M105,42 h2 M110,42 h6 M117,42 h3 M83,43 h2 M86,43 h2 M90,43 h2 M93,43 h6 
    M100,43 h3 M104,43 h3 M112,43 h2 M117,43 h2 M86,44 h2 M90,44 h2 M93,44 h2 M97,44 h2 
    M100,44 h7 M112,44 h2 M117,44 h2 M82,45 h3 M86,45 h5 M93,45 h6 M100,45 h2 M103,45 h1 
    M105,45 h2 M112,45 h2 M117,45 h3 M83,46 h2 M86,46 h2 M89,46 h2 M93,46 h2 M97,46 h2 
    M100,46 h2 M105,46 h2 M112,46 h2 M117,46 h2 M83,47 h2 M86,47 h2 M90,47 h2 M93,47 h2 
    M97,47 h2 M100,47 h2 M105,47 h2 M112,47 h2 M117,47 h2 M83,48 h1 M86,48 h2 M90,48 h2 
    M93,48 h2 M97,48 h2 M100,48 h2 M105,48 h2 M112,48 h2 M117,48 h3 M1,51 h6 M9,51 h4 
    M15,51 h5 M23,51 h4 M29,51 h2 M34,51 h2 M98,51 h6 M105,51 h6 M112,51 h2 M119,51 h1 
    M1,52 h2 M8,52 h2 M12,52 h2 M15,52 h2 M19,52 h2 M22,52 h6 M29,52 h3 M33,52 h2 
    M100,52 h2 M105,52 h2 M112,52 h2 M119,52 h1 M1,53 h2 M8,53 h2 M15,53 h2 M19,53 h2 
    M22,53 h2 M26,53 h2 M29,53 h5 M100,53 h2 M105,53 h2 M112,53 h2 M119,53 h1 M1,54 h4 
    M8,54 h2 M11,54 h3 M15,54 h5 M22,54 h6 M29,54 h2 M32,54 h1 M100,54 h2 M105,54 h4 
    M112,54 h2 M119,54 h1 M1,55 h2 M8,55 h2 M12,55 h2 M15,55 h2 M18,55 h2 M22,55 h2 
    M26,55 h2 M29,55 h2 M100,55 h2 M105,55 h2 M112,55 h2 M119,55 h1 M1,56 h2 M8,56 h2 
    M12,56 h2 M15,56 h2 M19,56 h2 M22,56 h2 M26,56 h2 M29,56 h2 M100,56 h2 M105,56 h2 
    M112,56 h2 M119,56 h1 M1,57 h6 M9,57 h4 M15,57 h2 M19,57 h2 M22,57 h2 M26,57 h2 
    M29,57 h2 M100,57 h2 M105,57 h6 M112,57 h6 M119,57 h1 M15,60 h6 M22,60 h6 M29,60 h2 
    M113,60 h6 M17,61 h2 M22,61 h2 M29,61 h2 M115,61 h2 M17,62 h2 M22,62 h2 M29,62 h2 
    M115,62 h2 M17,63 h2 M22,63 h4 M29,63 h2 M115,63 h2 M17,64 h2 M22,64 h2 M29,64 h2 
    M115,64 h2 M17,65 h2 M22,65 h2 M29,65 h2 M115,65 h2 M17,66 h2 M22,66 h6 M29,66 h4 
    M115,66 h2 M88,69 h3 M94,69 h4 M100,69 h2 M105,69 h2 M90,70 h2 M93,70 h6 M100,70 h3 
    M104,70 h3 M90,71 h2 M93,71 h2 M97,71 h2 M100,71 h7 M89,72 h2 M93,72 h6 M100,72 h2 
    M103,72 h1 M105,72 h2 M89,73 h2 M93,73 h2 M97,73 h2 M100,73 h2 M105,73 h2 M90,74 h2 
    M93,74 h2 M97,74 h2 M100,74 h2 M105,74 h2 M90,75 h2 M93,75 h2 M97,75 h2 M100,75 h2 
    M105,75 h2"/>
  <path stroke="#2a3b4a" d="M1,0 h3 M8,0 h3 M13,0 h5 M22,0 h3 M27,0 h1 M31,0 h1 
    M37,0 h2 M45,0 h1 M48,0 h1 M50,0 h1 M53,0 h5 M60,0 h3 M67,0 h3 M72,0 h5 M81,0 h3 
    M86,0 h1 M90,0 h1 M96,0 h2 M104,0 h1 M107,0 h1 M109,0 h1 M112,0 h8 M1,1 h3 
    M6,1 h5 M13,1 h5 M20,1 h5 M27,1 h2 M31,1 h1 M34,1 h1 M37,1 h2 M41,1 h2 M45,1 h1 
    M48,1 h3 M53,1 h5 M60,1 h3 M65,1 h5 M72,1 h5 M79,1 h5 M86,1 h2 M90,1 h1 M93,1 h1 
    M96,1 h2 M100,1 h2 M104,1 h1 M107,1 h3 M112,1 h8 M1,2 h3 M6,2 h5 M13,2 h5 M20,2 h5 
    M27,2 h2 M31,2 h1 M34,2 h2 M38,2 h1 M41,2 h2 M45,2 h1 M48,2 h3 M53,2 h5 M60,2 h3 
    M65,2 h5 M72,2 h5 M79,2 h5 M86,2 h2 M90,2 h1 M93,2 h2 M97,2 h1 M100,2 h2 M104,2 h1 
    M107,2 h3 M112,2 h8 M1,3 h3 M10,3 h1 M17,3 h1 M24,3 h2 M30,3 h2 M34,3 h2 M38,3 h1 
    M41,3 h2 M45,3 h1 M48,3 h3 M53,3 h5 M60,3 h3 M69,3 h1 M76,3 h1 M83,3 h2 M89,3 h2 
    M93,3 h2 M97,3 h1 M100,3 h2 M104,3 h1 M107,3 h3 M112,3 h8 M0,4 h120 M0,5 h120 
    M0,6 h30 M36,6 h1 M43,6 h1 M46,6 h5 M57,6 h2 M63,6 h2 M70,6 h3 M77,6 h2 M81,6 h3 
    M86,6 h3 M95,6 h1 M102,6 h1 M105,6 h5 M116,6 h2 M0,7 h32 M34,7 h3 M39,7 h5 
    M46,7 h5 M53,7 h5 M60,7 h2 M64,7 h1 M67,7 h2 M71,7 h1 M78,7 h1 M82,7 h1 M86,7 h5 
    M93,7 h3 M98,7 h5 M105,7 h5 M112,7 h5 M119,7 h1 M0,8 h32 M34,8 h3 M39,8 h5 
    M46,8 h5 M53,8 h5 M60,8 h5 M67,8 h2 M71,8 h1 M74,8 h2 M78,8 h1 M86,8 h5 M93,8 h3 
    M98,8 h5 M105,8 h5 M112,8 h5 M119,8 h1 M0,9 h32 M34,9 h3 M41,9 h3 M46,9 h5 
    M55,9 h3 M60,9 h1 M64,9 h1 M70,9 h2 M78,9 h1 M81,9 h1 M83,9 h1 M86,9 h5 M93,9 h3 
    M100,9 h3 M105,9 h5 M114,9 h3 M119,9 h1 M0,10 h32 M34,10 h3 M39,10 h5 M46,10 h5 
    M53,10 h5 M60,10 h2 M64,10 h1 M67,10 h1 M70,10 h2 M74,10 h2 M78,10 h1 M81,10 h3 
    M86,10 h5 M93,10 h3 M98,10 h5 M105,10 h5 M112,10 h5 M119,10 h1 M0,11 h32 M34,11 h3 
    M39,11 h5 M46,11 h5 M53,11 h5 M60,11 h2 M64,11 h1 M67,11 h2 M71,11 h1 M74,11 h2 
    M78,11 h1 M81,11 h3 M86,11 h5 M93,11 h3 M98,11 h5 M105,11 h5 M112,11 h5 M119,11 h1 
    M0,12 h32 M34,12 h3 M43,12 h1 M50,12 h1 M57,12 h2 M63,12 h2 M67,12 h2 M71,12 h1 
    M74,12 h2 M78,12 h1 M81,12 h3 M86,12 h5 M93,12 h3 M102,12 h1 M109,12 h1 M116,12 h2 
    M0,13 h120 M0,14 h120 M0,15 h14 M20,15 h1 M27,15 h1 M30,15 h5 M41,15 h2 M47,15 h2 
    M54,15 h3 M61,15 h2 M65,15 h3 M70,15 h50 M0,16 h16 M18,16 h3 M23,16 h5 M30,16 h5 
    M37,16 h5 M44,16 h2 M48,16 h1 M51,16 h2 M55,16 h1 M62,16 h1 M66,16 h1 M70,16 h50 
    M0,17 h16 M18,17 h3 M23,17 h5 M30,17 h5 M37,17 h5 M44,17 h5 M51,17 h2 M55,17 h1 
    M58,17 h2 M62,17 h1 M70,17 h50 M0,18 h16 M18,18 h3 M25,18 h3 M30,18 h5 M39,18 h3 
    M44,18 h1 M48,18 h1 M54,18 h2 M62,18 h1 M65,18 h1 M67,18 h1 M70,18 h50 M0,19 h16 
    M18,19 h3 M23,19 h5 M30,19 h5 M37,19 h5 M44,19 h2 M48,19 h1 M51,19 h1 M54,19 h2 
    M58,19 h2 M62,19 h1 M65,19 h3 M70,19 h50 M0,20 h16 M18,20 h3 M23,20 h5 M30,20 h5 
    M37,20 h5 M44,20 h2 M48,20 h1 M51,20 h2 M55,20 h1 M58,20 h2 M62,20 h1 M65,20 h3 
    M70,20 h50 M0,21 h16 M18,21 h3 M27,21 h1 M34,21 h1 M41,21 h2 M47,21 h2 M51,21 h2 
    M55,21 h1 M58,21 h2 M62,21 h1 M65,21 h3 M70,21 h50 M0,22 h120 M0,23 h120 M0,24 h2 
    M8,24 h2 M14,24 h2 M21,24 h3 M28,24 h2 M32,24 h3 M37,24 h3 M46,24 h1 M53,24 h1 
    M56,24 h5 M67,24 h2 M73,24 h2 M80,24 h3 M87,24 h2 M91,24 h3 M96,24 h3 M105,24 h1 
    M112,24 h1 M115,24 h5 M0,25 h2 M4,25 h5 M11,25 h2 M15,25 h1 M18,25 h2 M22,25 h1 
    M29,25 h1 M33,25 h1 M37,25 h5 M44,25 h3 M49,25 h5 M56,25 h5 M63,25 h5 M70,25 h2 
    M74,25 h1 M77,25 h2 M81,25 h1 M88,25 h1 M92,25 h1 M96,25 h5 M103,25 h3 M108,25 h5 
    M115,25 h5 M0,26 h2 M4,26 h5 M11,26 h5 M18,26 h2 M22,26 h1 M25,26 h2 M29,26 h1 
    M37,26 h5 M44,26 h3 M49,26 h5 M56,26 h5 M63,26 h5 M70,26 h5 M77,26 h2 M81,26 h1 
    M84,26 h2 M88,26 h1 M96,26 h5 M103,26 h3 M108,26 h5 M115,26 h5 M0,27 h2 M6,27 h3 
    M11,27 h1 M15,27 h1 M21,27 h2 M29,27 h1 M32,27 h1 M34,27 h1 M37,27 h5 M44,27 h3 
    M51,27 h3 M56,27 h1 M67,27 h1 M70,27 h1 M74,27 h1 M80,27 h2 M88,27 h1 M91,27 h1 
    M93,27 h1 M96,27 h5 M103,27 h3 M110,27 h3 M115,27 h5 M0,28 h2 M4,28 h5 M11,28 h2 
    M15,28 h1 M18,28 h1 M21,28 h2 M25,28 h2 M29,28 h1 M32,28 h3 M37,28 h5 M49,28 h5 
    M70,28 h1 M77,28 h1 M80,28 h2 M84,28 h2 M88,28 h1 M91,28 h3 M96,28 h5 M103,28 h3 
    M108,28 h5 M115,28 h5 M0,29 h2 M4,29 h5 M11,29 h2 M15,29 h1 M18,29 h2 M22,29 h1 
    M25,29 h2 M29,29 h1 M32,29 h3 M37,29 h5 M77,29 h2 M81,29 h1 M84,29 h2 M88,29 h1 
    M91,29 h3 M96,29 h5 M103,29 h3 M108,29 h5 M115,29 h5 M1,30 h1 M8,30 h2 M14,30 h2 
    M18,30 h2 M22,30 h1 M25,30 h2 M29,30 h1 M32,30 h3 M37,30 h5 M78,30 h1 M81,30 h1 
    M84,30 h2 M88,30 h1 M91,30 h3 M96,30 h5 M103,30 h3 M112,30 h1 M119,30 h1 M0,31 h43 
    M78,31 h42 M0,32 h43 M78,32 h42 M5,33 h3 M12,33 h2 M16,33 h3 M21,33 h3 M30,33 h1 
    M37,33 h1 M40,33 h3 M80,33 h40 M2,34 h2 M6,34 h1 M13,34 h1 M17,34 h1 M21,34 h5 
    M28,34 h3 M33,34 h5 M40,34 h3 M77,34 h1 M80,34 h40 M2,35 h2 M6,35 h1 M9,35 h2 
    M13,35 h1 M21,35 h5 M28,35 h3 M33,35 h5 M40,35 h3 M77,35 h1 M80,35 h40 M5,36 h2 
    M13,36 h1 M16,36 h1 M18,36 h1 M21,36 h5 M28,36 h3 M35,36 h3 M40,36 h3 M80,36 h40 
    M2,37 h1 M5,37 h2 M9,37 h2 M13,37 h1 M16,37 h3 M21,37 h5 M28,37 h3 M33,37 h5 
    M40,37 h2 M80,37 h40 M2,38 h2 M6,38 h1 M9,38 h2 M13,38 h1 M16,38 h3 M21,38 h5 
    M28,38 h3 M33,38 h5 M40,38 h2 M78,38 h1 M80,38 h40 M2,39 h2 M6,39 h1 M9,39 h2 
    M13,39 h1 M16,39 h3 M21,39 h5 M28,39 h3 M37,39 h1 M78,39 h1 M80,39 h40 M0,40 h41 
    M79,40 h41 M0,41 h40 M80,41 h40 M0,42 h40 M80,42 h1 M84,42 h2 M91,42 h3 M98,42 h2 
    M102,42 h3 M107,42 h3 M116,42 h1 M0,43 h39 M81,43 h2 M85,43 h1 M88,43 h2 M92,43 h1 
    M99,43 h1 M103,43 h1 M107,43 h5 M114,43 h3 M119,43 h1 M0,44 h39 M82,44 h4 M88,44 h2 
    M92,44 h1 M95,44 h2 M99,44 h1 M107,44 h5 M114,44 h3 M119,44 h1 M0,45 h38 M85,45 h1 
    M91,45 h2 M99,45 h1 M102,45 h1 M104,45 h1 M107,45 h5 M114,45 h3 M0,46 h38 M85,46 h1 
    M88,46 h1 M91,46 h2 M95,46 h2 M99,46 h1 M102,46 h3 M107,46 h5 M114,46 h3 M119,46 h1 
    M0,47 h38 M85,47 h1 M88,47 h2 M92,47 h1 M95,47 h2 M99,47 h1 M102,47 h3 M107,47 h5 
    M114,47 h3 M119,47 h1 M0,48 h38 M82,48 h1 M84,48 h2 M88,48 h2 M92,48 h1 M95,48 h2 
    M99,48 h1 M102,48 h3 M107,48 h5 M114,48 h3 M0,49 h37 M83,49 h37 M0,50 h37 M84,50 h36 
    M0,51 h1 M7,51 h2 M13,51 h2 M20,51 h3 M27,51 h2 M31,51 h3 M84,51 h14 M104,51 h1 
    M111,51 h1 M114,51 h5 M0,52 h1 M3,52 h5 M10,52 h2 M14,52 h1 M17,52 h2 M21,52 h1 
    M28,52 h1 M32,52 h1 M85,52 h15 M102,52 h3 M107,52 h5 M114,52 h5 M0,53 h1 M3,53 h5 
    M10,53 h5 M17,53 h2 M21,53 h1 M24,53 h2 M28,53 h1 M86,53 h14 M102,53 h3 M107,53 h5 
    M114,53 h5 M0,54 h1 M5,54 h3 M10,54 h1 M14,54 h1 M20,54 h2 M28,54 h1 M31,54 h1 
    M33,54 h1 M87,54 h13 M102,54 h3 M109,54 h3 M114,54 h5 M0,55 h1 M3,55 h5 M10,55 h2 
    M14,55 h1 M17,55 h1 M20,55 h2 M24,55 h2 M28,55 h1 M31,55 h3 M87,55 h13 M102,55 h3 
    M107,55 h5 M114,55 h5 M0,56 h1 M3,56 h5 M10,56 h2 M14,56 h1 M17,56 h2 M21,56 h1 
    M24,56 h2 M28,56 h1 M31,56 h3 M87,56 h13 M102,56 h3 M107,56 h5 M114,56 h5 M0,57 h1 
    M7,57 h2 M13,57 h2 M17,57 h2 M21,57 h1 M24,57 h2 M28,57 h1 M31,57 h3 M87,57 h13 
    M102,57 h3 M111,57 h1 M118,57 h1 M0,58 h34 M87,58 h33 M0,59 h33 M87,59 h33 
    M0,60 h15 M21,60 h1 M28,60 h1 M31,60 h2 M88,60 h25 M119,60 h1 M0,61 h17 M19,61 h3 
    M24,61 h5 M31,61 h2 M88,61 h27 M117,61 h3 M0,62 h17 M19,62 h3 M24,62 h5 M31,62 h2 
    M88,62 h27 M117,62 h3 M0,63 h17 M19,63 h3 M26,63 h3 M31,63 h2 M88,63 h27 M117,63 h3 
    M0,64 h17 M19,64 h3 M24,64 h5 M31,64 h2 M88,64 h27 M117,64 h3 M0,65 h17 M19,65 h3 
    M24,65 h5 M31,65 h2 M88,65 h27 M117,65 h3 M0,66 h17 M19,66 h3 M28,66 h1 M88,66 h27 
    M117,66 h3 M0,67 h33 M88,67 h32 M0,68 h33 M88,68 h32 M0,69 h33 M87,69 h1 M91,69 h3 
    M98,69 h2 M102,69 h3 M107,69 h13 M0,70 h32 M88,70 h2 M92,70 h1 M99,70 h1 M103,70 h1 
    M107,70 h13 M0,71 h32 M89,71 h1 M92,71 h1 M95,71 h2 M99,71 h1 M107,71 h13 M0,72 h32 
    M88,72 h1 M91,72 h2 M99,72 h1 M102,72 h1 M104,72 h1 M107,72 h13 M0,73 h31 M91,73 h2 
    M95,73 h2 M99,73 h1 M102,73 h3 M107,73 h13 M0,74 h31 M92,74 h1 M95,74 h2 M99,74 h1 
    M102,74 h3 M107,74 h13 M0,75 h31 M92,75 h1 M95,75 h2 M99,75 h1 M102,75 h3 M107,75 h13 
    M0,76 h31 M90,76 h30 M0,77 h31 M90,77 h30 M0,78 h31 M90,78 h30 M0,79 h31 M90,79 h30 
    M0,80 h31 M90,80 h30 M0,81 h31 M90,81 h30 M0,82 h31 M90,82 h30 M0,83 h32 M90,83 h30 
    M0,84 h32 M89,84 h31 M0,85 h33 M89,85 h31 M0,86 h34 M88,86 h32 M0,87 h35 M87,87 h33 
    M0,88 h36 M86,88 h34 M0,89 h36 M85,89 h35 M0,90 h36 M85,90 h35 M0,91 h36 M85,91 h35 
    M0,92 h36 M85,92 h35 M0,93 h37 M85,93 h35 M0,94 h38 M51,94 h20 M84,94 h36 M0,95 h39 
    M49,95 h24 M83,95 h37 M0,96 h120 M0,97 h120 M0,98 h120 M0,99 h120 M0,100 h120 
    M0,101 h120 M0,102 h120 M0,103 h120 M0,104 h120 M0,105 h120 M0,106 h120 M0,107 h120 
    M0,108 h120 M0,109 h120 M0,110 h120 M0,111 h120 M0,112 h120 M0,113 h120 M0,114 h120 
    M0,115 h120 M0,116 h120 M0,117 h120 M0,118 h120 M0,119 h120"/>
  <path stroke="#ffffff" d="M57,27 h10 M44,28 h5 M54,28 h4 M66,28 h2 M71,28 h5 
    M43,29 h2 M48,29 h7 M67,29 h5 M75,29 h2 M43,30 h1 M52,30 h1 M76,30 h1 M43,31 h1 
    M76,31 h1 M43,32 h1 M76,32 h1 M43,33 h1 M76,33 h1 M43,34 h1 M76,34 h1 M43,35 h1 
    M76,35 h1 M43,36 h1 M76,36 h1 M42,37 h2 M76,37 h2 M42,38 h1 M77,38 h1 M42,39 h1 
    M77,39 h1 M41,40 h2 M77,40 h2 M40,41 h2 M78,41 h2 M40,42 h1 M79,42 h1 M39,43 h2 
    M79,43 h2 M39,44 h1 M80,44 h1 M38,45 h2 M80,45 h2 M38,46 h1 M81,46 h1 M38,47 h1 
    M81,47 h1 M38,48 h1 M81,48 h1 M37,49 h2 M81,49 h2 M37,50 h1 M82,50 h1 M36,51 h2 
    M82,51 h2 M35,52 h2 M83,52 h2 M34,53 h2 M84,53 h2 M34,54 h1 M85,54 h1 M34,55 h1 
    M85,55 h1 M34,56 h1 M85,56 h1 M34,57 h1 M85,57 h1 M34,58 h1 M85,58 h1 M33,59 h2 
    M85,59 h2 M33,60 h1 M86,60 h1 M33,61 h1 M86,61 h1 M33,62 h1 M86,62 h1 M33,63 h1 
    M86,63 h1 M33,64 h1 M86,64 h1 M33,65 h1 M86,65 h1 M33,66 h2 M85,66 h2 M33,67 h2 
    M85,67 h2 M33,68 h1 M86,68 h1 M33,69 h1 M86,69 h1 M32,70 h2 M86,70 h2 M32,71 h1 
    M87,71 h1 M32,72 h1 M87,72 h1 M31,73 h2 M87,73 h2 M31,74 h1 M88,74 h1 M31,75 h1 
    M88,75 h1 M31,76 h1 M88,76 h1 M31,77 h1 M88,77 h1 M31,78 h1 M88,78 h1 M31,79 h1 
    M88,79 h1 M31,80 h1 M88,80 h1 M31,81 h1 M88,81 h1 M31,82 h2 M87,82 h2 M32,83 h1 
    M87,83 h1 M32,84 h2 M86,84 h2 M33,85 h2 M85,85 h2 M34,86 h2 M84,86 h2 M35,87 h2 
    M83,87 h2 M36,88 h1 M83,88 h1 M36,89 h1 M83,89 h1 M36,90 h1 M83,90 h1 M36,91 h1 
    M83,91 h1 M36,92 h2 M49,92 h22 M82,92 h2 M37,93 h2 M47,93 h3 M70,93 h3 M81,93 h2 
    M38,94 h10 M72,94 h10"/>
  <path stroke="#211d25" d="M58,28 h8 M55,29 h4 M63,29 h1 M66,29 h1 M53,30 h2 M58,30 h1 
    M64,30 h1 M67,30 h2 M77,30 h1 M51,31 h2 M58,31 h1 M64,31 h1 M69,31 h1 M77,31 h1 
    M50,32 h2 M53,32 h1 M59,32 h1 M65,32 h1 M69,32 h1 M77,32 h1 M49,33 h1 M53,33 h1 
    M60,33 h1 M66,33 h1 M70,33 h1 M77,33 h1 M49,34 h1 M53,34 h1 M60,34 h1 M66,34 h1 
    M70,34 h1 M49,35 h2 M54,35 h2 M60,35 h1 M66,35 h1 M71,35 h1 M48,36 h1 M51,36 h1 
    M56,36 h1 M61,36 h2 M65,36 h1 M68,36 h1 M70,36 h1 M77,36 h1 M49,37 h2 M52,37 h5 
    M63,37 h5 M69,37 h2 M57,38 h6 M81,44 h1 M82,46 h1 M82,47 h1 M39,49 h1 M80,49 h1 
    M38,50 h1 M40,50 h2 M78,50 h2 M81,50 h1 M83,50 h1 M38,51 h1 M42,51 h1 M77,51 h1 
    M81,51 h1 M37,52 h1 M43,52 h1 M76,52 h1 M82,52 h1 M36,53 h1 M44,53 h1 M75,53 h1 
    M83,53 h1 M35,54 h1 M45,54 h1 M74,54 h1 M84,54 h1 M86,54 h1 M35,55 h1 M46,55 h3 
    M71,55 h3 M84,55 h1 M86,55 h1 M35,56 h1 M49,56 h3 M68,56 h3 M84,56 h1 M86,56 h1 
    M35,57 h1 M51,57 h1 M68,57 h1 M84,57 h1 M86,57 h1 M35,58 h1 M52,58 h2 M66,58 h2 
    M84,58 h1 M86,58 h1 M35,59 h1 M54,59 h2 M64,59 h2 M84,59 h1 M34,60 h1 M56,60 h8 
    M85,60 h1 M87,60 h1 M34,61 h1 M43,61 h1 M76,61 h1 M85,61 h1 M87,61 h1 M34,62 h1 
    M41,62 h3 M76,62 h3 M85,62 h1 M87,62 h1 M34,63 h1 M37,63 h4 M79,63 h4 M85,63 h1 
    M87,63 h1 M34,64 h3 M83,64 h3 M87,64 h1 M34,65 h1 M85,65 h1 M87,65 h1 M35,66 h1 
    M84,66 h1 M87,66 h1 M35,67 h1 M84,67 h1 M87,67 h1 M34,68 h1 M36,68 h1 M83,68 h1 
    M85,68 h1 M87,68 h1 M34,69 h1 M37,69 h1 M82,69 h1 M85,69 h1 M34,70 h1 M38,70 h1 
    M50,70 h1 M69,70 h1 M81,70 h1 M85,70 h1 M33,71 h1 M39,71 h2 M49,71 h1 M70,71 h1 
    M79,71 h2 M86,71 h1 M88,71 h1 M33,72 h1 M41,72 h3 M47,72 h2 M71,72 h2 M76,72 h3 
    M86,72 h1 M33,73 h5 M44,73 h3 M73,73 h3 M82,73 h5 M38,74 h3 M79,74 h3 M89,74 h1 
    M41,75 h1 M78,75 h1 M89,75 h1 M42,76 h1 M77,76 h1 M89,76 h1 M43,77 h2 M75,77 h2 
    M89,77 h1 M45,78 h8 M67,78 h8 M89,78 h1 M53,79 h14 M89,79 h1 M89,80 h1 M89,81 h1 
    M89,82 h1 M88,83 h2 M88,84 h1 M87,85 h2 M86,86 h2 M85,87 h2 M84,88 h2 M84,89 h1 
    M84,90 h1 M84,91 h1 M84,92 h1 M50,93 h20 M83,93 h2 M48,94 h3 M71,94 h1 M82,94 h2 
    M39,95 h10 M73,95 h10"/>
  <path stroke="#413d42" d="M45,29 h3 M60,29 h1 M64,29 h1 M72,29 h3 M44,30 h1 M48,30 h4 
    M55,30 h1 M59,30 h1 M69,30 h3 M75,30 h1 M44,31 h1 M53,31 h1 M60,31 h1 M62,31 h1 
    M65,31 h1 M75,31 h1 M44,32 h1 M52,32 h1 M54,32 h1 M60,32 h2 M66,32 h1 M68,32 h1 
    M75,32 h1 M44,33 h1 M55,33 h1 M59,33 h1 M62,33 h1 M65,33 h1 M67,33 h1 M69,33 h1 
    M75,33 h1 M44,34 h1 M50,34 h1 M52,34 h1 M54,34 h1 M56,34 h2 M61,34 h3 M67,34 h1 
    M75,34 h1 M44,35 h1 M51,35 h1 M56,35 h1 M61,35 h2 M65,35 h1 M68,35 h1 M70,35 h1 
    M75,35 h1 M44,36 h1 M49,36 h2 M53,36 h3 M57,36 h1 M60,36 h1 M63,36 h2 M66,36 h2 
    M69,36 h1 M75,36 h1 M44,37 h1 M57,37 h2 M61,37 h2 M75,37 h1 M43,38 h1 M76,38 h1 
    M43,39 h1 M76,39 h1 M43,40 h1 M76,40 h1 M42,41 h1 M77,41 h1 M41,42 h1 M78,42 h1 
    M41,43 h1 M78,43 h1 M40,44 h1 M79,44 h1 M40,45 h1 M79,45 h1 M39,46 h1 M80,46 h1 
    M39,47 h1 M80,47 h1 M39,48 h1 M59,48 h2 M80,48 h1 M59,49 h1 M39,50 h1 M54,50 h1 
    M65,50 h1 M80,50 h1 M39,51 h3 M56,51 h2 M62,51 h2 M78,51 h3 M38,52 h5 M77,52 h5 
    M37,53 h1 M39,53 h1 M41,53 h3 M76,53 h3 M80,53 h1 M82,53 h1 M36,54 h1 M38,54 h1 
    M40,54 h1 M42,54 h1 M44,54 h1 M75,54 h1 M77,54 h1 M79,54 h1 M81,54 h1 M83,54 h1 
    M36,55 h3 M43,55 h2 M75,55 h2 M81,55 h3 M36,56 h3 M40,56 h1 M42,56 h1 M45,56 h4 
    M52,56 h16 M71,56 h4 M77,56 h1 M79,56 h1 M81,56 h3 M36,57 h2 M39,57 h3 M44,57 h1 
    M46,57 h2 M49,57 h2 M69,57 h2 M72,57 h2 M75,57 h1 M78,57 h3 M82,57 h2 M36,58 h3 
    M40,58 h1 M42,58 h1 M48,58 h4 M68,58 h4 M77,58 h1 M79,58 h1 M81,58 h3 M36,59 h2 
    M39,59 h1 M41,59 h1 M47,59 h1 M51,59 h3 M66,59 h3 M78,59 h1 M80,59 h1 M82,59 h2 
    M35,60 h3 M40,60 h2 M46,60 h1 M48,60 h1 M53,60 h1 M55,60 h1 M64,60 h1 M66,60 h1 
    M78,60 h2 M82,60 h3 M35,61 h3 M41,61 h2 M52,61 h1 M54,61 h12 M77,61 h1 M82,61 h3 
    M35,62 h6 M44,62 h1 M53,62 h1 M58,62 h1 M61,62 h1 M75,62 h1 M79,62 h6 M35,63 h2 
    M45,63 h3 M58,63 h1 M61,63 h1 M83,63 h2 M48,64 h1 M58,64 h1 M49,65 h1 M58,65 h1 
    M50,66 h1 M57,66 h1 M51,67 h4 M35,68 h1 M51,68 h1 M84,68 h1 M35,69 h2 M51,69 h1 
    M83,69 h2 M35,70 h3 M51,70 h1 M68,70 h1 M82,70 h3 M34,71 h5 M50,71 h2 M58,71 h1 
    M61,71 h1 M68,71 h2 M81,71 h5 M34,72 h4 M39,72 h1 M49,72 h1 M58,72 h1 M61,72 h1 
    M70,72 h1 M80,72 h1 M82,72 h4 M38,73 h1 M40,73 h1 M42,73 h2 M48,73 h3 M54,73 h4 
    M62,73 h4 M69,73 h3 M76,73 h2 M79,73 h1 M81,73 h1 M32,74 h1 M41,74 h1 M43,74 h3 
    M47,74 h1 M51,74 h2 M67,74 h2 M72,74 h1 M74,74 h3 M78,74 h1 M87,74 h1 M32,75 h1 
    M42,75 h2 M46,75 h1 M58,75 h1 M61,75 h1 M73,75 h1 M76,75 h2 M87,75 h1 M32,76 h1 
    M43,76 h1 M58,76 h1 M61,76 h1 M76,76 h1 M87,76 h1 M32,77 h1 M45,77 h1 M47,77 h3 
    M55,77 h3 M62,77 h3 M69,77 h4 M74,77 h1 M87,77 h1 M32,78 h1 M53,78 h1 M66,78 h1 
    M87,78 h1 M32,79 h1 M43,79 h1 M76,79 h1 M87,79 h1 M32,80 h1 M43,80 h1 M76,80 h1 
    M87,80 h1 M32,81 h1 M43,81 h1 M76,81 h1 M87,81 h1 M33,82 h1 M44,82 h1 M75,82 h1 
    M86,82 h1 M33,83 h1 M86,83 h1 M34,84 h1 M85,84 h1 M35,85 h1 M84,85 h1 M36,86 h1 
    M41,86 h1 M78,86 h1 M83,86 h1 M37,87 h4 M79,87 h4 M37,88 h1 M47,88 h1 M72,88 h1 
    M82,88 h1 M37,89 h1 M48,89 h1 M71,89 h1 M82,89 h1 M37,90 h1 M48,90 h1 M71,90 h1 
    M82,90 h1 M37,91 h1 M48,91 h24 M82,91 h1 M38,92 h1 M47,92 h2 M71,92 h2 M81,92 h1 
    M39,93 h8 M73,93 h8"/>
  <path stroke="#5c5b63" d="M59,29 h1 M61,29 h2 M65,29 h1 M56,30 h2 M60,30 h4 M65,30 h2 
    M54,31 h4 M59,31 h1 M61,31 h1 M63,31 h1 M66,31 h3 M55,32 h4 M62,32 h3 M67,32 h1 
    M50,33 h3 M54,33 h1 M56,33 h3 M61,33 h1 M63,33 h2 M68,33 h1 M51,34 h1 M55,34 h1 
    M58,34 h2 M64,34 h2 M68,34 h2 M52,35 h2 M57,35 h3 M63,35 h2 M67,35 h1 M69,35 h1 
    M52,36 h1 M58,36 h2 M59,37 h2 M38,53 h1 M40,53 h1 M79,53 h1 M81,53 h1 M37,54 h1 
    M39,54 h1 M41,54 h1 M43,54 h1 M76,54 h1 M78,54 h1 M80,54 h1 M82,54 h1 M39,55 h4 
    M45,55 h1 M74,55 h1 M77,55 h4 M39,56 h1 M41,56 h1 M43,56 h2 M75,56 h2 M78,56 h1 
    M80,56 h1 M38,57 h1 M42,57 h2 M45,57 h1 M48,57 h1 M71,57 h1 M74,57 h1 M76,57 h2 
    M81,57 h1 M39,58 h1 M41,58 h1 M43,58 h5 M74,58 h3 M78,58 h1 M80,58 h1 M38,59 h1 
    M40,59 h1 M42,59 h5 M48,59 h3 M69,59 h2 M74,59 h4 M79,59 h1 M81,59 h1 M38,60 h2 
    M42,60 h4 M47,60 h1 M49,60 h4 M54,60 h1 M65,60 h1 M67,60 h2 M74,60 h4 M80,60 h2 
    M38,61 h3 M44,61 h8 M53,61 h1 M74,61 h2 M78,61 h4 M45,62 h8 M54,62 h4 M59,62 h2 
    M62,62 h2 M48,63 h10 M59,63 h2 M62,63 h1 M49,64 h9 M59,64 h2 M50,65 h8 M51,66 h6 
    M55,67 h3 M52,68 h9 M52,69 h13 M52,70 h16 M52,71 h6 M59,71 h2 M62,71 h6 M38,72 h1 
    M40,72 h1 M50,72 h8 M59,72 h2 M62,72 h8 M79,72 h1 M81,72 h1 M39,73 h1 M41,73 h1 
    M47,73 h1 M51,73 h3 M58,73 h4 M66,73 h3 M72,73 h1 M78,73 h1 M80,73 h1 M42,74 h1 
    M46,74 h1 M48,74 h3 M53,74 h14 M69,74 h3 M73,74 h1 M77,74 h1 M44,75 h2 M47,75 h11 
    M59,75 h2 M62,75 h11 M74,75 h2 M44,76 h14 M59,76 h2 M62,76 h14 M46,77 h1 M50,77 h5 
    M58,77 h4 M65,77 h4 M73,77 h1 M54,78 h12"/>
  <path stroke="#685d66" d="M45,30 h1 M74,30 h1 M45,31 h2 M50,31 h1 M73,31 h2 M45,32 h1 
    M74,32 h1 M55,41 h1 M64,41 h1 M42,42 h1 M77,42 h1 M42,43 h1 M77,43 h1 M41,44 h1 
    M78,44 h1 M41,45 h1 M78,45 h1 M40,46 h1 M79,46 h1 M40,47 h1 M79,47 h1 M40,48 h2 
    M78,48 h2 M40,49 h2 M60,49 h1 M78,49 h2 M42,50 h1 M58,50 h1 M61,50 h1 M77,50 h1 
    M55,51 h1 M64,51 h1 M44,52 h1 M75,52 h1 M45,53 h1 M48,53 h1 M50,53 h1 M69,53 h1 
    M71,53 h1 M74,53 h1 M46,54 h2 M50,54 h2 M53,54 h2 M65,54 h2 M68,54 h2 M72,54 h2 
    M49,55 h2 M52,55 h1 M54,55 h3 M63,55 h3 M67,55 h1 M69,55 h2 M44,63 h1 M75,63 h1 
    M45,64 h3 M48,65 h1 M49,66 h1 M50,67 h1 M69,67 h1 M50,68 h1 M69,68 h1 M50,69 h1 
    M69,69 h1 M42,77 h1 M77,77 h1 M43,78 h1 M76,78 h1 M44,83 h1 M75,83 h1 M45,84 h1 
    M74,84 h1 M42,86 h4 M74,86 h4 M46,87 h1 M73,87 h1 M40,92 h1 M45,92 h1 M74,92 h1 
    M79,92 h1"/>
  <path stroke="#bcacb1" d="M46,30 h2 M72,30 h2 M47,31 h1 M72,31 h1 M71,36 h1 M45,37 h2 
    M48,37 h1 M51,37 h1 M71,37 h1 M73,37 h2 M47,38 h4 M55,38 h2 M63,38 h4 M70,38 h3 
    M44,40 h2 M53,40 h1 M66,40 h1 M74,40 h2 M44,41 h1 M50,41 h1 M69,41 h1 M75,41 h1 
    M43,43 h1 M76,43 h1 M43,44 h1 M47,44 h1 M58,44 h4 M72,44 h1 M76,44 h1 M43,45 h1 
    M46,45 h2 M72,45 h2 M76,45 h1 M43,46 h2 M75,46 h2 M44,47 h2 M56,47 h2 M62,47 h2 
    M74,47 h2 M43,48 h2 M48,48 h1 M53,48 h1 M55,48 h1 M64,48 h1 M66,48 h1 M71,48 h1 
    M75,48 h2 M58,49 h1 M61,49 h1 M47,50 h3 M55,50 h2 M59,50 h2 M63,50 h2 M70,50 h3 
    M46,52 h1 M53,52 h1 M59,52 h2 M66,52 h1 M73,52 h1 M52,53 h1 M54,53 h1 M59,53 h1 
    M65,53 h1 M67,53 h1 M55,54 h3 M62,54 h3 M54,58 h1 M56,58 h1 M58,58 h1 M61,58 h1 
    M63,58 h1 M65,58 h1 M56,59 h2 M62,59 h2 M41,63 h3 M76,63 h3 M37,64 h1 M42,64 h3 
    M76,64 h2 M82,64 h1 M36,65 h1 M38,65 h2 M41,65 h1 M44,65 h2 M47,65 h1 M78,65 h1 
    M80,65 h2 M83,65 h1 M38,66 h3 M43,66 h1 M48,66 h1 M76,66 h1 M79,66 h3 M37,67 h2 
    M49,67 h1 M70,67 h1 M81,67 h2 M38,68 h2 M48,68 h1 M71,68 h1 M80,68 h2 M40,69 h2 
    M49,69 h1 M70,69 h1 M78,69 h2 M41,70 h2 M48,70 h2 M70,70 h2 M77,70 h2 M44,71 h1 
    M46,71 h2 M72,71 h2 M75,71 h1 M44,72 h1 M46,72 h1 M73,72 h1 M75,72 h1 M33,74 h2 
    M36,74 h2 M82,74 h2 M85,74 h1 M33,75 h1 M35,75 h1 M37,75 h4 M79,75 h4 M84,75 h1 
    M33,76 h4 M38,76 h1 M40,76 h2 M78,76 h2 M81,76 h1 M83,76 h3 M33,77 h5 M40,77 h2 
    M78,77 h2 M82,77 h3 M33,78 h3 M40,78 h3 M77,78 h3 M84,78 h1 M33,79 h4 M38,79 h2 
    M41,79 h2 M77,79 h2 M80,79 h2 M83,79 h2 M33,80 h7 M42,80 h1 M58,80 h1 M61,80 h1 
    M77,80 h1 M80,80 h2 M83,80 h1 M85,80 h1 M33,81 h2 M36,81 h1 M38,81 h1 M40,81 h3 
    M44,81 h1 M46,81 h2 M55,81 h3 M62,81 h3 M72,81 h2 M75,81 h1 M77,81 h3 M81,81 h2 
    M84,81 h1 M34,82 h2 M42,82 h2 M45,82 h4 M71,82 h4 M76,82 h2 M80,82 h4 M34,83 h3 
    M38,83 h1 M42,83 h2 M45,83 h2 M49,83 h1 M53,83 h1 M57,83 h1 M62,83 h1 M66,83 h1 
    M70,83 h1 M73,83 h2 M76,83 h2 M79,83 h2 M82,83 h1 M35,84 h2 M38,84 h1 M42,84 h1 
    M44,84 h1 M46,84 h4 M52,84 h1 M54,84 h1 M56,84 h1 M63,84 h1 M65,84 h1 M67,84 h1 
    M70,84 h4 M75,84 h1 M77,84 h1 M79,84 h1 M82,84 h1 M36,85 h2 M43,85 h1 M45,85 h1 
    M47,85 h2 M50,85 h3 M54,85 h1 M56,85 h1 M58,85 h1 M61,85 h1 M63,85 h1 M65,85 h1 
    M67,85 h3 M71,85 h2 M74,85 h1 M76,85 h1 M81,85 h1 M37,86 h2 M48,86 h3 M53,86 h4 
    M58,86 h4 M63,86 h4 M69,86 h3 M41,87 h5 M49,87 h1 M51,87 h2 M54,87 h2 M57,87 h1 
    M59,87 h2 M62,87 h1 M64,87 h2 M67,87 h2 M70,87 h1 M74,87 h5 M42,88 h1 M45,88 h2 
    M50,88 h1 M52,88 h4 M57,88 h6 M64,88 h4 M69,88 h1 M73,88 h2 M77,88 h1 M79,88 h3 
    M46,89 h2 M51,89 h1 M53,89 h1 M55,89 h1 M64,89 h1 M66,89 h1 M68,89 h1 M72,89 h2 
    M81,89 h1 M38,90 h1 M40,90 h1 M47,90 h1 M54,90 h1 M65,90 h1 M72,90 h1 M79,90 h1 
    M81,90 h1 M38,91 h2 M42,91 h1 M47,91 h1 M72,91 h1 M77,91 h1 M80,91 h2 M39,92 h1"/>
  <path stroke="#8f8189" d="M48,31 h2 M70,31 h2 M49,32 h1 M70,32 h1 M45,33 h1 M74,33 h1 
    M45,34 h1 M74,34 h1 M45,35 h1 M74,35 h1 M45,36 h1 M74,36 h1 M47,37 h1 M72,37 h1 
    M44,38 h3 M73,38 h3 M44,39 h2 M74,39 h2 M54,40 h1 M56,40 h1 M63,40 h1 M65,40 h1 
    M43,41 h1 M76,41 h1 M43,42 h2 M49,42 h1 M56,42 h1 M63,42 h1 M70,42 h1 M75,42 h2 
    M44,43 h1 M48,43 h2 M70,43 h2 M75,43 h1 M42,44 h1 M45,44 h1 M74,44 h1 M77,44 h1 
    M42,45 h1 M77,45 h1 M41,46 h2 M77,46 h2 M41,47 h3 M58,47 h1 M61,47 h1 M76,47 h3 
    M42,48 h1 M47,48 h1 M54,48 h1 M65,48 h1 M72,48 h1 M77,48 h1 M42,49 h2 M46,49 h1 
    M53,49 h1 M66,49 h1 M73,49 h1 M76,49 h2 M43,50 h4 M53,50 h1 M57,50 h1 M62,50 h1 
    M66,50 h1 M73,50 h4 M43,51 h2 M53,51 h1 M66,51 h1 M75,51 h2 M45,52 h1 M54,52 h1 
    M65,52 h1 M74,52 h1 M46,53 h2 M49,53 h1 M51,53 h1 M53,53 h1 M60,53 h1 M66,53 h1 
    M68,53 h1 M70,53 h1 M72,53 h2 M48,54 h2 M52,54 h1 M58,54 h4 M67,54 h1 M70,54 h2 
    M51,55 h1 M53,55 h1 M57,55 h6 M66,55 h1 M68,55 h1 M52,57 h16 M35,65 h1 M37,65 h1 
    M82,65 h1 M84,65 h1 M36,66 h2 M82,66 h2 M36,67 h1 M83,67 h1 M37,68 h1 M49,68 h1 
    M70,68 h1 M82,68 h1 M38,69 h2 M80,69 h2 M39,70 h2 M79,70 h2 M41,71 h2 M48,71 h1 
    M71,71 h1 M77,71 h2 M45,72 h1 M74,72 h1 M86,74 h1 M86,75 h1 M86,76 h1 M85,77 h2 
    M85,78 h2 M85,79 h2 M82,80 h1 M84,80 h1 M86,80 h1 M83,81 h1 M85,81 h2 M40,82 h2 
    M78,82 h2 M84,82 h2 M41,83 h1 M78,83 h1 M81,83 h1 M83,83 h3 M39,84 h1 M41,84 h1 
    M43,84 h1 M76,84 h1 M78,84 h1 M80,84 h2 M83,84 h2 M39,85 h4 M44,85 h1 M46,85 h1 
    M73,85 h1 M75,85 h1 M77,85 h4 M82,85 h2 M39,86 h2 M46,86 h2 M51,86 h1 M68,86 h1 
    M72,86 h2 M79,86 h4 M47,87 h2 M50,87 h1 M69,87 h1 M71,87 h2 M48,88 h2 M51,88 h1 
    M56,88 h1 M63,88 h1 M68,88 h1 M70,88 h2 M49,89 h2 M52,89 h1 M54,89 h1 M56,89 h8 
    M65,89 h1 M67,89 h1 M69,89 h2 M49,90 h5 M55,90 h10 M66,90 h5 M40,91 h1 M44,91 h1 
    M46,91 h1 M73,91 h1 M75,91 h1 M79,91 h1 M41,92 h4 M46,92 h1 M73,92 h1 M75,92 h4 
    M80,92 h1"/>
  <path stroke="#ffbdc1" d="M46,32 h1 M73,32 h1 M46,33 h1 M73,33 h1 M46,34 h1 M73,34 h1"/>
  <path stroke="#ef93b5" d="M47,32 h1 M72,32 h1 M47,33 h1 M72,33 h1 M47,34 h1 M72,34 h1 
    M46,35 h3 M72,35 h2"/>
  <path stroke="#c971a2" d="M48,32 h1 M71,32 h1 M48,33 h1 M71,33 h1 M48,34 h1 M71,34 h1 
    M46,36 h2 M72,36 h2"/>
  <path stroke="#eadedf" d="M68,37 h1 M51,38 h4 M67,38 h3 M46,39 h28 M46,40 h7 
    M55,40 h1 M57,40 h6 M64,40 h1 M67,40 h7 M45,41 h5 M51,41 h4 M56,41 h8 M65,41 h4 
    M70,41 h5 M45,42 h4 M50,42 h6 M57,42 h6 M64,42 h6 M71,42 h4 M45,43 h3 M56,43 h8 
    M72,43 h3 M44,44 h1 M46,44 h1 M48,44 h2 M56,44 h2 M62,44 h2 M70,44 h2 M73,44 h1 
    M75,44 h1 M44,45 h2 M48,45 h2 M56,45 h8 M70,45 h2 M74,45 h2 M45,46 h6 M55,46 h3 
    M62,46 h3 M69,46 h6 M46,47 h10 M64,47 h10 M45,48 h2 M49,48 h4 M56,48 h3 M61,48 h3 
    M67,48 h4 M73,48 h2 M44,49 h2 M47,49 h6 M54,49 h4 M62,49 h4 M67,49 h6 M74,49 h2 
    M50,50 h3 M67,50 h3 M45,51 h8 M54,51 h1 M58,51 h4 M65,51 h1 M67,51 h8 M47,52 h6 
    M55,52 h4 M61,52 h4 M67,52 h6 M55,53 h4 M61,53 h4 M55,58 h1 M57,58 h1 M59,58 h2 
    M62,58 h1 M64,58 h1 M58,59 h4 M38,64 h4 M78,64 h4 M40,65 h1 M42,65 h2 M46,65 h1 
    M76,65 h2 M79,65 h1 M41,66 h2 M44,66 h4 M73,66 h3 M77,66 h2 M39,67 h10 M71,67 h10 
    M40,68 h8 M72,68 h8 M42,69 h7 M71,69 h7 M43,70 h5 M72,70 h5 M43,71 h1 M45,71 h1 
    M74,71 h1 M76,71 h1 M35,74 h1 M84,74 h1 M34,75 h1 M36,75 h1 M83,75 h1 M85,75 h1 
    M37,76 h1 M39,76 h1 M80,76 h1 M82,76 h1 M38,77 h2 M80,77 h2 M36,78 h4 M44,78 h1 
    M75,78 h1 M80,78 h4 M37,79 h1 M40,79 h1 M44,79 h9 M67,79 h9 M79,79 h1 M82,79 h1 
    M40,80 h2 M44,80 h14 M59,80 h2 M62,80 h14 M78,80 h2 M35,81 h1 M37,81 h1 M39,81 h1 
    M45,81 h1 M48,81 h7 M58,81 h4 M65,81 h7 M74,81 h1 M80,81 h1 M36,82 h4 M49,82 h22 
    M37,83 h1 M39,83 h2 M47,83 h2 M50,83 h3 M54,83 h3 M58,83 h4 M63,83 h3 M67,83 h3 
    M71,83 h2 M37,84 h1 M40,84 h1 M50,84 h2 M53,84 h1 M55,84 h1 M57,84 h6 M64,84 h1 
    M66,84 h1 M68,84 h2 M38,85 h1 M49,85 h1 M53,85 h1 M55,85 h1 M57,85 h1 M59,85 h2 
    M62,85 h1 M64,85 h1 M66,85 h1 M70,85 h1 M52,86 h1 M57,86 h1 M62,86 h1 M67,86 h1 
    M53,87 h1 M56,87 h1 M58,87 h1 M61,87 h1 M63,87 h1 M66,87 h1 M38,88 h4 M43,88 h2 
    M75,88 h2 M78,88 h1 M38,89 h8 M74,89 h7 M39,90 h1 M41,90 h6 M73,90 h6 M80,90 h1 
    M41,91 h1 M43,91 h1 M45,91 h1 M74,91 h1 M76,91 h1 M78,91 h1"/>
  <path stroke="#643747" d="M50,43 h3 M54,43 h2 M64,43 h2 M67,43 h3 M51,44 h1 M53,44 h1 
    M55,44 h1 M64,44 h1 M66,44 h1 M68,44 h1 M53,45 h1 M55,45 h1 M64,45 h1 M66,45 h1 
    M51,46 h4 M58,46 h1 M61,46 h1 M65,46 h4"/>
  <path stroke="#91555d" d="M53,43 h1 M66,43 h1 M50,44 h1 M69,44 h1 M50,45 h2 M68,45 h2"/>
  <path stroke="#cd9383" d="M52,44 h1 M54,44 h1 M65,44 h1 M67,44 h1"/>
  <path stroke="#e1ba9e" d="M52,45 h1 M54,45 h1 M65,45 h1 M67,45 h1"/>
  <path stroke="#fa8971" d="M59,46 h1"/>
  <path stroke="#b2434d" d="M60,46 h1 M59,47 h1"/>
  <path stroke="#e55858" d="M60,47 h1"/>
  <path stroke="#7c808b" d="M72,58 h2 M71,59 h1 M73,59 h1 M69,60 h2 M73,60 h1 M66,61 h3 
    M73,61 h1 M64,62 h2 M74,62 h1 M63,63 h1 M74,63 h1 M61,64 h2 M75,64 h1 M59,65 h2 
    M73,65 h3 M58,66 h1 M68,66 h5 M58,67 h3 M65,67 h3 M61,68 h4 M65,69 h4"/>
  <path stroke="#d6dede" d="M72,59 h1 M71,60 h2 M69,61 h4 M66,62 h4 M64,63 h2 M70,63 h4 
    M63,64 h1 M67,64 h8 M61,65 h2 M64,65 h9 M59,66 h2 M63,66 h5 M61,67 h4"/>
  <path stroke="#a5b0b6" d="M70,62 h4 M66,63 h4 M64,64 h3 M63,65 h1 M61,66 h2 M68,67 h1 
    M65,68 h4"/>
</svg>
