<svg xmlns="http://www.w3.org/2000/svg" shape-rendering="crispEdges" viewBox="0 -0.5 120 120" style="width:100%;height:100%;transform:translate3d(0,0,0);content-visibility:visible">
  <path stroke="#211d25" d="M0,0 h120 M0,1 h53 M67,1 h53 M0,2 h35 M85,2 h35 M0,3 h31 
    M89,3 h31 M0,4 h26 M94,4 h26 M0,5 h24 M96,5 h24 M0,6 h20 M100,6 h20 M0,7 h16 
    M104,7 h16 M0,8 h13 M107,8 h13 M0,9 h13 M52,9 h15 M107,9 h13 M0,10 h12 M47,10 h25 
    M108,10 h12 M0,11 h12 M25,11 h70 M108,11 h12 M0,12 h11 M36,12 h48 M109,12 h11 
    M0,13 h11 M42,13 h36 M109,13 h11 M0,14 h10 M46,14 h28 M110,14 h10 M0,15 h10 
    M110,15 h10 M0,16 h9 M111,16 h9 M0,17 h9 M111,17 h9 M0,18 h9 M111,18 h9 M0,19 h8 
    M112,19 h8 M0,20 h8 M112,20 h8 M0,21 h7 M113,21 h7 M0,22 h7 M113,22 h7 M0,23 h6 
    M114,23 h6 M0,24 h6 M10,24 h1 M114,24 h6 M0,25 h5 M10,25 h2 M108,25 h1 M115,25 h5 
    M0,26 h4 M10,26 h2 M108,26 h1 M116,26 h4 M0,27 h4 M10,27 h2 M108,27 h1 M116,27 h4 
    M0,28 h4 M10,28 h2 M108,28 h1 M116,28 h4 M0,29 h3 M10,29 h2 M108,29 h1 M117,29 h3 
    M0,30 h3 M10,30 h2 M108,30 h1 M117,30 h3 M0,31 h3 M10,31 h2 M108,31 h1 M117,31 h3 
    M0,32 h2 M10,32 h2 M108,32 h1 M118,32 h2 M0,33 h2 M10,33 h2 M108,33 h1 M118,33 h2 
    M0,34 h2 M10,34 h2 M108,34 h1 M118,34 h2 M0,35 h2 M10,35 h2 M108,35 h1 M118,35 h2 
    M0,36 h2 M10,36 h3 M107,36 h2 M118,36 h2 M0,37 h2 M10,37 h3 M107,37 h2 M118,37 h2 
    M0,38 h2 M10,38 h3 M107,38 h2 M118,38 h2 M0,39 h2 M10,39 h3 M107,39 h2 M118,39 h2 
    M0,40 h1 M10,40 h3 M107,40 h2 M119,40 h1 M0,41 h1 M10,41 h3 M107,41 h2 M119,41 h1 
    M0,42 h1 M10,42 h4 M106,42 h3 M119,42 h1 M0,43 h1 M9,43 h5 M106,43 h4 M119,43 h1 
    M9,44 h5 M106,44 h4 M9,45 h5 M106,45 h4 M9,46 h6 M105,46 h5 M8,47 h7 M105,47 h6 
    M8,48 h7 M105,48 h6 M8,49 h7 M105,49 h6 M8,50 h7 M105,50 h6 M8,51 h7 M105,51 h6 
    M8,52 h7 M105,52 h6 M8,53 h7 M105,53 h6 M8,54 h7 M105,54 h6 M8,55 h7 M105,55 h6 
    M8,56 h7 M105,56 h6 M8,57 h7 M105,57 h6 M8,58 h7 M105,58 h6 M8,59 h7 M105,59 h6 
    M8,60 h7 M105,60 h6 M8,61 h7 M105,61 h6 M8,62 h7 M105,62 h6 M8,63 h7 M105,63 h6 
    M8,64 h7 M105,64 h6 M8,65 h7 M105,65 h6 M8,66 h7 M105,66 h6 M8,67 h7 M105,67 h6 
    M8,68 h7 M105,68 h6 M8,69 h7 M105,69 h6 M8,70 h7 M105,70 h6 M8,71 h7 M105,71 h6 
    M9,72 h6 M105,72 h5 M9,73 h6 M105,73 h5 M9,74 h5 M106,74 h4 M9,75 h5 M106,75 h4 
    M0,76 h1 M10,76 h4 M106,76 h3 M119,76 h1 M0,77 h1 M10,77 h4 M106,77 h3 M119,77 h1 
    M0,78 h1 M10,78 h3 M107,78 h2 M119,78 h1 M0,79 h1 M10,79 h3 M107,79 h2 M119,79 h1 
    M0,80 h2 M10,80 h3 M107,80 h2 M118,80 h2 M0,81 h2 M10,81 h3 M107,81 h2 M118,81 h2 
    M0,82 h2 M10,82 h3 M107,82 h2 M118,82 h2 M0,83 h2 M10,83 h3 M107,83 h2 M118,83 h2 
    M0,84 h2 M10,84 h2 M108,84 h1 M118,84 h2 M0,85 h2 M10,85 h2 M108,85 h1 M118,85 h2 
    M0,86 h2 M10,86 h2 M108,86 h1 M118,86 h2 M0,87 h2 M10,87 h2 M108,87 h1 M118,87 h2 
    M0,88 h3 M10,88 h2 M108,88 h1 M117,88 h3 M0,89 h3 M10,89 h2 M108,89 h1 M117,89 h3 
    M0,90 h3 M10,90 h2 M108,90 h1 M117,90 h3 M0,91 h4 M10,91 h2 M108,91 h1 M116,91 h4 
    M0,92 h4 M10,92 h2 M108,92 h1 M116,92 h4 M0,93 h4 M10,93 h2 M108,93 h1 M116,93 h4 
    M0,94 h5 M10,94 h2 M108,94 h1 M115,94 h5 M0,95 h6 M114,95 h6 M0,96 h6 M114,96 h6 
    M0,97 h7 M113,97 h7 M0,98 h7 M113,98 h7 M0,99 h8 M112,99 h8 M0,100 h8 M112,100 h8 
    M0,101 h9 M111,101 h9 M0,102 h9 M111,102 h9 M0,103 h9 M111,103 h9 M0,104 h10 
    M110,104 h10 M0,105 h10 M46,105 h28 M110,105 h10 M0,106 h11 M42,106 h36 M109,106 h11 
    M0,107 h11 M36,107 h48 M109,107 h11 M0,108 h12 M47,108 h25 M108,108 h12 M0,109 h12 
    M52,109 h15 M108,109 h12 M0,110 h13 M107,110 h13 M0,111 h13 M107,111 h13 M0,112 h16 
    M104,112 h16 M0,113 h20 M100,113 h20 M0,114 h24 M96,114 h24 M0,115 h26 M94,115 h26 
    M0,116 h31 M89,116 h31 M0,117 h35 M85,117 h35 M0,118 h53 M67,118 h53 M0,119 h120"/>
  <path stroke="#413d42" d="M53,1 h14 M35,2 h50 M31,3 h58 M26,4 h68 M24,5 h72 M20,6 h80 
    M16,7 h88 M13,8 h94 M13,9 h39 M67,9 h40 M12,10 h35 M72,10 h36 M12,11 h13 M95,11 h13 
    M11,12 h5 M25,12 h11 M84,12 h11 M104,12 h5 M11,13 h3 M36,13 h6 M78,13 h6 M106,13 h3 
    M10,14 h3 M17,14 h8 M42,14 h4 M74,14 h4 M95,14 h8 M107,14 h3 M10,15 h3 M16,15 h1 
    M25,15 h11 M46,15 h28 M84,15 h11 M103,15 h1 M107,15 h3 M9,16 h3 M15,16 h1 M36,16 h6 
    M78,16 h6 M104,16 h1 M108,16 h3 M9,17 h3 M14,17 h1 M42,17 h4 M74,17 h4 M105,17 h1 
    M108,17 h3 M9,18 h3 M14,18 h1 M46,18 h28 M105,18 h1 M108,18 h3 M8,19 h4 M14,19 h1 
    M105,19 h1 M108,19 h4 M8,20 h4 M14,20 h1 M105,20 h1 M108,20 h4 M7,21 h5 M14,21 h1 
    M105,21 h1 M108,21 h5 M7,22 h5 M14,22 h1 M105,22 h1 M108,22 h5 M6,23 h6 M14,23 h1 
    M105,23 h1 M108,23 h6 M6,24 h4 M11,24 h1 M14,24 h1 M105,24 h1 M108,24 h6 M5,25 h5 
    M12,25 h1 M15,25 h1 M104,25 h1 M107,25 h1 M109,25 h6 M4,26 h6 M12,26 h1 M15,26 h1 
    M104,26 h1 M107,26 h1 M109,26 h7 M4,27 h6 M12,27 h1 M15,27 h1 M104,27 h1 M107,27 h1 
    M109,27 h7 M4,28 h6 M12,28 h1 M15,28 h1 M104,28 h1 M107,28 h1 M109,28 h7 M3,29 h7 
    M12,29 h1 M15,29 h1 M45,29 h3 M72,29 h3 M104,29 h1 M107,29 h1 M109,29 h8 M3,30 h7 
    M12,30 h1 M15,30 h1 M44,30 h1 M48,30 h4 M55,30 h10 M68,30 h4 M75,30 h1 M104,30 h1 
    M107,30 h1 M109,30 h8 M3,31 h7 M12,31 h1 M15,31 h1 M44,31 h1 M52,31 h3 M65,31 h3 
    M75,31 h1 M104,31 h1 M107,31 h1 M109,31 h8 M2,32 h8 M12,32 h1 M15,32 h1 M44,32 h1 
    M46,32 h3 M71,32 h3 M75,32 h1 M104,32 h1 M107,32 h1 M109,32 h9 M2,33 h8 M12,33 h1 
    M15,33 h1 M44,33 h1 M48,33 h1 M71,33 h1 M75,33 h1 M104,33 h1 M107,33 h1 M109,33 h9 
    M2,34 h8 M12,34 h1 M15,34 h1 M44,34 h1 M49,34 h1 M70,34 h1 M75,34 h1 M104,34 h1 
    M107,34 h1 M109,34 h9 M2,35 h8 M12,35 h1 M15,35 h1 M44,35 h1 M48,35 h2 M70,35 h2 
    M75,35 h1 M104,35 h1 M107,35 h1 M109,35 h9 M2,36 h8 M13,36 h1 M16,36 h1 M44,36 h1 
    M47,36 h1 M72,36 h1 M75,36 h1 M103,36 h1 M106,36 h1 M109,36 h9 M2,37 h8 M13,37 h1 
    M16,37 h1 M44,37 h1 M75,37 h1 M103,37 h1 M106,37 h1 M109,37 h9 M2,38 h8 M13,38 h1 
    M16,38 h1 M43,38 h1 M76,38 h1 M103,38 h1 M106,38 h1 M109,38 h9 M2,39 h8 M13,39 h1 
    M16,39 h1 M43,39 h1 M76,39 h1 M103,39 h1 M106,39 h1 M109,39 h9 M1,40 h9 M13,40 h1 
    M16,40 h1 M43,40 h1 M76,40 h1 M103,40 h1 M106,40 h1 M109,40 h10 M1,41 h9 M13,41 h1 
    M16,41 h1 M42,41 h1 M77,41 h1 M103,41 h1 M106,41 h1 M109,41 h10 M1,42 h9 M14,42 h1 
    M17,42 h1 M41,42 h1 M78,42 h1 M102,42 h1 M105,42 h1 M109,42 h10 M1,43 h8 M14,43 h1 
    M17,43 h1 M41,43 h1 M50,43 h3 M54,43 h2 M64,43 h2 M67,43 h3 M78,43 h1 M102,43 h1 
    M105,43 h1 M110,43 h9 M0,44 h9 M14,44 h1 M17,44 h1 M40,44 h1 M51,44 h1 M53,44 h1 
    M55,44 h1 M64,44 h1 M66,44 h1 M68,44 h1 M79,44 h1 M102,44 h1 M105,44 h1 M110,44 h10 
    M0,45 h9 M14,45 h1 M17,45 h1 M40,45 h1 M53,45 h1 M55,45 h1 M64,45 h1 M66,45 h1 
    M79,45 h1 M102,45 h1 M105,45 h1 M110,45 h10 M0,46 h9 M15,46 h1 M18,46 h1 M39,46 h1 
    M51,46 h4 M65,46 h4 M80,46 h1 M101,46 h1 M104,46 h1 M110,46 h10 M0,47 h8 M15,47 h1 
    M18,47 h1 M39,47 h1 M80,47 h1 M101,47 h1 M104,47 h1 M111,47 h9 M0,48 h8 M15,48 h1 
    M18,48 h1 M39,48 h1 M80,48 h1 M101,48 h1 M104,48 h1 M111,48 h9 M0,49 h8 M15,49 h1 
    M18,49 h1 M39,49 h1 M80,49 h1 M101,49 h1 M104,49 h1 M111,49 h9 M0,50 h8 M15,50 h1 
    M18,50 h1 M38,50 h1 M40,50 h2 M78,50 h2 M81,50 h1 M101,50 h1 M104,50 h1 M111,50 h9 
    M0,51 h8 M15,51 h1 M18,51 h1 M38,51 h1 M42,51 h1 M77,51 h1 M81,51 h1 M101,51 h1 
    M104,51 h1 M111,51 h9 M0,52 h8 M15,52 h1 M18,52 h1 M37,52 h1 M43,52 h1 M76,52 h1 
    M82,52 h1 M101,52 h1 M104,52 h1 M111,52 h9 M0,53 h8 M15,53 h1 M18,53 h1 M36,53 h1 
    M44,53 h1 M75,53 h1 M83,53 h1 M101,53 h1 M104,53 h1 M111,53 h9 M0,54 h8 M15,54 h1 
    M18,54 h1 M35,54 h1 M45,54 h1 M74,54 h1 M84,54 h1 M101,54 h1 M104,54 h1 M111,54 h9 
    M0,55 h8 M15,55 h1 M18,55 h1 M35,55 h1 M46,55 h3 M71,55 h3 M84,55 h1 M101,55 h1 
    M104,55 h1 M111,55 h9 M0,56 h8 M15,56 h1 M18,56 h1 M35,56 h1 M49,56 h22 M84,56 h1 
    M101,56 h1 M104,56 h1 M111,56 h9 M0,57 h8 M15,57 h1 M18,57 h1 M35,57 h1 M84,57 h1 
    M101,57 h1 M104,57 h1 M111,57 h9 M0,58 h8 M15,58 h1 M18,58 h1 M35,58 h1 M84,58 h1 
    M101,58 h1 M104,58 h1 M111,58 h9 M0,59 h8 M15,59 h1 M18,59 h1 M35,59 h1 M84,59 h1 
    M101,59 h1 M104,59 h1 M111,59 h9 M0,60 h8 M15,60 h1 M18,60 h1 M34,60 h1 M85,60 h1 
    M101,60 h1 M104,60 h1 M111,60 h9 M0,61 h8 M15,61 h1 M18,61 h1 M34,61 h1 M43,61 h1 
    M76,61 h1 M85,61 h1 M101,61 h1 M104,61 h1 M111,61 h9 M0,62 h8 M15,62 h1 M18,62 h1 
    M34,62 h1 M43,62 h1 M76,62 h1 M85,62 h1 M101,62 h1 M104,62 h1 M111,62 h9 M0,63 h8 
    M15,63 h1 M18,63 h1 M34,63 h1 M44,63 h1 M75,63 h1 M85,63 h1 M101,63 h1 M104,63 h1 
    M111,63 h9 M0,64 h8 M15,64 h1 M18,64 h1 M34,64 h1 M45,64 h1 M74,64 h1 M85,64 h1 
    M101,64 h1 M104,64 h1 M111,64 h9 M0,65 h8 M15,65 h1 M18,65 h1 M34,65 h1 M85,65 h1 
    M101,65 h1 M104,65 h1 M111,65 h9 M0,66 h8 M15,66 h1 M18,66 h1 M35,66 h1 M84,66 h1 
    M101,66 h1 M104,66 h1 M111,66 h9 M0,67 h8 M15,67 h1 M18,67 h1 M35,67 h1 M84,67 h1 
    M101,67 h1 M104,67 h1 M111,67 h9 M0,68 h8 M15,68 h1 M18,68 h1 M34,68 h1 M36,68 h1 
    M83,68 h1 M85,68 h1 M101,68 h1 M104,68 h1 M111,68 h9 M0,69 h8 M15,69 h1 M18,69 h1 
    M34,69 h1 M37,69 h1 M82,69 h1 M85,69 h1 M101,69 h1 M104,69 h1 M111,69 h9 M0,70 h8 
    M15,70 h1 M18,70 h1 M34,70 h1 M38,70 h1 M50,70 h1 M69,70 h1 M81,70 h1 M85,70 h1 
    M101,70 h1 M104,70 h1 M111,70 h9 M0,71 h8 M15,71 h1 M18,71 h1 M33,71 h1 M39,71 h2 
    M49,71 h1 M70,71 h1 M79,71 h2 M86,71 h1 M101,71 h1 M104,71 h1 M111,71 h9 M0,72 h9 
    M15,72 h1 M18,72 h1 M33,72 h1 M41,72 h3 M47,72 h2 M71,72 h2 M76,72 h3 M86,72 h1 
    M101,72 h1 M104,72 h1 M110,72 h10 M0,73 h9 M15,73 h1 M18,73 h1 M33,73 h1 M44,73 h3 
    M73,73 h3 M86,73 h1 M101,73 h1 M104,73 h1 M110,73 h10 M0,74 h9 M14,74 h1 M17,74 h1 
    M32,74 h1 M87,74 h1 M102,74 h1 M105,74 h1 M110,74 h10 M0,75 h9 M14,75 h1 M17,75 h1 
    M32,75 h1 M87,75 h1 M102,75 h1 M105,75 h1 M110,75 h10 M1,76 h9 M14,76 h1 M17,76 h1 
    M32,76 h1 M87,76 h1 M102,76 h1 M105,76 h1 M109,76 h10 M1,77 h9 M14,77 h1 M17,77 h1 
    M32,77 h1 M87,77 h1 M102,77 h1 M105,77 h1 M109,77 h10 M1,78 h9 M13,78 h1 M16,78 h1 
    M32,78 h1 M87,78 h1 M103,78 h1 M106,78 h1 M109,78 h10 M1,79 h9 M13,79 h1 M16,79 h1 
    M32,79 h1 M43,79 h1 M76,79 h1 M87,79 h1 M103,79 h1 M106,79 h1 M109,79 h10 M2,80 h8 
    M13,80 h1 M16,80 h1 M32,80 h1 M43,80 h1 M76,80 h1 M87,80 h1 M103,80 h1 M106,80 h1 
    M109,80 h9 M2,81 h8 M13,81 h1 M16,81 h1 M32,81 h1 M43,81 h1 M76,81 h1 M87,81 h1 
    M103,81 h1 M106,81 h1 M109,81 h9 M2,82 h8 M13,82 h1 M16,82 h1 M33,82 h1 M86,82 h1 
    M103,82 h1 M106,82 h1 M109,82 h9 M2,83 h8 M13,83 h1 M16,83 h1 M33,83 h1 M86,83 h1 
    M103,83 h1 M106,83 h1 M109,83 h9 M2,84 h8 M12,84 h1 M15,84 h1 M34,84 h1 M85,84 h1 
    M104,84 h1 M107,84 h1 M109,84 h9 M2,85 h8 M12,85 h1 M15,85 h1 M35,85 h1 M84,85 h1 
    M104,85 h1 M107,85 h1 M109,85 h9 M2,86 h8 M12,86 h1 M15,86 h1 M36,86 h1 M41,86 h1 
    M78,86 h1 M83,86 h1 M104,86 h1 M107,86 h1 M109,86 h9 M2,87 h8 M12,87 h1 M15,87 h1 
    M37,87 h4 M79,87 h4 M104,87 h1 M107,87 h1 M109,87 h9 M3,88 h7 M12,88 h1 M15,88 h1 
    M37,88 h1 M47,88 h1 M72,88 h1 M82,88 h1 M104,88 h1 M107,88 h1 M109,88 h8 M3,89 h7 
    M12,89 h1 M15,89 h1 M37,89 h1 M48,89 h1 M71,89 h1 M82,89 h1 M104,89 h1 M107,89 h1 
    M109,89 h8 M3,90 h7 M12,90 h1 M15,90 h1 M37,90 h1 M48,90 h1 M71,90 h1 M82,90 h1 
    M104,90 h1 M107,90 h1 M109,90 h8 M4,91 h6 M12,91 h1 M15,91 h1 M37,91 h1 M48,91 h24 
    M82,91 h1 M104,91 h1 M107,91 h1 M109,91 h7 M4,92 h6 M12,92 h1 M15,92 h1 M38,92 h1 
    M40,92 h1 M45,92 h1 M47,92 h2 M71,92 h2 M74,92 h1 M79,92 h1 M81,92 h1 M104,92 h1 
    M107,92 h1 M109,92 h7 M4,93 h6 M12,93 h1 M15,93 h1 M39,93 h8 M73,93 h8 M104,93 h1 
    M107,93 h1 M109,93 h7 M5,94 h5 M12,94 h1 M15,94 h1 M104,94 h1 M107,94 h1 M109,94 h6 
    M6,95 h6 M14,95 h1 M105,95 h1 M108,95 h6 M6,96 h6 M14,96 h1 M105,96 h1 M108,96 h6 
    M7,97 h5 M14,97 h1 M105,97 h1 M108,97 h5 M7,98 h5 M14,98 h1 M105,98 h1 M108,98 h5 
    M8,99 h4 M14,99 h1 M105,99 h1 M108,99 h4 M8,100 h4 M14,100 h1 M105,100 h1 M108,100 h4 
    M9,101 h3 M14,101 h1 M46,101 h28 M105,101 h1 M108,101 h3 M9,102 h3 M14,102 h1 
    M42,102 h4 M74,102 h4 M105,102 h1 M108,102 h3 M9,103 h3 M15,103 h1 M36,103 h6 
    M78,103 h6 M104,103 h1 M108,103 h3 M10,104 h3 M16,104 h1 M25,104 h11 M46,104 h28 
    M84,104 h11 M103,104 h1 M107,104 h3 M10,105 h3 M17,105 h8 M42,105 h4 M74,105 h4 
    M95,105 h8 M107,105 h3 M11,106 h3 M36,106 h6 M78,106 h6 M106,106 h3 M11,107 h5 
    M25,107 h11 M84,107 h11 M104,107 h5 M12,108 h35 M72,108 h36 M12,109 h40 M67,109 h41 
    M13,110 h94 M13,111 h94 M16,112 h88 M20,113 h80 M24,114 h72 M26,115 h68 M31,116 h58 
    M35,117 h50 M53,118 h14"/>
  <path stroke="#d6dede" d="M16,12 h1 M19,12 h1 M22,12 h1 M97,12 h1 M100,12 h1 
    M103,12 h1 M14,13 h1 M17,13 h1 M20,13 h1 M23,13 h1 M25,13 h1 M28,13 h1 M31,13 h1 
    M34,13 h1 M85,13 h1 M88,13 h1 M91,13 h1 M94,13 h1 M96,13 h1 M99,13 h1 M102,13 h1 
    M105,13 h1 M13,14 h1 M15,14 h1 M26,14 h1 M29,14 h1 M32,14 h1 M35,14 h1 M37,14 h1 
    M40,14 h1 M79,14 h1 M82,14 h1 M84,14 h1 M87,14 h1 M90,14 h1 M93,14 h1 M104,14 h1 
    M106,14 h1 M14,15 h1 M38,15 h1 M41,15 h1 M44,15 h1 M75,15 h1 M78,15 h1 M81,15 h1 
    M105,15 h1 M12,16 h1 M42,16 h1 M45,16 h1 M48,16 h1 M51,16 h1 M54,16 h1 M57,16 h1 
    M59,16 h2 M62,16 h1 M65,16 h1 M68,16 h1 M71,16 h1 M74,16 h1 M77,16 h1 M107,16 h1 
    M13,17 h1 M46,17 h1 M49,17 h1 M52,17 h1 M55,17 h1 M58,17 h1 M61,17 h1 M64,17 h1 
    M67,17 h1 M70,17 h1 M73,17 h1 M106,17 h1 M12,19 h1 M107,19 h1 M13,20 h1 M106,20 h1 
    M12,22 h1 M107,22 h1 M13,23 h1 M106,23 h1 M13,25 h1 M106,25 h1 M14,26 h1 M105,26 h1 
    M13,28 h1 M106,28 h1 M14,29 h1 M105,29 h1 M13,31 h1 M106,31 h1 M14,32 h1 M54,32 h2 
    M57,32 h1 M62,32 h1 M64,32 h2 M105,32 h1 M54,33 h3 M58,33 h4 M63,33 h3 M13,34 h1 
    M53,34 h3 M57,34 h6 M64,34 h3 M106,34 h1 M14,35 h1 M52,35 h3 M56,35 h8 M65,35 h3 
    M105,35 h1 M51,36 h18 M14,37 h1 M49,37 h22 M105,37 h1 M15,38 h1 M47,38 h26 
    M104,38 h1 M46,39 h28 M14,40 h1 M46,40 h7 M55,40 h1 M57,40 h6 M64,40 h1 M67,40 h7 
    M105,40 h1 M15,41 h1 M45,41 h5 M51,41 h4 M56,41 h8 M65,41 h4 M70,41 h5 M104,41 h1 
    M16,42 h1 M45,42 h4 M50,42 h6 M57,42 h6 M64,42 h6 M71,42 h4 M103,42 h1 M45,43 h3 
    M56,43 h8 M72,43 h3 M44,44 h1 M46,44 h1 M48,44 h2 M56,44 h2 M62,44 h2 M70,44 h2 
    M73,44 h1 M75,44 h1 M44,45 h2 M48,45 h2 M56,45 h8 M70,45 h2 M74,45 h2 M17,46 h1 
    M45,46 h6 M55,46 h3 M62,46 h3 M69,46 h6 M102,46 h1 M46,47 h13 M61,47 h13 M16,48 h1 
    M45,48 h2 M49,48 h5 M55,48 h4 M61,48 h4 M66,48 h5 M73,48 h2 M103,48 h1 M17,49 h1 
    M45,49 h1 M47,49 h11 M62,49 h11 M74,49 h1 M102,49 h1 M50,50 h4 M66,50 h4 M16,51 h1 
    M45,51 h10 M58,51 h4 M65,51 h10 M103,51 h1 M17,52 h1 M47,52 h26 M102,52 h1 
    M50,53 h20 M16,54 h1 M53,54 h14 M103,54 h1 M17,55 h1 M102,55 h1 M16,57 h1 M103,57 h1 
    M17,58 h1 M102,58 h1 M16,59 h1 M54,59 h1 M58,59 h4 M65,59 h1 M103,59 h1 M16,60 h1 
    M39,60 h1 M53,60 h1 M55,60 h10 M66,60 h1 M80,60 h1 M103,60 h1 M17,61 h1 M39,61 h2 
    M50,61 h1 M52,61 h1 M54,61 h12 M67,61 h1 M69,61 h1 M79,61 h2 M102,61 h1 M16,62 h1 
    M38,62 h4 M50,62 h20 M78,62 h4 M103,62 h1 M38,63 h3 M42,63 h1 M50,63 h1 M52,63 h16 
    M69,63 h1 M77,63 h1 M79,63 h3 M17,64 h1 M38,64 h4 M51,64 h1 M53,64 h14 M68,64 h1 
    M78,64 h4 M102,64 h1 M16,65 h1 M38,65 h6 M52,65 h1 M54,65 h12 M67,65 h1 M76,65 h6 
    M103,65 h1 M39,66 h4 M44,66 h2 M47,66 h1 M53,66 h14 M72,66 h1 M74,66 h2 M77,66 h4 
    M17,67 h1 M38,67 h1 M40,67 h7 M54,67 h12 M73,67 h7 M81,67 h1 M102,67 h1 M16,68 h1 
    M39,68 h1 M41,68 h7 M54,68 h12 M72,68 h7 M80,68 h1 M103,68 h1 M42,69 h5 M48,69 h1 
    M54,69 h12 M71,69 h1 M73,69 h5 M17,70 h1 M43,70 h3 M47,70 h1 M54,70 h12 M72,70 h1 
    M74,70 h3 M102,70 h1 M16,71 h1 M52,71 h1 M54,71 h12 M67,71 h1 M103,71 h1 M32,72 h1 
    M51,72 h1 M53,72 h1 M55,72 h10 M66,72 h1 M68,72 h1 M17,73 h1 M32,73 h1 M54,73 h12 
    M102,73 h1 M36,74 h1 M49,74 h1 M51,74 h18 M70,74 h1 M83,74 h1 M35,75 h3 M48,75 h1 
    M50,75 h20 M71,75 h1 M82,75 h3 M36,76 h2 M39,76 h1 M49,76 h22 M80,76 h1 M82,76 h2 
    M16,77 h1 M36,77 h3 M45,77 h1 M47,77 h26 M74,77 h1 M81,77 h3 M103,77 h1 M15,78 h1 
    M37,78 h3 M45,78 h2 M48,78 h24 M73,78 h2 M80,78 h3 M104,78 h1 M14,79 h1 M37,79 h4 
    M45,79 h1 M47,79 h26 M74,79 h1 M79,79 h4 M105,79 h1 M39,80 h3 M46,80 h1 M48,80 h24 
    M73,80 h1 M78,80 h3 M15,81 h1 M38,81 h1 M47,81 h1 M49,81 h22 M72,81 h1 M81,81 h1 
    M104,81 h1 M14,82 h1 M49,82 h4 M54,82 h12 M67,82 h4 M105,82 h1 M51,83 h1 M53,83 h1 
    M55,83 h10 M66,83 h1 M68,83 h1 M14,84 h1 M54,84 h1 M56,84 h8 M65,84 h1 M105,84 h1 
    M13,85 h1 M106,85 h1 M14,87 h1 M105,87 h1 M13,88 h1 M41,88 h4 M75,88 h4 M106,88 h1 
    M39,89 h7 M74,89 h7 M14,90 h1 M39,90 h1 M41,90 h6 M73,90 h6 M80,90 h1 M105,90 h1 
    M13,91 h1 M41,91 h1 M43,91 h1 M45,91 h1 M74,91 h1 M76,91 h1 M78,91 h1 M106,91 h1 
    M14,93 h1 M105,93 h1 M13,94 h1 M106,94 h1 M13,96 h1 M106,96 h1 M12,97 h1 M107,97 h1 
    M13,99 h1 M106,99 h1 M12,100 h1 M107,100 h1 M13,102 h1 M46,102 h1 M49,102 h1 
    M52,102 h1 M55,102 h1 M58,102 h1 M61,102 h1 M64,102 h1 M67,102 h1 M70,102 h1 
    M73,102 h1 M106,102 h1 M12,103 h1 M42,103 h1 M45,103 h1 M48,103 h1 M51,103 h1 
    M54,103 h1 M57,103 h1 M59,103 h2 M62,103 h1 M65,103 h1 M68,103 h1 M71,103 h1 
    M74,103 h1 M77,103 h1 M107,103 h1 M14,104 h1 M38,104 h1 M41,104 h1 M44,104 h1 
    M75,104 h1 M78,104 h1 M81,104 h1 M105,104 h1 M13,105 h1 M15,105 h1 M26,105 h1 
    M29,105 h1 M32,105 h1 M35,105 h1 M37,105 h1 M40,105 h1 M79,105 h1 M82,105 h1 
    M84,105 h1 M87,105 h1 M90,105 h1 M93,105 h1 M104,105 h1 M106,105 h1 M14,106 h1 
    M17,106 h1 M20,106 h1 M23,106 h1 M25,106 h1 M28,106 h1 M31,106 h1 M34,106 h1 
    M85,106 h1 M88,106 h1 M91,106 h1 M94,106 h1 M96,106 h1 M99,106 h1 M102,106 h1 
    M105,106 h1 M16,107 h1 M19,107 h1 M22,107 h1 M97,107 h1 M100,107 h1 M103,107 h1"/>
  <path stroke="#a5b0b6" d="M17,12 h2 M20,12 h2 M23,12 h2 M95,12 h2 M98,12 h2 M101,12 h2 
    M15,13 h2 M18,13 h2 M21,13 h2 M24,13 h1 M26,13 h2 M29,13 h2 M32,13 h2 M35,13 h1 
    M84,13 h1 M86,13 h2 M89,13 h2 M92,13 h2 M95,13 h1 M97,13 h2 M100,13 h2 M103,13 h2 
    M14,14 h1 M16,14 h1 M25,14 h1 M27,14 h2 M30,14 h2 M33,14 h2 M36,14 h1 M38,14 h2 
    M41,14 h1 M78,14 h1 M80,14 h2 M83,14 h1 M85,14 h2 M88,14 h2 M91,14 h2 M94,14 h1 
    M103,14 h1 M105,14 h1 M13,15 h1 M15,15 h1 M36,15 h2 M39,15 h2 M42,15 h2 M45,15 h1 
    M74,15 h1 M76,15 h2 M79,15 h2 M82,15 h2 M104,15 h1 M106,15 h1 M13,16 h2 M43,16 h2 
    M46,16 h2 M49,16 h2 M52,16 h2 M55,16 h2 M58,16 h1 M61,16 h1 M63,16 h2 M66,16 h2 
    M69,16 h2 M72,16 h2 M75,16 h2 M105,16 h2 M12,17 h1 M47,17 h2 M50,17 h2 M53,17 h2 
    M56,17 h2 M59,17 h2 M62,17 h2 M65,17 h2 M68,17 h2 M71,17 h2 M107,17 h1 M12,18 h2 
    M106,18 h2 M13,19 h1 M106,19 h1 M12,20 h1 M107,20 h1 M12,21 h2 M106,21 h2 M13,22 h1 
    M106,22 h1 M12,23 h1 M107,23 h1 M12,24 h2 M106,24 h2 M14,25 h1 M105,25 h1 M13,26 h1 
    M106,26 h1 M13,27 h2 M105,27 h2 M14,28 h1 M105,28 h1 M13,29 h1 M106,29 h1 M13,30 h2 
    M105,30 h2 M14,31 h1 M46,31 h4 M70,31 h4 M105,31 h1 M13,32 h1 M52,32 h2 M56,32 h1 
    M58,32 h4 M63,32 h1 M66,32 h2 M106,32 h1 M13,33 h2 M105,33 h2 M14,34 h1 M51,34 h1 
    M68,34 h1 M105,34 h1 M13,35 h1 M50,35 h2 M55,35 h1 M64,35 h1 M68,35 h2 M106,35 h1 
    M14,36 h2 M48,36 h3 M69,36 h3 M104,36 h2 M15,37 h1 M45,37 h4 M71,37 h4 M104,37 h1 
    M14,38 h1 M44,38 h1 M75,38 h1 M105,38 h1 M14,39 h2 M104,39 h2 M15,40 h1 M44,40 h2 
    M53,40 h1 M66,40 h1 M74,40 h2 M104,40 h1 M14,41 h1 M44,41 h1 M50,41 h1 M69,41 h1 
    M75,41 h1 M105,41 h1 M15,42 h1 M49,42 h1 M70,42 h1 M104,42 h1 M15,43 h2 M43,43 h1 
    M48,43 h2 M70,43 h2 M76,43 h1 M103,43 h2 M15,44 h2 M43,44 h1 M47,44 h1 M52,44 h1 
    M54,44 h1 M58,44 h4 M65,44 h1 M67,44 h1 M72,44 h1 M76,44 h1 M103,44 h2 M15,45 h2 
    M43,45 h1 M46,45 h2 M72,45 h2 M76,45 h1 M103,45 h2 M16,46 h1 M43,46 h2 M59,46 h1 
    M75,46 h2 M103,46 h1 M16,47 h2 M43,47 h3 M74,47 h3 M102,47 h2 M17,48 h1 M43,48 h2 
    M48,48 h1 M71,48 h1 M75,48 h2 M102,48 h1 M16,49 h1 M44,49 h1 M58,49 h1 M61,49 h1 
    M75,49 h1 M103,49 h1 M16,50 h2 M47,50 h3 M55,50 h3 M59,50 h2 M62,50 h3 M70,50 h3 
    M102,50 h2 M17,51 h1 M102,51 h1 M16,52 h1 M46,52 h1 M73,52 h1 M103,52 h1 M16,53 h2 
    M47,53 h3 M70,53 h3 M102,53 h2 M17,54 h1 M49,54 h4 M67,54 h4 M102,54 h1 M16,55 h1 
    M55,55 h10 M103,55 h1 M16,56 h2 M41,56 h1 M78,56 h1 M102,56 h2 M17,57 h1 M40,57 h1 
    M42,57 h1 M77,57 h1 M79,57 h1 M102,57 h1 M16,58 h1 M39,58 h1 M41,58 h2 M45,58 h1 
    M47,58 h2 M50,58 h1 M53,58 h14 M69,58 h1 M71,58 h2 M74,58 h1 M77,58 h2 M80,58 h1 
    M103,58 h1 M17,59 h1 M38,59 h5 M46,59 h4 M51,59 h3 M55,59 h3 M62,59 h3 M66,59 h3 
    M70,59 h4 M77,59 h5 M102,59 h1 M17,60 h1 M37,60 h2 M40,60 h4 M45,60 h8 M54,60 h1 
    M65,60 h1 M67,60 h8 M76,60 h4 M81,60 h2 M102,60 h1 M16,61 h1 M36,61 h3 M41,61 h2 
    M45,61 h1 M47,61 h3 M51,61 h1 M53,61 h1 M66,61 h1 M68,61 h1 M70,61 h3 M74,61 h1 
    M77,61 h2 M81,61 h3 M103,61 h1 M17,62 h1 M36,62 h2 M42,62 h1 M46,62 h4 M70,62 h4 
    M77,62 h1 M82,62 h2 M102,62 h1 M16,63 h2 M36,63 h2 M41,63 h1 M43,63 h1 M45,63 h1 
    M49,63 h1 M51,63 h1 M68,63 h1 M70,63 h1 M74,63 h1 M76,63 h1 M78,63 h1 M82,63 h2 
    M102,63 h2 M16,64 h1 M36,64 h2 M42,64 h3 M50,64 h1 M52,64 h1 M67,64 h1 M69,64 h1 
    M75,64 h3 M82,64 h2 M103,64 h1 M17,65 h1 M36,65 h2 M44,65 h4 M50,65 h2 M53,65 h1 
    M66,65 h1 M68,65 h2 M72,65 h4 M82,65 h2 M102,65 h1 M16,66 h2 M37,66 h2 M43,66 h1 
    M46,66 h1 M48,66 h1 M51,66 h2 M67,66 h2 M71,66 h1 M73,66 h1 M76,66 h1 M81,66 h2 
    M102,66 h2 M16,67 h1 M37,67 h1 M39,67 h1 M47,67 h3 M52,67 h2 M66,67 h2 M70,67 h3 
    M80,67 h1 M82,67 h1 M103,67 h1 M17,68 h1 M38,68 h1 M40,68 h1 M48,68 h2 M52,68 h2 
    M66,68 h2 M70,68 h2 M79,68 h1 M81,68 h1 M102,68 h1 M16,69 h2 M40,69 h2 M47,69 h1 
    M49,69 h1 M52,69 h2 M66,69 h2 M70,69 h1 M72,69 h1 M78,69 h2 M102,69 h2 M16,70 h1 
    M41,70 h2 M46,70 h1 M48,70 h2 M52,70 h2 M66,70 h2 M70,70 h2 M73,70 h1 M77,70 h2 
    M103,70 h1 M17,71 h1 M36,71 h1 M43,71 h5 M53,71 h1 M66,71 h1 M72,71 h5 M83,71 h1 
    M102,71 h1 M16,72 h2 M37,72 h1 M44,72 h3 M50,72 h1 M52,72 h1 M54,72 h1 M65,72 h1 
    M67,72 h1 M69,72 h1 M73,72 h3 M82,72 h1 M102,72 h2 M16,73 h1 M35,73 h5 M48,73 h6 
    M66,73 h6 M80,73 h5 M103,73 h1 M15,74 h2 M34,74 h2 M37,74 h6 M46,74 h3 M50,74 h1 
    M69,74 h1 M71,74 h3 M77,74 h6 M84,74 h2 M103,74 h2 M15,75 h2 M34,75 h1 M38,75 h3 
    M42,75 h6 M49,75 h1 M70,75 h1 M72,75 h6 M79,75 h3 M85,75 h1 M103,75 h2 M15,76 h2 
    M34,76 h2 M38,76 h1 M40,76 h2 M43,76 h6 M71,76 h6 M78,76 h2 M81,76 h1 M84,76 h2 
    M103,76 h2 M15,77 h1 M35,77 h1 M39,77 h3 M43,77 h2 M46,77 h1 M73,77 h1 M75,77 h2 
    M78,77 h3 M84,77 h1 M104,77 h1 M14,78 h1 M35,78 h2 M40,78 h3 M44,78 h1 M47,78 h1 
    M72,78 h1 M75,78 h1 M77,78 h3 M83,78 h2 M105,78 h1 M15,79 h1 M35,79 h2 M41,79 h2 
    M44,79 h1 M46,79 h1 M73,79 h1 M75,79 h1 M77,79 h2 M83,79 h2 M104,79 h1 M14,80 h2 
    M34,80 h1 M36,80 h3 M42,80 h1 M44,80 h2 M47,80 h1 M72,80 h1 M74,80 h2 M77,80 h1 
    M81,80 h3 M85,80 h1 M104,80 h2 M14,81 h1 M35,81 h1 M37,81 h1 M39,81 h4 M44,81 h3 
    M48,81 h1 M71,81 h1 M73,81 h3 M77,81 h4 M82,81 h1 M84,81 h1 M105,81 h1 M15,82 h1 
    M37,82 h7 M45,82 h4 M53,82 h1 M66,82 h1 M71,82 h4 M76,82 h7 M104,82 h1 M14,83 h2 
    M37,83 h1 M39,83 h5 M45,83 h6 M52,83 h1 M54,83 h1 M65,83 h1 M67,83 h1 M69,83 h6 
    M76,83 h5 M82,83 h1 M104,83 h2 M13,84 h1 M38,84 h1 M40,84 h1 M42,84 h1 M46,84 h8 
    M55,84 h1 M64,84 h1 M66,84 h8 M77,84 h1 M79,84 h1 M81,84 h1 M106,84 h1 M14,85 h1 
    M47,85 h26 M105,85 h1 M13,86 h2 M48,86 h24 M105,86 h2 M13,87 h1 M41,87 h5 M49,87 h1 
    M51,87 h18 M70,87 h1 M74,87 h5 M106,87 h1 M14,88 h1 M38,88 h3 M45,88 h2 M50,88 h1 
    M52,88 h4 M57,88 h6 M64,88 h4 M69,88 h1 M73,88 h2 M79,88 h3 M105,88 h1 M13,89 h2 
    M38,89 h1 M46,89 h2 M53,89 h1 M55,89 h1 M64,89 h1 M66,89 h1 M72,89 h2 M81,89 h1 
    M105,89 h2 M13,90 h1 M38,90 h1 M40,90 h1 M47,90 h1 M72,90 h1 M79,90 h1 M81,90 h1 
    M106,90 h1 M14,91 h1 M38,91 h2 M42,91 h1 M47,91 h1 M72,91 h1 M77,91 h1 M80,91 h2 
    M105,91 h1 M13,92 h2 M105,92 h2 M13,93 h1 M106,93 h1 M14,94 h1 M105,94 h1 M12,95 h2 
    M106,95 h2 M12,96 h1 M107,96 h1 M13,97 h1 M106,97 h1 M12,98 h2 M106,98 h2 M12,99 h1 
    M107,99 h1 M13,100 h1 M106,100 h1 M12,101 h2 M106,101 h2 M12,102 h1 M47,102 h2 
    M50,102 h2 M53,102 h2 M56,102 h2 M59,102 h2 M62,102 h2 M65,102 h2 M68,102 h2 
    M71,102 h2 M107,102 h1 M13,103 h2 M43,103 h2 M46,103 h2 M49,103 h2 M52,103 h2 
    M55,103 h2 M58,103 h1 M61,103 h1 M63,103 h2 M66,103 h2 M69,103 h2 M72,103 h2 
    M75,103 h2 M105,103 h2 M13,104 h1 M15,104 h1 M36,104 h2 M39,104 h2 M42,104 h2 
    M45,104 h1 M74,104 h1 M76,104 h2 M79,104 h2 M82,104 h2 M104,104 h1 M106,104 h1 
    M14,105 h1 M16,105 h1 M25,105 h1 M27,105 h2 M30,105 h2 M33,105 h2 M36,105 h1 
    M38,105 h2 M41,105 h1 M78,105 h1 M80,105 h2 M83,105 h1 M85,105 h2 M88,105 h2 
    M91,105 h2 M94,105 h1 M103,105 h1 M105,105 h1 M15,106 h2 M18,106 h2 M21,106 h2 
    M24,106 h1 M26,106 h2 M29,106 h2 M32,106 h2 M35,106 h1 M84,106 h1 M86,106 h2 
    M89,106 h2 M92,106 h2 M95,106 h1 M97,106 h2 M100,106 h2 M103,106 h2 M17,107 h2 
    M20,107 h2 M23,107 h2 M95,107 h2 M98,107 h2 M101,107 h2"/>
  <path stroke="#777dc4" d="M17,15 h8 M95,15 h8 M16,16 h20 M84,16 h20 M15,17 h10 
    M95,17 h10 M15,18 h7 M98,18 h7 M15,19 h6 M56,19 h8 M99,19 h6 M15,20 h5 M58,20 h4 
    M100,20 h5 M15,21 h4 M101,21 h4 M15,22 h4 M26,22 h4 M90,22 h4 M101,22 h4 M15,23 h3 
    M24,23 h9 M87,23 h9 M102,23 h3 M15,24 h3 M23,24 h5 M92,24 h5 M102,24 h3 M16,25 h1 
    M22,25 h4 M94,25 h4 M103,25 h1 M16,26 h1 M21,26 h3 M96,26 h3 M103,26 h1 M16,27 h1 
    M21,27 h2 M97,27 h2 M103,27 h1 M16,28 h1 M21,28 h1 M98,28 h1 M103,28 h1 M16,29 h1 
    M21,29 h1 M98,29 h1 M103,29 h1 M16,30 h1 M103,30 h1 M16,31 h1 M103,31 h1 M16,32 h1 
    M103,32 h1 M16,33 h1 M103,33 h1 M16,34 h1 M103,34 h1 M16,35 h1 M103,35 h1 M19,53 h1 
    M100,53 h1 M19,54 h1 M100,54 h1 M19,55 h1 M100,55 h1 M19,56 h1 M100,56 h1 M19,57 h2 
    M99,57 h2 M19,58 h2 M99,58 h2 M19,59 h2 M99,59 h2 M19,60 h2 M99,60 h2 M19,61 h2 
    M99,61 h2 M19,62 h2 M99,62 h2 M19,63 h1 M100,63 h1 M19,64 h1 M100,64 h1 M19,65 h1 
    M100,65 h1 M19,66 h1 M100,66 h1 M16,84 h1 M103,84 h1 M16,85 h1 M103,85 h1 M16,86 h1 
    M103,86 h1 M16,87 h1 M103,87 h1 M16,88 h1 M103,88 h1 M16,89 h1 M103,89 h1 M16,90 h1 
    M21,90 h1 M98,90 h1 M103,90 h1 M16,91 h1 M21,91 h1 M98,91 h1 M103,91 h1 M16,92 h1 
    M21,92 h2 M97,92 h2 M103,92 h1 M16,93 h1 M21,93 h3 M96,93 h3 M103,93 h1 M16,94 h1 
    M22,94 h4 M94,94 h4 M103,94 h1 M15,95 h3 M23,95 h5 M92,95 h5 M102,95 h3 M15,96 h3 
    M24,96 h9 M87,96 h9 M102,96 h3 M15,97 h4 M26,97 h4 M90,97 h4 M101,97 h4 M15,98 h4 
    M101,98 h4 M15,99 h5 M58,99 h4 M100,99 h5 M15,100 h6 M56,100 h8 M99,100 h6 
    M15,101 h7 M98,101 h7 M15,102 h10 M95,102 h10 M16,103 h20 M84,103 h20 M17,104 h8 
    M95,104 h8"/>
  <path stroke="#5d558f" d="M25,17 h17 M78,17 h17 M22,18 h24 M74,18 h24 M21,19 h16 
    M46,19 h10 M64,19 h10 M83,19 h16 M20,20 h23 M49,20 h9 M62,20 h9 M77,20 h23 
    M19,21 h27 M56,21 h8 M74,21 h27 M19,22 h7 M30,22 h18 M57,22 h6 M72,22 h18 M94,22 h7 
    M18,23 h6 M33,23 h18 M58,23 h4 M69,23 h18 M96,23 h6 M18,24 h5 M28,24 h24 M68,24 h24 
    M97,24 h5 M17,25 h5 M26,25 h27 M67,25 h27 M98,25 h5 M17,26 h4 M24,26 h30 M66,26 h30 
    M99,26 h4 M17,27 h4 M23,27 h32 M65,27 h32 M99,27 h4 M17,28 h4 M22,28 h22 M49,28 h6 
    M65,28 h6 M76,28 h22 M99,28 h4 M17,29 h4 M22,29 h21 M53,29 h1 M66,29 h1 M77,29 h21 
    M99,29 h4 M17,30 h26 M78,30 h25 M17,31 h26 M78,31 h25 M17,32 h26 M78,32 h25 
    M17,33 h26 M78,33 h25 M17,34 h26 M78,34 h25 M17,35 h26 M78,35 h25 M17,36 h26 
    M78,36 h25 M17,37 h2 M20,37 h22 M78,37 h22 M101,37 h2 M17,38 h2 M20,38 h22 
    M79,38 h21 M101,38 h2 M17,39 h2 M20,39 h22 M79,39 h21 M101,39 h2 M17,40 h2 
    M20,40 h21 M79,40 h21 M101,40 h2 M17,41 h2 M20,41 h20 M80,41 h20 M101,41 h2 
    M18,42 h1 M20,42 h20 M81,42 h19 M101,42 h1 M18,43 h1 M21,43 h18 M81,43 h18 
    M101,43 h1 M18,44 h1 M21,44 h18 M82,44 h17 M101,44 h1 M18,45 h1 M21,45 h17 
    M82,45 h17 M101,45 h1 M19,46 h1 M22,46 h16 M83,46 h15 M100,46 h1 M19,47 h1 
    M22,47 h16 M83,47 h15 M100,47 h1 M19,48 h1 M23,48 h15 M83,48 h14 M100,48 h1 
    M19,49 h2 M23,49 h14 M83,49 h14 M99,49 h2 M19,50 h2 M23,50 h14 M84,50 h13 M99,50 h2 
    M19,51 h2 M24,51 h12 M84,51 h12 M99,51 h2 M19,52 h2 M25,52 h10 M85,52 h10 M99,52 h2 
    M20,53 h1 M26,53 h8 M86,53 h8 M99,53 h1 M20,54 h1 M27,54 h7 M87,54 h6 M99,54 h1 
    M20,55 h1 M30,55 h4 M87,55 h3 M99,55 h1 M20,56 h2 M32,56 h2 M87,56 h1 M98,56 h2 
    M21,57 h2 M97,57 h2 M21,58 h3 M96,58 h3 M21,59 h3 M96,59 h3 M21,60 h3 M96,60 h3 
    M21,61 h3 M96,61 h3 M21,62 h2 M97,62 h2 M20,63 h2 M32,63 h1 M98,63 h2 M20,64 h1 
    M30,64 h3 M88,64 h2 M99,64 h1 M20,65 h1 M27,65 h6 M88,65 h5 M99,65 h1 M20,66 h1 
    M26,66 h7 M88,66 h6 M99,66 h1 M19,67 h2 M25,67 h8 M88,67 h7 M99,67 h2 M19,68 h2 
    M24,68 h9 M88,68 h8 M99,68 h2 M19,69 h2 M23,69 h10 M88,69 h9 M99,69 h2 M19,70 h2 
    M23,70 h9 M88,70 h9 M99,70 h2 M19,71 h1 M23,71 h8 M89,71 h8 M100,71 h1 M19,72 h1 
    M22,72 h9 M89,72 h9 M100,72 h1 M19,73 h1 M22,73 h9 M89,73 h9 M100,73 h1 M18,74 h1 
    M21,74 h10 M90,74 h9 M101,74 h1 M18,75 h1 M21,75 h10 M90,75 h9 M101,75 h1 M18,76 h1 
    M21,76 h10 M90,76 h9 M101,76 h1 M18,77 h1 M20,77 h11 M90,77 h10 M101,77 h1 
    M17,78 h2 M20,78 h11 M90,78 h10 M101,78 h2 M17,79 h2 M20,79 h11 M90,79 h10 
    M101,79 h2 M17,80 h2 M20,80 h11 M90,80 h10 M101,80 h2 M17,81 h2 M20,81 h11 
    M90,81 h10 M101,81 h2 M17,82 h2 M20,82 h11 M90,82 h10 M101,82 h2 M17,83 h15 
    M90,83 h13 M17,84 h15 M89,84 h14 M17,85 h16 M89,85 h14 M17,86 h17 M88,86 h15 
    M17,87 h18 M87,87 h16 M17,88 h19 M86,88 h17 M17,89 h19 M85,89 h18 M17,90 h4 
    M22,90 h14 M85,90 h13 M99,90 h4 M17,91 h4 M22,91 h14 M85,91 h13 M99,91 h4 M17,92 h4 
    M23,92 h13 M85,92 h12 M99,92 h4 M17,93 h4 M24,93 h13 M85,93 h11 M99,93 h4 M17,94 h5 
    M26,94 h12 M51,94 h2 M67,94 h4 M84,94 h10 M98,94 h5 M18,95 h5 M28,95 h11 M49,95 h3 
    M68,95 h5 M83,95 h9 M97,95 h5 M18,96 h6 M33,96 h18 M58,96 h4 M69,96 h18 M96,96 h6 
    M19,97 h7 M30,97 h18 M57,97 h6 M72,97 h18 M94,97 h7 M19,98 h27 M56,98 h8 M74,98 h27 
    M20,99 h23 M49,99 h9 M62,99 h9 M77,99 h23 M21,100 h16 M46,100 h10 M64,100 h10 
    M83,100 h16 M22,101 h24 M74,101 h24 M25,102 h17 M78,102 h17"/>
  <path stroke="#4c3d57" d="M37,19 h9 M74,19 h9 M43,20 h6 M71,20 h6 M46,21 h10 
    M64,21 h10 M48,22 h9 M63,22 h9 M51,23 h7 M62,23 h7 M52,24 h16 M53,25 h14 M54,26 h12 
    M55,27 h10 M55,28 h10 M77,30 h1 M77,31 h1 M77,32 h1 M77,33 h1 M77,34 h1 M77,35 h1 
    M77,36 h1 M19,37 h1 M100,37 h1 M19,38 h1 M78,38 h1 M100,38 h1 M19,39 h1 M78,39 h1 
    M100,39 h1 M19,40 h1 M100,40 h1 M19,41 h1 M100,41 h1 M19,42 h1 M100,42 h1 M19,43 h2 
    M99,43 h2 M19,44 h2 M81,44 h1 M99,44 h2 M19,45 h2 M99,45 h2 M20,46 h2 M82,46 h1 
    M98,46 h2 M20,47 h2 M82,47 h1 M98,47 h2 M20,48 h3 M82,48 h1 M97,48 h3 M21,49 h2 
    M97,49 h2 M21,50 h2 M83,50 h1 M97,50 h2 M21,51 h3 M96,51 h3 M21,52 h4 M95,52 h4 
    M21,53 h5 M94,53 h5 M21,54 h6 M86,54 h1 M93,54 h6 M21,55 h9 M86,55 h1 M90,55 h9 
    M22,56 h10 M86,56 h1 M88,56 h10 M23,57 h11 M87,57 h10 M24,58 h10 M87,58 h9 
    M24,59 h9 M87,59 h9 M24,60 h9 M88,60 h8 M24,61 h9 M88,61 h8 M23,62 h10 M88,62 h9 
    M22,63 h10 M87,63 h11 M21,64 h9 M87,64 h1 M90,64 h9 M21,65 h6 M87,65 h1 M93,65 h6 
    M21,66 h5 M87,66 h1 M94,66 h5 M21,67 h4 M87,67 h1 M95,67 h4 M21,68 h3 M87,68 h1 
    M96,68 h3 M21,69 h2 M87,69 h1 M97,69 h2 M21,70 h2 M97,70 h2 M20,71 h3 M88,71 h1 
    M97,71 h3 M20,72 h2 M88,72 h1 M98,72 h2 M20,73 h2 M98,73 h2 M19,74 h2 M89,74 h1 
    M99,74 h2 M19,75 h2 M89,75 h1 M99,75 h2 M19,76 h2 M89,76 h1 M99,76 h2 M19,77 h1 
    M89,77 h1 M100,77 h1 M19,78 h1 M89,78 h1 M100,78 h1 M19,79 h1 M89,79 h1 M100,79 h1 
    M19,80 h1 M89,80 h1 M100,80 h1 M19,81 h1 M89,81 h1 M100,81 h1 M19,82 h1 M89,82 h1 
    M100,82 h1 M88,83 h2 M88,84 h1 M87,85 h2 M86,86 h2 M85,87 h2 M84,88 h2 M84,89 h1 
    M84,90 h1 M84,91 h1 M84,92 h1 M50,93 h4 M66,93 h4 M83,93 h2 M48,94 h3 M53,94 h14 
    M71,94 h1 M82,94 h2 M39,95 h10 M52,95 h16 M73,95 h10 M51,96 h7 M62,96 h7 M48,97 h9 
    M63,97 h9 M46,98 h10 M64,98 h10 M43,99 h6 M71,99 h6 M37,100 h9 M74,100 h9"/>
  <path stroke="#ffffff" d="M44,28 h5 M71,28 h5 M43,29 h2 M48,29 h5 M54,29 h12 
    M67,29 h5 M75,29 h2 M43,30 h1 M45,30 h3 M52,30 h3 M65,30 h3 M72,30 h3 M76,30 h1 
    M43,31 h1 M45,31 h1 M50,31 h2 M68,31 h2 M74,31 h1 M76,31 h1 M43,32 h1 M45,32 h1 
    M74,32 h1 M76,32 h1 M43,33 h1 M76,33 h1 M43,34 h1 M76,34 h1 M43,35 h1 M76,35 h1 
    M43,36 h1 M76,36 h1 M42,37 h2 M76,37 h2 M42,38 h1 M77,38 h1 M42,39 h1 M77,39 h1 
    M41,40 h2 M77,40 h2 M40,41 h2 M43,41 h1 M76,41 h1 M78,41 h2 M40,42 h1 M42,42 h3 
    M75,42 h3 M79,42 h1 M39,43 h2 M42,43 h1 M44,43 h1 M75,43 h1 M77,43 h1 M79,43 h2 
    M39,44 h1 M41,44 h1 M45,44 h1 M74,44 h1 M78,44 h1 M80,44 h1 M38,45 h2 M41,45 h1 
    M52,45 h1 M54,45 h1 M65,45 h1 M67,45 h1 M78,45 h1 M80,45 h2 M38,46 h1 M40,46 h1 
    M79,46 h1 M81,46 h1 M38,47 h1 M40,47 h1 M79,47 h1 M81,47 h1 M38,48 h1 M40,48 h2 
    M78,48 h2 M81,48 h1 M37,49 h2 M40,49 h2 M78,49 h2 M81,49 h2 M37,50 h1 M39,50 h1 
    M42,50 h1 M77,50 h1 M80,50 h1 M82,50 h1 M36,51 h2 M39,51 h3 M78,51 h3 M82,51 h2 
    M35,52 h2 M38,52 h1 M40,52 h3 M44,52 h2 M74,52 h2 M77,52 h3 M81,52 h1 M83,52 h2 
    M34,53 h2 M37,53 h1 M39,53 h1 M42,53 h2 M45,53 h2 M73,53 h2 M76,53 h2 M80,53 h1 
    M82,53 h1 M84,53 h2 M34,54 h1 M36,54 h3 M40,54 h1 M43,54 h2 M46,54 h3 M71,54 h3 
    M75,54 h2 M79,54 h1 M81,54 h3 M85,54 h1 M34,55 h1 M36,55 h2 M39,55 h1 M44,55 h2 
    M49,55 h6 M65,55 h6 M74,55 h2 M80,55 h1 M82,55 h2 M85,55 h1 M34,56 h1 M36,56 h2 
    M47,56 h2 M71,56 h2 M82,56 h2 M85,56 h1 M34,57 h1 M37,57 h1 M82,57 h1 M85,57 h1 
    M34,58 h1 M36,58 h1 M83,58 h1 M85,58 h1 M33,59 h2 M36,59 h1 M83,59 h1 M85,59 h2 
    M33,60 h1 M86,60 h1 M33,61 h1 M86,61 h1 M33,62 h1 M86,62 h1 M33,63 h1 M86,63 h1 
    M33,64 h1 M46,64 h2 M72,64 h2 M86,64 h1 M33,65 h1 M48,65 h1 M71,65 h1 M86,65 h1 
    M33,66 h2 M49,66 h1 M70,66 h1 M85,66 h2 M33,67 h2 M50,67 h1 M69,67 h1 M85,67 h2 
    M33,68 h1 M35,68 h1 M50,68 h1 M69,68 h1 M84,68 h1 M86,68 h1 M33,69 h1 M35,69 h1 
    M50,69 h1 M69,69 h1 M84,69 h1 M86,69 h1 M32,70 h2 M35,70 h1 M84,70 h1 M86,70 h2 
    M31,71 h2 M34,71 h1 M85,71 h1 M87,71 h1 M31,72 h1 M34,72 h1 M85,72 h1 M87,72 h1 
    M31,73 h1 M34,73 h1 M85,73 h1 M87,73 h2 M31,74 h1 M33,74 h1 M86,74 h1 M88,74 h1 
    M31,75 h1 M33,75 h1 M41,75 h1 M78,75 h1 M86,75 h1 M88,75 h1 M31,76 h1 M33,76 h1 
    M42,76 h1 M77,76 h1 M86,76 h1 M88,76 h1 M31,77 h1 M33,77 h1 M42,77 h1 M77,77 h1 
    M86,77 h1 M88,77 h1 M31,78 h1 M33,78 h1 M43,78 h1 M76,78 h1 M86,78 h1 M88,78 h1 
    M31,79 h1 M88,79 h1 M31,80 h1 M88,80 h1 M31,81 h1 M88,81 h1 M31,82 h2 M44,82 h1 
    M75,82 h1 M87,82 h2 M32,83 h1 M44,83 h1 M75,83 h1 M87,83 h1 M32,84 h2 M45,84 h1 
    M74,84 h1 M86,84 h2 M33,85 h2 M85,85 h2 M34,86 h2 M42,86 h4 M74,86 h4 M84,86 h2 
    M35,87 h2 M46,87 h1 M73,87 h1 M83,87 h2 M36,88 h1 M83,88 h1 M36,89 h1 M83,89 h1 
    M36,90 h1 M83,90 h1 M36,91 h1 M83,91 h1 M36,92 h2 M49,92 h22 M82,92 h2 M37,93 h2 
    M47,93 h3 M70,93 h3 M81,93 h2 M38,94 h10 M72,94 h10"/>
  <path stroke="#7c808b" d="M55,31 h10 M49,32 h3 M68,32 h3 M45,33 h1 M50,33 h4 
    M57,33 h1 M62,33 h1 M66,33 h4 M74,33 h1 M45,34 h2 M52,34 h1 M56,34 h1 M63,34 h1 
    M67,34 h1 M73,34 h2 M45,35 h1 M74,35 h1 M45,36 h1 M74,36 h1 M45,38 h2 M73,38 h2 
    M44,39 h2 M74,39 h2 M54,40 h1 M56,40 h1 M63,40 h1 M65,40 h1 M55,41 h1 M64,41 h1 
    M56,42 h1 M63,42 h1 M53,43 h1 M66,43 h1 M42,44 h1 M50,44 h1 M69,44 h1 M77,44 h1 
    M42,45 h1 M50,45 h2 M68,45 h2 M77,45 h1 M41,46 h2 M60,46 h1 M77,46 h2 M41,47 h2 
    M59,47 h2 M77,47 h2 M42,48 h1 M47,48 h1 M54,48 h1 M65,48 h1 M72,48 h1 M77,48 h1 
    M42,49 h2 M46,49 h1 M60,49 h1 M73,49 h1 M76,49 h2 M43,50 h4 M73,50 h4 M43,51 h2 
    M75,51 h2 M39,52 h1 M80,52 h1 M38,53 h1 M40,53 h2 M78,53 h2 M81,53 h1 M39,54 h1 
    M41,54 h2 M77,54 h2 M80,54 h1 M38,55 h1 M40,55 h4 M76,55 h4 M81,55 h1 M38,56 h3 
    M42,56 h5 M73,56 h5 M79,56 h3 M36,57 h1 M38,57 h2 M41,57 h1 M43,57 h34 M78,57 h1 
    M80,57 h2 M83,57 h1 M37,58 h2 M40,58 h1 M43,58 h2 M46,58 h1 M49,58 h1 M51,58 h2 
    M67,58 h2 M70,58 h1 M73,58 h1 M75,58 h2 M79,58 h1 M81,58 h2 M37,59 h1 M43,59 h3 
    M50,59 h1 M69,59 h1 M74,59 h3 M82,59 h1 M35,60 h2 M44,60 h1 M75,60 h1 M83,60 h2 
    M35,61 h1 M44,61 h1 M46,61 h1 M73,61 h1 M75,61 h1 M84,61 h1 M35,62 h1 M44,62 h2 
    M74,62 h2 M84,62 h1 M35,63 h1 M46,63 h3 M71,63 h3 M84,63 h1 M35,64 h1 M48,64 h2 
    M70,64 h2 M84,64 h1 M35,65 h1 M49,65 h1 M70,65 h1 M84,65 h1 M36,66 h1 M50,66 h1 
    M69,66 h1 M83,66 h1 M36,67 h1 M51,67 h1 M68,67 h1 M83,67 h1 M37,68 h1 M51,68 h1 
    M68,68 h1 M82,68 h1 M36,69 h1 M38,69 h2 M51,69 h1 M68,69 h1 M80,69 h2 M83,69 h1 
    M36,70 h2 M39,70 h2 M51,70 h1 M68,70 h1 M79,70 h2 M82,70 h2 M35,71 h1 M37,71 h2 
    M41,71 h2 M48,71 h1 M50,71 h2 M68,71 h2 M71,71 h1 M77,71 h2 M81,71 h2 M84,71 h1 
    M35,72 h2 M38,72 h3 M49,72 h1 M70,72 h1 M79,72 h3 M83,72 h2 M40,73 h4 M47,73 h1 
    M72,73 h1 M76,73 h4 M43,74 h3 M74,74 h3 M34,77 h1 M85,77 h1 M34,78 h1 M85,78 h1 
    M33,79 h2 M85,79 h2 M33,80 h1 M35,80 h1 M84,80 h1 M86,80 h1 M33,81 h2 M36,81 h1 
    M83,81 h1 M85,81 h2 M34,82 h3 M83,82 h3 M34,83 h3 M38,83 h1 M81,83 h1 M83,83 h3 
    M35,84 h3 M39,84 h1 M41,84 h1 M43,84 h2 M75,84 h2 M78,84 h1 M80,84 h1 M82,84 h3 
    M36,85 h11 M73,85 h11 M37,86 h4 M46,86 h2 M72,86 h2 M79,86 h4 M47,87 h2 M50,87 h1 
    M69,87 h1 M71,87 h2 M48,88 h2 M51,88 h1 M56,88 h1 M63,88 h1 M68,88 h1 M70,88 h2 
    M49,89 h4 M54,89 h1 M56,89 h8 M65,89 h1 M67,89 h4 M49,90 h22 M40,91 h1 M44,91 h1 
    M46,91 h1 M73,91 h1 M75,91 h1 M79,91 h1 M39,92 h1 M41,92 h4 M46,92 h1 M73,92 h1 
    M75,92 h4 M80,92 h1"/>
  <path stroke="#5c5b63" d="M46,33 h2 M49,33 h1 M70,33 h1 M72,33 h2 M47,34 h2 M50,34 h1 
    M69,34 h1 M71,34 h2 M46,35 h2 M72,35 h2 M46,36 h1 M73,36 h1 M58,46 h1 M61,46 h1 
    M59,48 h2 M59,49 h1 M54,50 h1 M58,50 h1 M61,50 h1 M65,50 h1 M55,51 h3 M62,51 h3"/>
  <path stroke="#293846" d="M80,42 h1 M86,57 h1 M86,58 h1 M87,60 h1 M87,61 h1 M87,62 h1 
    M54,93 h12"/>
</svg>
